<svg width="195" height="116" viewBox="0 0 195 116" fill="none" xmlns="http://www.w3.org/2000/svg">
<g clip-path="url(#clip0_909_54798)">
<path d="M93.2504 81.9544L84.9881 77.1718L73.6977 78.921L70.6743 85.453L78.9366 90.2308L90.227 88.4815L93.2504 81.9544Z" stroke="#F4F3EC" stroke-width="0.5" stroke-miterlimit="10"/>
<path d="M107.564 73.6732L99.3021 68.8954L88.0116 70.6447L84.9883 77.1718L93.2505 81.9544L104.541 80.2051L107.564 73.6732Z" stroke="#F4F3EC" stroke-width="0.5" stroke-miterlimit="10"/>
<path d="M121.878 65.3968L113.616 60.619L102.325 62.3683L99.3018 68.8954L107.564 73.6732L118.85 71.9239L121.878 65.3968Z" stroke="#F4F3EC" stroke-width="0.5" stroke-miterlimit="10"/>
<path d="M136.192 57.1205L127.925 52.3427L116.639 54.0919L113.616 60.619L121.878 65.3968L133.164 63.6475L136.192 57.1205Z" stroke="#F4F3EC" stroke-width="0.5" stroke-miterlimit="10"/>
<path d="M132.356 88.0116L124.089 83.2338L112.803 84.983L109.78 91.5101L118.042 96.2879L129.333 94.5387L132.356 88.0116Z" stroke="#F4F3EC" stroke-width="0.5" stroke-miterlimit="10"/>
<path d="M118.042 96.2879L109.78 91.5101L98.4892 93.2594L95.4658 99.7865L103.728 104.569L115.019 102.82L118.042 96.2879Z" stroke="#F4F3EC" stroke-width="0.5" stroke-miterlimit="10"/>
<path d="M146.67 79.7352L138.403 74.9574L127.117 76.7067L124.089 83.2338L132.356 88.0116L143.642 86.2623L146.67 79.7352Z" stroke="#F4F3EC" stroke-width="0.5" stroke-miterlimit="10"/>
<path d="M160.983 71.4588L152.716 66.6761L141.431 68.4254L138.402 74.9574L146.669 79.7352L157.955 77.9859L160.983 71.4588Z" stroke="#F4F3EC" stroke-width="0.5" stroke-miterlimit="10"/>
<path d="M157.147 102.35L148.88 97.572L137.595 99.3213L134.571 105.848L142.834 110.626L154.119 108.877L157.147 102.35Z" stroke="#F4F3EC" stroke-width="0.5" stroke-miterlimit="10"/>
<path d="M171.456 94.0734L163.194 89.2908L151.909 91.0401L148.88 97.572L157.147 102.35L168.433 100.601L171.456 94.0734Z" stroke="#F4F3EC" stroke-width="0.5" stroke-miterlimit="10"/>
<path d="M185.77 85.7922L177.508 81.0144L166.223 82.7637L163.194 89.2908L171.457 94.0734L182.747 92.3241L185.77 85.7922Z" stroke="#F4F3EC" stroke-width="0.5" stroke-miterlimit="10"/>
<path d="M57.9809 45.0015L49.7186 40.2189L38.4282 41.9682L35.4048 48.5001L43.667 53.2779L54.9575 51.5286L57.9809 45.0015Z" stroke="#F4F3EC" stroke-width="0.5" stroke-miterlimit="10"/>
<path d="M72.2948 36.7203L64.0326 31.9425L52.7421 33.6918L49.7188 40.2189L57.981 45.0015L69.2715 43.2523L72.2948 36.7203Z" stroke="#F4F3EC" stroke-width="0.5" stroke-miterlimit="10"/>
<path d="M86.6088 28.4439L78.3466 23.6661L67.0561 25.4154L64.0327 31.9425L72.295 36.7203L83.5854 34.971L86.6088 28.4439Z" stroke="#F4F3EC" stroke-width="0.5" stroke-miterlimit="10"/>
<path d="M175.292 63.1776L167.03 58.3998L155.74 60.1491L152.716 66.6762L160.983 71.4588L172.269 69.7095L175.292 63.1776Z" stroke="#F4F3EC" stroke-width="0.5" stroke-miterlimit="10"/>
<path d="M68.4589 67.6162L60.1967 62.8384L48.9062 64.5828L45.8828 71.1148L54.1451 75.8926L65.4355 74.1433L68.4589 67.6162Z" stroke="#F4F3EC" stroke-width="0.5" stroke-miterlimit="10"/>
<path d="M125.714 34.5059L117.447 29.7233L106.162 31.4725L103.138 38.0045L111.4 42.7823L122.686 41.033L125.714 34.5059Z" stroke="#F4F3EC" stroke-width="0.5" stroke-miterlimit="10"/>
<path d="M82.7724 59.3349L74.5101 54.5571L63.2197 56.3064L60.1963 62.8383L68.4585 67.6162L79.749 65.8669L82.7724 59.3349Z" stroke="#F4F3EC" stroke-width="0.5" stroke-miterlimit="10"/>
<path d="M97.0863 51.0586L88.8241 46.2808L77.5336 48.03L74.5103 54.5571L82.7725 59.3349L94.063 57.5857L97.0863 51.0586Z" stroke="#F4F3EC" stroke-width="0.5" stroke-miterlimit="10"/>
<path d="M111.4 42.7822L103.138 38.0044L91.8476 39.7537L88.8242 46.2808L97.0865 51.0586L108.372 49.3093L111.4 42.7822Z" stroke="#F4F3EC" stroke-width="0.5" stroke-miterlimit="10"/>
<path d="M150.506 48.8442L142.239 44.0615L130.953 45.8108L127.925 52.3427L136.192 57.1205L147.478 55.3713L150.506 48.8442Z" stroke="#F4F3EC" stroke-width="0.5" stroke-miterlimit="10"/>
<path d="M164.815 40.563L156.553 35.7852L145.262 37.5344L142.239 44.0615L150.506 48.8442L161.791 47.0949L164.815 40.563Z" stroke="#F4F3EC" stroke-width="0.5" stroke-miterlimit="10"/>
<path d="M140.023 26.2247L131.761 21.4469L120.475 23.1962L117.447 29.7233L125.714 34.5059L136.999 32.7566L140.023 26.2247Z" stroke="#F4F3EC" stroke-width="0.5" stroke-miterlimit="10"/>
<path d="M189.606 54.9012L181.344 50.1234L170.054 51.8727L167.03 58.3998L175.293 63.1776L186.583 61.4283L189.606 54.9012Z" stroke="#F4F3EC" stroke-width="0.5" stroke-miterlimit="10"/>
<path d="M54.1449 75.8926L45.8827 71.1147L34.5971 72.864L31.5688 79.3911L39.8359 84.1689L51.1216 82.4196L54.1449 75.8926Z" stroke="#F4F3EC" stroke-width="0.5" stroke-miterlimit="10"/>
<path d="M103.728 104.569L95.4657 99.7865L84.1752 101.536L81.1519 108.068L89.4141 112.846L100.705 111.096L103.728 104.569Z" stroke="#F4F3EC" stroke-width="0.5" stroke-miterlimit="10"/>
<path d="M78.9364 90.2308L70.6742 85.453L59.3837 87.2023L56.3604 93.7294L64.6226 98.5072L75.9131 96.7579L78.9364 90.2308Z" stroke="#F4F3EC" stroke-width="0.5" stroke-miterlimit="10"/>
<path d="M112.803 84.983L104.541 80.2052L93.2504 81.9545L90.2271 88.4816L98.4893 93.2594L109.78 91.5101L112.803 84.983Z" stroke="#F4F3EC" stroke-width="0.5" stroke-miterlimit="10"/>
<path d="M127.117 76.7066L118.85 71.924L107.564 73.6732L104.541 80.2052L112.803 84.983L124.089 83.2337L127.117 76.7066Z" stroke="#F4F3EC" stroke-width="0.5" stroke-miterlimit="10"/>
<path d="M141.431 68.4254L133.163 63.6476L121.878 65.3969L118.85 71.9239L127.117 76.7066L138.402 74.9573L141.431 68.4254Z" stroke="#F4F3EC" stroke-width="0.5" stroke-miterlimit="10"/>
<path d="M155.74 60.149L147.477 55.3712L136.192 57.1205L133.164 63.6476L141.431 68.4254L152.716 66.6761L155.74 60.149Z" stroke="#F4F3EC" stroke-width="0.5" stroke-miterlimit="10"/>
<path d="M137.595 99.3212L129.332 94.5386L118.042 96.2879L115.019 102.82L123.281 107.598L134.571 105.848L137.595 99.3212Z" stroke="#F4F3EC" stroke-width="0.5" stroke-miterlimit="10"/>
<path d="M151.909 91.04L143.642 86.2622L132.356 88.0115L129.333 94.5386L137.595 99.3212L148.88 97.572L151.909 91.04Z" stroke="#F4F3EC" stroke-width="0.5" stroke-miterlimit="10"/>
<path d="M166.223 82.7636L157.955 77.9858L146.67 79.7351L143.642 86.2622L151.909 91.04L163.194 89.2907L166.223 82.7636Z" stroke="#F4F3EC" stroke-width="0.5" stroke-miterlimit="10"/>
<path d="M180.531 74.4873L172.269 69.7095L160.983 71.4588L157.955 77.9858L166.222 82.7637L177.508 81.0144L180.531 74.4873Z" stroke="#F4F3EC" stroke-width="0.5" stroke-miterlimit="10"/>
<path d="M63.2197 56.3065L54.9574 51.5287L43.6669 53.278L40.6436 59.8051L48.9058 64.5829L60.1963 62.8384L63.2197 56.3065Z" stroke="#F4F3EC" stroke-width="0.5" stroke-miterlimit="10"/>
<path d="M77.5336 48.0301L69.2714 43.2523L57.9809 45.0016L54.9575 51.5287L63.2198 56.3065L74.5102 54.5572L77.5336 48.0301Z" stroke="#F4F3EC" stroke-width="0.5" stroke-miterlimit="10"/>
<path d="M91.8476 39.7537L83.5853 34.9711L72.2949 36.7203L69.2715 43.2523L77.5337 48.0301L88.8242 46.2808L91.8476 39.7537Z" stroke="#F4F3EC" stroke-width="0.5" stroke-miterlimit="10"/>
<path d="M106.162 31.4725L97.8944 26.6947L86.6088 28.444L83.5854 34.9711L91.8477 39.7537L103.138 38.0044L106.162 31.4725Z" stroke="#F4F3EC" stroke-width="0.5" stroke-miterlimit="10"/>
<path d="M170.054 51.8727L161.791 47.0948L150.506 48.8441L147.478 55.3712L155.74 60.149L167.03 58.3997L170.054 51.8727Z" stroke="#F4F3EC" stroke-width="0.5" stroke-miterlimit="10"/>
<path d="M120.475 23.1961L112.208 18.4183L100.922 20.1676L97.894 26.6947L106.161 31.4725L117.447 29.7232L120.475 23.1961Z" stroke="#F4F3EC" stroke-width="0.5" stroke-miterlimit="10"/>
<path d="M194.845 66.211L186.583 61.4283L175.292 63.1776L172.269 69.7096L180.531 74.4874L191.822 72.7381L194.845 66.211Z" stroke="#F4F3EC" stroke-width="0.5" stroke-miterlimit="10"/>
<path d="M48.9062 64.5829L40.6439 59.8051L29.3583 61.5543L26.3301 68.0814L34.5972 72.8641L45.8828 71.1148L48.9062 64.5829Z" stroke="#F4F3EC" stroke-width="0.5" stroke-miterlimit="10"/>
<path d="M123.281 107.598L115.018 102.82L103.728 104.569L100.705 111.096L108.967 115.874L120.257 114.125L123.281 107.598Z" stroke="#F4F3EC" stroke-width="0.5" stroke-miterlimit="10"/>
<path d="M98.4892 93.2594L90.2269 88.4816L78.9365 90.2308L75.9131 96.7579L84.1754 101.536L95.4658 99.7865L98.4892 93.2594Z" stroke="#F4F3EC" stroke-width="0.5" stroke-miterlimit="10"/>
<path d="M145.262 37.5344L137 32.7566L125.714 34.5059L122.686 41.033L130.953 45.8108L142.239 44.0615L145.262 37.5344Z" stroke="#F4F3EC" stroke-width="0.5" stroke-miterlimit="10"/>
<path d="M184.368 43.5963L176.105 38.8136L164.815 40.5629L161.792 47.0948L170.054 51.8726L181.344 50.1233L184.368 43.5963Z" stroke="#F4F3EC" stroke-width="0.5" stroke-miterlimit="10"/>
<path d="M159.576 29.258L151.313 24.4753L140.023 26.2246L137 32.7566L145.262 37.5344L156.552 35.7851L159.576 29.258Z" stroke="#F4F3EC" stroke-width="0.5" stroke-miterlimit="10"/>
<path d="M84.1752 101.536L75.913 96.7579L64.6225 98.5072L61.5991 105.034L69.8662 109.817L81.1519 108.068L84.1752 101.536Z" stroke="#F4F3EC" stroke-width="0.5" stroke-miterlimit="10"/>
<path d="M59.3837 87.2023L51.1215 82.4197L39.8358 84.169L36.8076 90.7009L45.0747 95.4787L56.3603 93.7294L59.3837 87.2023Z" stroke="#F4F3EC" stroke-width="0.5" stroke-miterlimit="10"/>
<path d="M73.6977 78.9211L65.4354 74.1433L54.145 75.8926L51.1216 82.4197L59.3838 87.2023L70.6743 85.4531L73.6977 78.9211Z" stroke="#F4F3EC" stroke-width="0.5" stroke-miterlimit="10"/>
<path d="M88.0117 70.6448L79.7494 65.8669L68.4589 67.6162L65.4355 74.1433L73.6978 78.9211L84.9883 77.1718L88.0117 70.6448Z" stroke="#F4F3EC" stroke-width="0.5" stroke-miterlimit="10"/>
<path d="M102.325 62.3684L94.0629 57.5857L82.7724 59.335L79.749 65.8669L88.0113 70.6447L99.3018 68.8954L102.325 62.3684Z" stroke="#F4F3EC" stroke-width="0.5" stroke-miterlimit="10"/>
<path d="M116.639 54.092L108.372 49.3093L97.0864 51.0586L94.063 57.5857L102.325 62.3684L113.616 60.6191L116.639 54.092Z" stroke="#F4F3EC" stroke-width="0.5" stroke-miterlimit="10"/>
<path d="M130.953 45.8108L122.686 41.033L111.4 42.7822L108.372 49.3093L116.639 54.092L127.925 52.3427L130.953 45.8108Z" stroke="#F4F3EC" stroke-width="0.5" stroke-miterlimit="10"/>
<path style="mix-blend-mode:multiply" d="M93.3858 0L0 54.0096L78.0416 94.6598C86.6747 99.3809 96.8033 100.55 106.282 97.9209L154.226 84.605L155.972 81.6977C158.831 76.9342 160.701 71.6415 161.469 66.1369C162.237 60.6323 161.888 55.029 160.442 49.6628C158.997 44.2966 156.485 39.2779 153.057 34.9074C149.629 30.5369 145.355 26.9047 140.492 24.2282L93.3858 0Z" fill="url(#paint0_linear_909_54798)"/>
<path d="M169.396 53.3313V38.6344L162.14 53.2053L153.829 69.9082V84.3919C155.787 83.3669 157.354 81.7256 158.289 79.7207L168.448 57.7844C169.09 56.3932 169.408 54.8736 169.376 53.3409L169.396 53.3313Z" fill="#BCBCBB"/>
<path d="M61.2508 54.9545L53.54 49.5322V64.0256C53.54 64.2145 53.54 64.3938 53.5691 64.5828C53.6351 66.2783 54.1278 67.9296 55.0014 69.3833C55.8751 70.837 57.1012 72.0459 58.5661 72.8979L92.0795 92.2805C93.0869 92.8653 94.1887 93.2688 95.3351 93.4726L95.5721 93.5065V79.0955L61.2508 54.9545Z" fill="#BCBCBB"/>
<path d="M95.5723 88.6754V93.521C96.5948 93.681 97.636 93.681 98.6585 93.521L150.704 85.4579C151.802 85.2826 152.863 84.9256 153.843 84.4015V69.9082L95.5723 79.1149V88.6754Z" fill="#D6D6D4"/>
<path d="M164.365 30.2998L130.851 10.9172C128.862 9.76976 126.541 9.33725 124.272 9.69125L72.227 17.7447C70.5876 17.9993 69.0362 18.6553 67.7106 19.6544C66.3849 20.6535 65.3259 21.9649 64.6274 23.4723L54.4689 45.4085C53.4101 47.696 53.2439 50.2976 54.003 52.7016C54.7621 55.1056 56.3916 57.1382 58.571 58.3997L92.0844 77.7823C94.0732 78.9318 96.3944 79.366 98.6633 79.0131L150.709 70.95C152.348 70.6953 153.899 70.0394 155.225 69.0403C156.551 68.0411 157.61 66.7298 158.308 65.2224L168.467 43.291C169.527 41.0037 169.693 38.4017 168.934 35.9974C168.175 33.5931 166.545 31.5605 164.365 30.2998V30.2998Z" fill="white"/>
<path d="M143.67 46.8042L139.8 28.4828C139.563 27.3586 138.03 26.4767 136.09 26.3362L104.405 24.1072C103.188 23.9994 101.966 24.2432 100.884 24.8098L75.9033 39.2498C74.2393 40.2189 74.2393 41.7695 75.9033 42.7338L87.2422 49.29L101.435 57.4985L111.444 63.2842C112.376 63.7595 113.407 64.0073 114.452 64.0073C115.498 64.0073 116.529 63.7595 117.461 63.2842L142.466 48.8248C143.39 48.3112 143.84 47.5553 143.67 46.8042Z" fill="url(#paint1_linear_909_54798)"/>
<path d="M106.273 45.7429L102.282 37.1322L98.5039 50.2348L121.162 48.0495L106.273 45.7429Z" fill="#F4F3EC"/>
<path d="M129.429 32.3496H129.424L104.26 35.9887L108.091 44.6866L123.136 46.9059L129.429 32.3496Z" fill="#F4F3EC"/>
<g style="mix-blend-mode:multiply" opacity="0.3">
<path d="M75.9032 41.5272L100.908 27.0629C101.99 26.4963 103.213 26.2525 104.429 26.3603L136.114 28.5893C138.049 28.725 139.587 29.6117 139.825 30.7311L143.448 47.9719C143.674 47.6348 143.757 47.222 143.68 46.8235L139.81 28.5021C139.573 27.3779 138.04 26.496 136.1 26.3554L104.415 24.1264C103.198 24.0187 101.976 24.2625 100.893 24.8291L75.9032 39.2497C74.5633 40.025 74.3021 41.188 75.1293 42.1183C75.3544 41.8815 75.6157 41.682 75.9032 41.5272V41.5272Z" fill="#12262C"/>
</g>
</g>
<defs>
<linearGradient id="paint0_linear_909_54798" x1="61.5703" y1="23.5499" x2="117.161" y2="100.821" gradientUnits="userSpaceOnUse">
<stop stop-color="#12262C" stop-opacity="0"/>
<stop offset="0.66" stop-color="#0F1F23" stop-opacity="0.62"/>
<stop offset="1" stop-color="#0D1B1E"/>
</linearGradient>
<linearGradient id="paint1_linear_909_54798" x1="74.6553" y1="44.0567" x2="143.714" y2="44.0567" gradientUnits="userSpaceOnUse">
<stop stop-color="#B6EA5C"/>
<stop offset="1" stop-color="#2FE4AB"/>
</linearGradient>
<clipPath id="clip0_909_54798">
<rect width="195" height="116" fill="white"/>
</clipPath>
</defs>
</svg>
