<?xml version="1.0" encoding="UTF-8"?>
<svg width="297px" height="48px" viewBox="0 0 297 48" version="1.1" xmlns="http://www.w3.org/2000/svg" xmlns:xlink="http://www.w3.org/1999/xlink">
    <title>Combined Shape</title>
    <g id="Symbols" stroke="none" stroke-width="1" fill="none" fill-rule="evenodd">
        <g id="basic/logo/white" fill="#FFFFFF">
            <path d="M24,7.10542736e-15 C37.248,7.10542736e-15 48,10.752 48,24 C48,37.248 37.248,48 24,48 C10.752,48 0,37.248 0,24 C0,10.752 10.752,7.10542736e-15 24,7.10542736e-15 Z M260.51715,12.8058076 C266.176781,12.8058076 269.659631,16.0290381 269.659631,24.7404719 L269.659631,24.7404719 L269.659631,27.092559 C269.659631,36.5009074 265.131926,39.4627949 258.601583,39.3756806 C257.034301,39.3756806 254.85752,39.2014519 253.551451,38.8529946 L253.551451,38.8529946 L253.551451,47.9128857 L247.630607,47.9128857 L247.630607,13.415608 L253.116095,13.415608 L253.116095,15.0707804 C255.379947,13.5027223 258.079156,12.8058076 260.51715,12.8058076 Z M35.424,29.664 L24,36.288 L12.576,29.664 L10.08,31.104 L10.08,34.656 L24,42.72 L24,39.168 L37.92,31.104 L35.424,29.664 Z M285.593668,12.892922 C294.039578,12.892922 297,18.3811252 297,26.0471869 L297,26.0471869 L297,28.0508167 L280.108179,28.0508167 L280.108672,28.6788948 C280.127877,32.3127122 280.737194,34.584392 286.812665,34.584392 C289.511873,34.584392 292.646438,34.323049 295.955145,33.9745917 L295.955145,33.9745917 L295.955145,38.4174229 C294.039578,38.8529946 290.730871,39.4627949 286.551451,39.4627949 C277.408971,39.4627949 274.187335,35.9782214 274.187335,27.092559 L274.187335,27.092559 L274.187335,25.5245009 C274.187335,16.9872958 278.01847,12.892922 285.593668,12.892922 Z M231.174142,12.892922 C239.271768,12.892922 241.361478,15.6805808 241.361478,22.1270417 L241.361478,22.1270417 L241.361478,38.7658802 L235.963061,38.7658802 L235.963061,37.1107078 C234.395778,38.2431942 231.522427,39.4627949 227.952507,39.4627949 C223.25066,39.4627949 220.551451,37.1107078 220.551451,32.2323049 L220.551451,32.2323049 L220.551451,31.2740472 C220.551451,24.4791289 225.427441,23.6079855 232.480211,23.6079855 L232.480211,23.6079855 L235.353562,23.6079855 L235.353562,22.0399274 C235.353562,18.4682396 234.656992,17.7713249 230.129288,17.7713249 C227.604222,17.7713249 224.992084,17.9455535 222.205805,18.2940109 L222.205805,18.2940109 L222.205805,14.2867514 C223.337731,13.8511797 227.081794,12.892922 231.174142,12.892922 Z M111.015831,12.892922 C118.416887,12.892922 122.422164,16.6388385 122.422164,24.5662432 L122.422164,24.5662432 L122.422164,27.7023593 C122.422164,35.7168784 118.416887,39.4627949 111.015831,39.4627949 C103.614776,39.4627949 99.6094987,35.7168784 99.6094987,27.7023593 L99.6094987,27.7023593 L99.6094987,24.5662432 C99.6094987,16.6388385 103.614776,12.892922 111.015831,12.892922 Z M66.1741425,3.92014519 L66.1741425,14.1125227 C68.0026385,13.2413793 70.1794195,12.892922 72.0949868,12.892922 C79.060686,12.892922 82.2823219,16.4646098 82.2823219,24.1306715 L82.2823219,24.1306715 L82.2823219,27.615245 C82.2823219,36.0653358 78.1899736,39.4627949 70.353562,39.4627949 C67.0448549,39.4627949 64.7810026,39.2885662 60.2532982,38.7658802 L60.2532982,38.7658802 L60.2532982,3.92014519 L66.1741425,3.92014519 Z M208.883905,12.8058076 C212.802111,12.8058076 215.588391,13.415608 216.720317,13.7640653 L216.720317,13.7640653 L216.720317,18.2940109 C213.498681,18.0326679 211.3219,17.8584392 209.92876,17.8584392 C206.271768,17.8584392 204.182058,18.9909256 204.182058,24.4791289 L204.182058,24.4791289 L204.182058,27.7023593 C204.182058,33.1905626 206.271768,34.4101633 209.92876,34.4101633 C211.3219,34.4101633 213.498681,34.2359347 216.720317,33.9745917 L216.720317,33.9745917 L216.720317,38.5045372 C215.501319,38.8529946 212.71504,39.4627949 208.883905,39.3756806 C201.656992,39.3756806 198.261214,35.2813067 198.261214,27.7023593 L198.261214,27.7023593 L198.261214,24.4791289 C198.261214,16.7259528 201.656992,12.8058076 208.883905,12.8058076 Z M137.659631,12.8058076 C141.577836,12.8058076 144.364116,13.415608 145.496042,13.7640653 L145.496042,13.7640653 L145.496042,18.2940109 C142.274406,18.0326679 140.097625,17.8584392 138.704485,17.8584392 C135.047493,17.8584392 132.957784,18.9909256 132.957784,24.4791289 L132.957784,24.4791289 L132.957784,27.7023593 C132.957784,33.1905626 135.047493,34.4101633 138.704485,34.4101633 C140.097625,34.4101633 142.274406,34.2359347 145.496042,33.9745917 L145.496042,33.9745917 L145.496042,38.5045372 C144.277045,38.8529946 141.490765,39.4627949 137.659631,39.3756806 C130.432718,39.3756806 127.036939,35.2813067 127.036939,27.7023593 L127.036939,27.7023593 L127.036939,24.4791289 C127.036939,16.7259528 130.432718,12.8058076 137.659631,12.8058076 Z M185.113456,12.892922 C187.986807,12.892922 191.817942,13.415608 193.036939,13.8511797 L193.036939,13.8511797 L193.036939,17.9455535 C190.163588,17.6842105 187.377309,17.5099819 185.200528,17.5099819 C182.153034,17.5099819 180.846966,17.7713249 180.846966,19.600726 C180.846966,21.2558984 181.717678,21.6914701 184.852243,22.9110708 L184.852243,22.9110708 L186.854881,23.6950998 C192.340369,25.8729583 194.168865,27.615245 194.255937,31.7967332 C194.255937,36.5880218 191.034301,39.4627949 183.98153,39.2885662 C180.498681,39.2885662 176.493404,38.6787659 175.361478,38.3303085 L175.361478,38.3303085 L175.361478,34.1488203 C176.667546,34.2359347 180.498681,34.7586207 183.720317,34.7586207 C187.46438,34.7586207 188.422164,33.9745917 188.422164,32.1451906 C188.422164,30.4029038 187.638522,29.9673321 183.894459,28.4863884 L183.894459,28.4863884 L181.978892,27.7023593 C177.189974,25.8729583 175.013193,23.6950998 175.013193,19.7749546 C175.013193,14.722323 178.408971,12.892922 185.113456,12.892922 Z M156.467018,3.83303085 L156.467018,24.7404719 L165.435356,13.5027223 L172.139842,13.5027223 L162.387863,25.6116152 L172.401055,38.7658802 L172.401055,38.8529946 L165.435356,38.8529946 L156.467018,26.831216 L156.467018,38.6787659 L150.546174,38.6787659 L150.546174,3.83303085 L156.467018,3.83303085 Z M93.9498681,3.92014519 L93.9498681,38.7658802 L88.0290237,38.7658802 L88.0290237,3.92014519 L93.9498681,3.92014519 Z M235.614776,27.353902 L232.480211,27.353902 C228.126649,27.353902 226.298153,27.876588 226.298153,31.1869328 L226.298153,31.1869328 L226.298153,32.2323049 C226.298153,34.584392 227.778364,35.1941924 229.868074,35.1941924 C232.218997,35.1941924 234.744063,34.1488203 235.614776,33.6261343 L235.614776,33.6261343 L235.614776,27.353902 Z M258.949868,18.0326679 C257.295515,18.0326679 255.902375,18.2940109 253.46438,19.3393829 L253.46438,19.3393829 L253.46438,33.9745917 C255.205805,34.323049 256.773087,34.4972777 258.166227,34.4972777 C261.736148,34.4972777 263.825858,33.277677 263.825858,27.092559 L263.825858,27.092559 L263.825858,24.8275862 C263.825858,19.600726 262.258575,18.0326679 258.949868,18.0326679 Z M71.3113456,17.8584392 C70.1794195,17.8584392 67.6543536,18.0326679 66.0870712,18.8166969 L66.0870712,18.8166969 L66.0870712,34.2359347 C67.0448549,34.2359347 68.6121372,34.4101633 70.4406332,34.4101633 C74.5329815,34.4101633 76.3614776,32.9292196 76.3614776,27.615245 L76.3614776,27.615245 L76.3614776,24.0435572 C76.3614776,19.4264973 75.055409,17.8584392 71.3113456,17.8584392 Z M111.102902,17.9455535 C107.358839,17.9455535 105.617414,19.6878403 105.617414,24.5662432 L105.617414,24.5662432 L105.617414,27.7023593 C105.617414,32.5807623 107.271768,34.4101633 111.102902,34.4101633 C114.934037,34.4101633 116.588391,32.5807623 116.588391,27.7023593 L116.588391,27.7023593 L116.588391,24.5662432 C116.588391,19.7749546 114.934037,17.9455535 111.102902,17.9455535 Z M35.424,20.832 L24,27.456 L12.576,20.832 L10.176,22.272 L10.08,25.728 L24,33.792 L24,30.24 L37.92,22.272 L35.424,20.832 Z M24,5.28 L10.176,13.344 L10.08,16.896 L24,24.96 L24,21.408 L37.92,13.344 L24,5.28 Z M285.593668,17.5970962 C280.804749,17.5970962 280.108179,20.8203267 280.108179,23.6950998 L280.108179,23.6950998 L280.108179,24.1306715 L291.079156,24.1306715 L291.079156,23.6950998 C291.079156,20.8203267 290.469657,17.5970962 285.593668,17.5970962 Z" id="Combined-Shape"></path>
        </g>
    </g>
</svg>