<svg width="196" height="116" viewBox="0 0 196 116" fill="none" xmlns="http://www.w3.org/2000/svg">
<g clip-path="url(#clip0_909_54952)">
<path d="M93.4096 81.9544L85.1332 77.1718L73.8235 78.921L70.7949 85.453L79.0713 90.2308L90.381 88.4815L93.4096 81.9544Z" stroke="#F4F3EC" stroke-width="0.5" stroke-miterlimit="10"/>
<path d="M107.748 73.6732L99.4716 68.8954L88.1618 70.6447L85.1333 77.1718L93.4097 81.9544L104.719 80.2051L107.748 73.6732Z" stroke="#F4F3EC" stroke-width="0.5" stroke-miterlimit="10"/>
<path d="M122.086 65.3968L113.81 60.619L102.5 62.3683L99.4717 68.8954L107.748 73.6732L119.053 71.9239L122.086 65.3968Z" stroke="#F4F3EC" stroke-width="0.5" stroke-miterlimit="10"/>
<path d="M136.424 57.1205L128.143 52.3427L116.838 54.0919L113.81 60.619L122.086 65.3968L133.391 63.6475L136.424 57.1205Z" stroke="#F4F3EC" stroke-width="0.5" stroke-miterlimit="10"/>
<path d="M132.582 88.0116L124.301 83.2338L112.996 84.983L109.967 91.5101L118.244 96.2879L129.553 94.5387L132.582 88.0116Z" stroke="#F4F3EC" stroke-width="0.5" stroke-miterlimit="10"/>
<path d="M118.244 96.2879L109.967 91.5101L98.6574 93.2594L95.6289 99.7865L103.905 104.569L115.215 102.82L118.244 96.2879Z" stroke="#F4F3EC" stroke-width="0.5" stroke-miterlimit="10"/>
<path d="M146.92 79.7352L138.639 74.9574L127.334 76.7067L124.301 83.2338L132.582 88.0116L143.887 86.2623L146.92 79.7352Z" stroke="#F4F3EC" stroke-width="0.5" stroke-miterlimit="10"/>
<path d="M161.258 71.4588L152.977 66.6761L141.672 68.4254L138.639 74.9574L146.92 79.7352L158.225 77.9859L161.258 71.4588Z" stroke="#F4F3EC" stroke-width="0.5" stroke-miterlimit="10"/>
<path d="M157.416 102.35L149.135 97.572L137.83 99.3213L134.801 105.848L143.078 110.626L154.383 108.877L157.416 102.35Z" stroke="#F4F3EC" stroke-width="0.5" stroke-miterlimit="10"/>
<path d="M171.749 94.0734L163.473 89.2908L152.168 91.0401L149.135 97.572L157.416 102.35L168.721 100.601L171.749 94.0734Z" stroke="#F4F3EC" stroke-width="0.5" stroke-miterlimit="10"/>
<path d="M186.087 85.7922L177.811 81.0144L166.506 82.7637L163.473 89.2908L171.749 94.0734L183.059 92.3241L186.087 85.7922Z" stroke="#F4F3EC" stroke-width="0.5" stroke-miterlimit="10"/>
<path d="M58.08 45.0015L49.8036 40.2189L38.4939 41.9682L35.4653 48.5001L43.7417 53.2779L55.0514 51.5286L58.08 45.0015Z" stroke="#F4F3EC" stroke-width="0.5" stroke-miterlimit="10"/>
<path d="M72.4184 36.7203L64.142 31.9425L52.8322 33.6918L49.8037 40.2189L58.0801 45.0015L69.3898 43.2523L72.4184 36.7203Z" stroke="#F4F3EC" stroke-width="0.5" stroke-miterlimit="10"/>
<path d="M86.7567 28.4439L78.4804 23.6661L67.1706 25.4154L64.1421 31.9425L72.4185 36.7203L83.7282 34.971L86.7567 28.4439Z" stroke="#F4F3EC" stroke-width="0.5" stroke-miterlimit="10"/>
<path d="M175.592 63.1776L167.315 58.3998L156.006 60.1491L152.977 66.6762L161.258 71.4588L172.563 69.7095L175.592 63.1776Z" stroke="#F4F3EC" stroke-width="0.5" stroke-miterlimit="10"/>
<path d="M68.5756 67.6162L60.2992 62.8384L48.9895 64.5828L45.9609 71.1148L54.2373 75.8926L65.5471 74.1433L68.5756 67.6162Z" stroke="#F4F3EC" stroke-width="0.5" stroke-miterlimit="10"/>
<path d="M125.929 34.5059L117.647 29.7233L106.342 31.4725L103.314 38.0045L111.59 42.7823L122.895 41.033L125.929 34.5059Z" stroke="#F4F3EC" stroke-width="0.5" stroke-miterlimit="10"/>
<path d="M82.914 59.3349L74.6376 54.5571L63.3278 56.3064L60.2993 62.8383L68.5757 67.6162L79.8854 65.8669L82.914 59.3349Z" stroke="#F4F3EC" stroke-width="0.5" stroke-miterlimit="10"/>
<path d="M97.2523 51.0586L88.976 46.2808L77.6662 48.03L74.6377 54.5571L82.9141 59.3349L94.2238 57.5857L97.2523 51.0586Z" stroke="#F4F3EC" stroke-width="0.5" stroke-miterlimit="10"/>
<path d="M111.59 42.7822L103.314 38.0044L92.0041 39.7537L88.9756 46.2808L97.252 51.0586L108.557 49.3093L111.59 42.7822Z" stroke="#F4F3EC" stroke-width="0.5" stroke-miterlimit="10"/>
<path d="M150.763 48.8442L142.482 44.0615L131.177 45.8108L128.144 52.3427L136.425 57.1205L147.73 55.3713L150.763 48.8442Z" stroke="#F4F3EC" stroke-width="0.5" stroke-miterlimit="10"/>
<path d="M165.096 40.563L156.82 35.7852L145.51 37.5344L142.481 44.0615L150.763 48.8442L162.068 47.0949L165.096 40.563Z" stroke="#F4F3EC" stroke-width="0.5" stroke-miterlimit="10"/>
<path d="M140.262 26.2247L131.986 21.4469L120.681 23.1962L117.647 29.7233L125.929 34.5059L137.234 32.7566L140.262 26.2247Z" stroke="#F4F3EC" stroke-width="0.5" stroke-miterlimit="10"/>
<path d="M189.93 54.9012L181.654 50.1234L170.344 51.8727L167.315 58.3998L175.592 63.1776L186.902 61.4283L189.93 54.9012Z" stroke="#F4F3EC" stroke-width="0.5" stroke-miterlimit="10"/>
<path d="M54.2372 75.8926L45.9608 71.1147L34.6559 72.864L31.6226 79.3911L39.9038 84.1689L51.2087 82.4196L54.2372 75.8926Z" stroke="#F4F3EC" stroke-width="0.5" stroke-miterlimit="10"/>
<path d="M103.905 104.569L95.6288 99.7865L84.3191 101.536L81.2905 108.068L89.5669 112.846L100.877 111.096L103.905 104.569Z" stroke="#F4F3EC" stroke-width="0.5" stroke-miterlimit="10"/>
<path d="M79.0712 90.2308L70.7948 85.453L59.4851 87.2023L56.4565 93.7294L64.7329 98.5072L76.0427 96.7579L79.0712 90.2308Z" stroke="#F4F3EC" stroke-width="0.5" stroke-miterlimit="10"/>
<path d="M112.996 84.983L104.719 80.2052L93.4094 81.9545L90.3809 88.4816L98.6572 93.2594L109.967 91.5101L112.996 84.983Z" stroke="#F4F3EC" stroke-width="0.5" stroke-miterlimit="10"/>
<path d="M127.334 76.7066L119.053 71.924L107.748 73.6732L104.719 80.2052L112.996 84.983L124.3 83.2337L127.334 76.7066Z" stroke="#F4F3EC" stroke-width="0.5" stroke-miterlimit="10"/>
<path d="M141.672 68.4254L133.391 63.6476L122.086 65.3969L119.053 71.9239L127.334 76.7066L138.639 74.9573L141.672 68.4254Z" stroke="#F4F3EC" stroke-width="0.5" stroke-miterlimit="10"/>
<path d="M156.006 60.149L147.729 55.3712L136.424 57.1205L133.391 63.6476L141.672 68.4254L152.977 66.6761L156.006 60.149Z" stroke="#F4F3EC" stroke-width="0.5" stroke-miterlimit="10"/>
<path d="M137.83 99.3212L129.553 94.5386L118.243 96.2879L115.215 102.82L123.491 107.598L134.801 105.848L137.83 99.3212Z" stroke="#F4F3EC" stroke-width="0.5" stroke-miterlimit="10"/>
<path d="M152.168 91.04L143.887 86.2622L132.582 88.0115L129.553 94.5386L137.83 99.3212L149.134 97.572L152.168 91.04Z" stroke="#F4F3EC" stroke-width="0.5" stroke-miterlimit="10"/>
<path d="M166.506 82.7636L158.225 77.9858L146.92 79.7351L143.887 86.2622L152.168 91.04L163.473 89.2907L166.506 82.7636Z" stroke="#F4F3EC" stroke-width="0.5" stroke-miterlimit="10"/>
<path d="M180.84 74.4873L172.563 69.7095L161.258 71.4588L158.225 77.9858L166.506 82.7637L177.811 81.0144L180.84 74.4873Z" stroke="#F4F3EC" stroke-width="0.5" stroke-miterlimit="10"/>
<path d="M63.328 56.3065L55.0517 51.5287L43.7419 53.278L40.7134 59.8051L48.9897 64.5829L60.2995 62.8384L63.328 56.3065Z" stroke="#F4F3EC" stroke-width="0.5" stroke-miterlimit="10"/>
<path d="M77.6659 48.0301L69.3895 43.2523L58.0798 45.0016L55.0513 51.5287L63.3276 56.3065L74.6374 54.5572L77.6659 48.0301Z" stroke="#F4F3EC" stroke-width="0.5" stroke-miterlimit="10"/>
<path d="M92.0043 39.7537L83.7279 34.9711L72.4182 36.7203L69.3896 43.2523L77.666 48.0301L88.9758 46.2808L92.0043 39.7537Z" stroke="#F4F3EC" stroke-width="0.5" stroke-miterlimit="10"/>
<path d="M106.343 31.4725L98.0615 26.6947L86.7566 28.444L83.728 34.9711L92.0044 39.7537L103.314 38.0044L106.343 31.4725Z" stroke="#F4F3EC" stroke-width="0.5" stroke-miterlimit="10"/>
<path d="M170.344 51.8727L162.068 47.0948L150.763 48.8441L147.729 55.3712L156.006 60.149L167.316 58.3997L170.344 51.8727Z" stroke="#F4F3EC" stroke-width="0.5" stroke-miterlimit="10"/>
<path d="M120.681 23.1961L112.4 18.4183L101.095 20.1676L98.0615 26.6947L106.343 31.4725L117.648 29.7232L120.681 23.1961Z" stroke="#F4F3EC" stroke-width="0.5" stroke-miterlimit="10"/>
<path d="M195.178 66.211L186.902 61.4283L175.592 63.1776L172.563 69.7096L180.84 74.4874L192.15 72.7381L195.178 66.211Z" stroke="#F4F3EC" stroke-width="0.5" stroke-miterlimit="10"/>
<path d="M48.9896 64.5829L40.7133 59.8051L29.4084 61.5543L26.375 68.0814L34.6562 72.8641L45.9611 71.1148L48.9896 64.5829Z" stroke="#F4F3EC" stroke-width="0.5" stroke-miterlimit="10"/>
<path d="M123.492 107.598L115.215 102.82L103.905 104.569L100.877 111.096L109.153 115.874L120.463 114.125L123.492 107.598Z" stroke="#F4F3EC" stroke-width="0.5" stroke-miterlimit="10"/>
<path d="M98.6576 93.2594L90.3813 88.4816L79.0715 90.2308L76.043 96.7579L84.3193 101.536L95.6291 99.7865L98.6576 93.2594Z" stroke="#F4F3EC" stroke-width="0.5" stroke-miterlimit="10"/>
<path d="M145.51 37.5344L137.234 32.7566L125.929 34.5059L122.896 41.033L131.177 45.8108L142.482 44.0615L145.51 37.5344Z" stroke="#F4F3EC" stroke-width="0.5" stroke-miterlimit="10"/>
<path d="M184.682 43.5963L176.406 38.8136L165.096 40.5629L162.067 47.0948L170.344 51.8726L181.654 50.1233L184.682 43.5963Z" stroke="#F4F3EC" stroke-width="0.5" stroke-miterlimit="10"/>
<path d="M159.848 29.258L151.572 24.4753L140.262 26.2246L137.233 32.7566L145.51 37.5344L156.82 35.7851L159.848 29.258Z" stroke="#F4F3EC" stroke-width="0.5" stroke-miterlimit="10"/>
<path d="M84.3192 101.536L76.0429 96.7579L64.7331 98.5072L61.7046 105.034L69.9858 109.817L81.2907 108.068L84.3192 101.536Z" stroke="#F4F3EC" stroke-width="0.5" stroke-miterlimit="10"/>
<path d="M59.4852 87.2023L51.2089 82.4197L39.904 84.169L36.8706 90.7009L45.1518 95.4787L56.4567 93.7294L59.4852 87.2023Z" stroke="#F4F3EC" stroke-width="0.5" stroke-miterlimit="10"/>
<path d="M73.8236 78.9211L65.5473 74.1433L54.2375 75.8926L51.209 82.4197L59.4854 87.2023L70.7951 85.4531L73.8236 78.9211Z" stroke="#F4F3EC" stroke-width="0.5" stroke-miterlimit="10"/>
<path d="M88.1615 70.6448L79.8852 65.8669L68.5754 67.6162L65.5469 74.1433L73.8232 78.9211L85.133 77.1718L88.1615 70.6448Z" stroke="#F4F3EC" stroke-width="0.5" stroke-miterlimit="10"/>
<path d="M102.5 62.3684L94.2235 57.5857L82.9138 59.335L79.8853 65.8669L88.1616 70.6447L99.4714 68.8954L102.5 62.3684Z" stroke="#F4F3EC" stroke-width="0.5" stroke-miterlimit="10"/>
<path d="M116.838 54.092L108.557 49.3093L97.2522 51.0586L94.2236 57.5857L102.5 62.3684L113.81 60.6191L116.838 54.092Z" stroke="#F4F3EC" stroke-width="0.5" stroke-miterlimit="10"/>
<path d="M131.177 45.8108L122.895 41.033L111.59 42.7822L108.557 49.3093L116.838 54.092L128.143 52.3427L131.177 45.8108Z" stroke="#F4F3EC" stroke-width="0.5" stroke-miterlimit="10"/>
<path style="mix-blend-mode:multiply" d="M93.5453 0L0 54.0096L78.1749 94.6598C86.8227 99.3809 96.9686 100.55 106.464 97.9209L154.489 84.605L156.238 81.6977C159.102 76.9342 160.975 71.6415 161.744 66.1369C162.514 60.6323 162.164 55.029 160.716 49.6628C159.268 44.2966 156.752 39.2779 153.318 34.9074C149.884 30.5369 145.603 26.9047 140.732 24.2282L93.5453 0Z" fill="url(#paint0_linear_909_54952)"/>
<path d="M169.685 53.3313V38.6344L162.417 53.2053L154.092 69.9082V84.3919C156.053 83.3669 157.623 81.7256 158.559 79.7207L168.735 57.7844C169.379 56.3932 169.697 54.8736 169.666 53.3409L169.685 53.3313Z" fill="#BCBCBB"/>
<path d="M61.3558 54.9545L53.6318 49.5322V64.0256C53.6318 64.2145 53.6318 64.3938 53.6609 64.5828C53.7271 66.2783 54.2206 67.9296 55.0957 69.3833C55.9708 70.837 57.1991 72.0459 58.6665 72.8979L92.2371 92.2805C93.2462 92.8653 94.3499 93.2688 95.4982 93.4726L95.7357 93.5065V79.0955L61.3558 54.9545Z" fill="#BCBCBB"/>
<path d="M95.7354 88.6754V93.521C96.7597 93.681 97.8026 93.681 98.8269 93.521L150.961 85.4579C152.061 85.2826 153.124 84.9256 154.106 84.4015V69.9082L95.7354 79.1149V88.6754Z" fill="#D6D6D4"/>
<path d="M164.645 30.2998L131.075 10.9172C129.082 9.76976 126.757 9.33725 124.485 9.69125L72.3502 17.7447C70.708 17.9993 69.154 18.6553 67.8261 19.6544C66.4981 20.6535 65.4373 21.9649 64.7377 23.4723L54.5618 45.4085C53.5012 47.696 53.3348 50.2976 54.0952 52.7016C54.8555 55.1056 56.4878 57.1382 58.6709 58.3997L92.2416 77.7823C94.2337 78.9318 96.5589 79.366 98.8317 79.0131L150.966 70.95C152.608 70.6953 154.162 70.0394 155.49 69.0403C156.818 68.0411 157.879 66.7298 158.579 65.2224L168.754 43.291C169.816 41.0037 169.983 38.4017 169.223 35.9974C168.462 33.5931 166.829 31.5605 164.645 30.2998V30.2998Z" fill="white"/>
<path d="M104.327 45.2826L100.019 35.9983L95.939 50.1282L120.409 47.7732L104.327 45.2826Z" fill="url(#paint1_linear_909_54952)"/>
<path d="M129.34 30.8425L102.151 34.7675L106.294 44.1487L122.547 46.5376L129.34 30.8425Z" fill="url(#paint2_linear_909_54952)"/>
<path d="M113.175 63.0516C109.7 63.0555 106.232 62.7522 102.81 62.1455L103.493 58.3271C115.074 60.4059 127.557 58.6421 136.061 53.7286C141.808 50.4093 144.972 46.1161 144.972 41.6145C144.972 37.1129 141.808 32.839 136.061 29.5004L133.934 28.2696L135.872 24.9164L137.999 26.1666C144.996 30.203 148.849 35.6931 148.849 41.6145C148.849 47.5359 144.996 53.026 137.999 57.0673C131.278 60.968 122.328 63.0516 113.175 63.0516Z" fill="url(#paint3_linear_909_54952)"/>
<path d="M130.639 24.17L132.625 30.4064L141.44 25.3185L130.639 24.17Z" fill="url(#paint4_linear_909_54952)"/>
<path d="M90.4537 58.0509L88.3216 56.8201C81.3245 52.7788 77.4722 47.2935 77.4722 41.3673C77.4722 35.4411 81.3487 29.9558 88.3216 25.9145C97.5865 20.5843 111.072 18.646 123.516 20.8557L122.832 24.674C111.251 22.6001 98.7688 24.3639 90.2598 29.2725C84.5129 32.5918 81.3487 36.8851 81.3487 41.3867C81.3487 45.8883 84.5129 50.1621 90.2598 53.5008L92.3919 54.7316L90.4537 58.0509Z" fill="url(#paint5_linear_909_54952)"/>
<path d="M95.6872 58.8311L93.7005 52.5947L84.8862 57.6827L95.6872 58.8311Z" fill="url(#paint6_linear_909_54952)"/>
<g style="mix-blend-mode:multiply" opacity="0.3">
<path d="M104.327 46.6926L114.798 48.3111L120.409 47.7732L104.327 45.2826L100.019 35.9983L95.939 50.1282L96.3557 50.0894L100.019 37.4084L104.327 46.6926Z" fill="#12262C"/>
</g>
<g style="mix-blend-mode:multiply" opacity="0.3">
<path d="M102.738 36.0904L128.691 32.3447L129.34 30.8425L102.151 34.7675L102.738 36.0904Z" fill="#12262C"/>
</g>
<g style="mix-blend-mode:multiply" opacity="0.3">
<path d="M136.061 55.1386C141.808 51.8194 144.972 47.5261 144.972 43.0245C144.972 42.7871 144.972 42.54 144.943 42.3219C144.628 46.5473 141.507 50.5595 136.061 53.7092C127.557 58.6227 115.074 60.3865 103.493 58.3077L102.81 62.1261L103.052 62.1648L103.493 59.7178C115.074 61.8111 127.557 60.0473 136.061 55.1386Z" fill="#12262C"/>
</g>
<g style="mix-blend-mode:multiply" opacity="0.3">
<path d="M130.639 24.17L131.104 25.6286L135.228 26.0695L138.358 26.399L139.375 26.5056L141.44 25.3185L130.639 24.17Z" fill="#12262C"/>
</g>
<g style="mix-blend-mode:multiply" opacity="0.3">
<path d="M88.3216 27.3246C97.5283 21.9944 110.897 20.0561 123.268 22.227L123.516 20.8363C111.072 18.6073 97.5865 20.5504 88.3216 25.8951C81.3245 29.9364 77.4722 35.4217 77.4722 41.3479C77.4722 41.5853 77.4722 41.8325 77.5012 42.0505C77.7968 36.4199 81.6055 31.206 88.3216 27.3246Z" fill="#12262C"/>
</g>
<g style="mix-blend-mode:multiply" opacity="0.3">
<path d="M90.0178 54.7219L91.2292 54.0193L90.2601 53.4621C84.7991 50.3172 81.693 46.2954 81.4071 42.0699C81.4071 42.3074 81.3732 42.5545 81.3732 42.7774C81.349 47.1918 84.4308 51.4269 90.0178 54.7219Z" fill="#12262C"/>
</g>
<g style="mix-blend-mode:multiply" opacity="0.3">
<path d="M93.7003 52.5947L91.229 54.0193L92.392 54.6929L92.3338 54.7947L93.7003 54.0048L95.2218 58.7826L95.687 58.8311L93.7003 52.5947Z" fill="#12262C"/>
</g>
<g style="mix-blend-mode:multiply" opacity="0.3">
<path d="M90.2599 54.8721L91.229 55.4294L92.3338 54.7946L92.3919 54.6928L91.229 54.0193L90.0176 54.7219L90.2599 54.8721Z" fill="#12262C"/>
</g>
<g style="mix-blend-mode:multiply" opacity="0.3">
<path d="M140.093 27.5039C139.72 27.2519 139.337 27.0194 138.944 26.7577V28.1678C145.074 31.9765 148.544 36.9578 148.825 42.3413C148.825 42.1039 148.849 41.8567 148.849 41.6338C148.849 36.3424 145.757 31.3804 140.093 27.5039Z" fill="#12262C"/>
</g>
</g>
<defs>
<linearGradient id="paint0_linear_909_54952" x1="61.6754" y1="23.5499" x2="117.236" y2="100.911" gradientUnits="userSpaceOnUse">
<stop stop-color="#12262C" stop-opacity="0"/>
<stop offset="0.66" stop-color="#0F1F23" stop-opacity="0.62"/>
<stop offset="1" stop-color="#0D1B1E"/>
</linearGradient>
<linearGradient id="paint1_linear_909_54952" x1="47.8459" y1="43.0632" x2="175.03" y2="43.0632" gradientUnits="userSpaceOnUse">
<stop stop-color="#B6EA5C"/>
<stop offset="1" stop-color="#2FE4AB"/>
</linearGradient>
<linearGradient id="paint2_linear_909_54952" x1="47.8462" y1="38.6925" x2="175.03" y2="38.6925" gradientUnits="userSpaceOnUse">
<stop stop-color="#B6EA5C"/>
<stop offset="1" stop-color="#2FE4AB"/>
</linearGradient>
<linearGradient id="paint3_linear_909_54952" x1="47.8459" y1="44.0034" x2="175.03" y2="44.0034" gradientUnits="userSpaceOnUse">
<stop stop-color="#B6EA5C"/>
<stop offset="1" stop-color="#2FE4AB"/>
</linearGradient>
<linearGradient id="paint4_linear_909_54952" x1="47.8458" y1="27.2906" x2="175.03" y2="27.2906" gradientUnits="userSpaceOnUse">
<stop stop-color="#B6EA5C"/>
<stop offset="1" stop-color="#2FE4AB"/>
</linearGradient>
<linearGradient id="paint5_linear_909_54952" x1="47.8459" y1="38.9978" x2="175.03" y2="38.9978" gradientUnits="userSpaceOnUse">
<stop stop-color="#B6EA5C"/>
<stop offset="1" stop-color="#2FE4AB"/>
</linearGradient>
<linearGradient id="paint6_linear_909_54952" x1="47.846" y1="55.7153" x2="175.03" y2="55.7153" gradientUnits="userSpaceOnUse">
<stop stop-color="#B6EA5C"/>
<stop offset="1" stop-color="#2FE4AB"/>
</linearGradient>
<clipPath id="clip0_909_54952">
<rect width="195.333" height="116" fill="white"/>
</clipPath>
</defs>
</svg>
