<?xml version="1.0" encoding="utf-8"?>
<!-- Generator: Adobe Illustrator 24.0.1, SVG Export Plug-In . SVG Version: 6.00 Build 0)  -->
<svg version="1.1" id="Layer_1" xmlns="http://www.w3.org/2000/svg" xmlns:xlink="http://www.w3.org/1999/xlink" x="0px" y="0px"
	 viewBox="0 0 1096 541" style="enable-background:new 0 0 1096 541;" xml:space="preserve">
<style type="text/css">
	.st0{fill:#FFFFFF;}
</style>
<g>
	<path d="M333.77,394.31c-48.96-20.36-57.68-33.68-57.49-83.4c0.06-15.3,0.89-30.65,0.09-45.9c-1.43-27.03-19.86-48.9-46.79-57.05
		c-23.04-6.97-51.61,1.82-66.61,20.49c-17.56,21.84-20.52,50.69-7.54,73.5c19.64,34.53,63.88,43.57,96.07,19.81
		c3.25-2.4,7.45-3.53,11.21-5.24c1.52,4.29,3.64,8.46,4.44,12.88c1.93,10.68,2.31,21.72,5.09,32.15c2.62,9.83,0.27,16.2-8.8,19.8
		c-47.53,18.87-91.98,14.66-131.54-19.36c-39.37-33.86-53.08-88.14-34.7-133.86c20.41-50.75,68.06-82.41,120.18-79.85
		c51.39,2.53,99.58,38.79,110.87,89.12c6.36,28.32,3.82,58.55,6.7,87.77c1.3,13.2,5.31,26.3,9.49,38.99
		c2.89,8.77,9.03,10.07,16.06,2.76c14.75-15.35,30.32-29.94,44.5-45.79c25.06-28.04,25.7-74.84-0.49-102.06
		c-44.69-46.46-90.23-92.17-136.85-136.69c-29.61-28.28-78.24-26.62-107.34,1.9c-43.18,42.33-85.93,85.1-128.3,128.23
		c-33.75,34.35-34.13,81.19-0.48,115.53c42.44,43.31,85.58,85.94,129,128.28c26.35,25.69,68.98,30.92,97.88,8.62
		C284.92,444.48,307.65,419.13,333.77,394.31z M703.01,369.2c-1.26-2.34-1.98-5.15-3.78-6.78c-13.99-12.7-18.76-28.89-18.72-47.15
		c0.04-16.39,0.13-32.79-0.43-49.17c-2.76-81.45-85.67-129.98-157.49-92.3c-51.32,26.93-70.43,89.38-44.09,144.08
		c23.25,48.26,89.72,70.27,139.91,46c3.74-1.81,9.11-6.83,8.68-9.58c-2.36-15.22-6.28-30.21-10.06-47.02
		c-4.95,3.53-8.33,5.99-11.76,8.38c-21.93,15.28-51.13,13.11-70.84-5.25c-20.78-19.35-25.48-46.42-12.15-69.9
		c14.47-25.49,37.8-35.1,68.33-28.13c23.26,5.31,40.54,27.66,41.2,54.6c0.44,18-1.27,36.08-0.3,54.03
		C633.58,358.86,669.66,383.21,703.01,369.2z M877.32,202.2c-14.24,6.41-24.15,11.94-34.74,15.35
		c-10.82,3.48-14.64,9.61-13.66,20.59c0.86,9.76,0.24,19.64,0.48,29.46c0.22,8.84-3.83,13.16-12.73,13.11
		c-16.93-0.1-33.93,0.82-50.73-0.65c-4.93-0.43-12.96-7.21-13.29-11.56c-1.87-24.4,15.73-49.03,39.77-55.63
		c10.22-2.81,21.48-2.27,32.28-2.46c21.08-0.38,43.13-14.52,49.22-31.7c4.05-11.43,2.12-17.98-11.64-17.77
		c-21.29,0.32-42.72-1.35-63.85,0.54c-42.31,3.79-74.45,25.17-86.51,66.27c-7.81,26.6-7.1,55.72-10,83.74
		c-1.34,12.92,5.06,17,17.62,16.72c29.47-0.68,58.97-0.17,88.45-0.2c19.48-0.02,21.03,1.73,21.35,21.61
		c0.11,6.87,0.4,19.25,2.53,19.68c12.49,2.54,25.69,3.56,38.29,2.06c3.07-0.37,6.91-12.22,6.67-18.66
		c-0.57-15.19,2.07-26.59,18.75-31.53c5.25-1.56,10.74-6.44,13.51-11.29c4.42-7.75,6.66-16.74,9.81-25.2
		c-7.66-1.31-15.36-3.88-22.98-3.67c-14.08,0.39-19.68-4.75-18.85-19.31C878.14,242.82,877.32,223.86,877.32,202.2z M1032.94,243.41
		c0-22.92,0.43-45.85-0.34-68.75c-0.17-4.97-3.47-12.68-7.29-14.21c-21.2-8.46-57.72,2.23-71.12,20.94
		c-4.33,6.05-4.86,14.81-7.13,22.34c6.38,1.77,12.87,5.34,19.12,4.96c15.58-0.94,19.65,5.77,19.23,20.39
		c-0.89,30.53,0.82,61.15-0.51,91.65c-1.04,23.95,26.55,52.76,50.9,52.17c10.36-0.25,20.73,0.03,31.1,0.05
		c22.65,0.03,22.65,0.03,22.59-22.11c-0.07-25.43-0.07-25.43-25.42-25.51c-5.46-0.02-10.94-0.37-16.36,0.08
		c-11.06,0.91-15.6-2.87-15.08-14.9C1033.6,288.19,1032.91,265.79,1032.94,243.41z M996.87,369.35
		c-7.22-13.52-14.2-27.13-21.84-40.36c-1.25-2.17-5.39-3.63-8.26-3.73c-10.84-0.39-21.83-1-32.49,0.48
		c-3.4,0.47-8.94,7.7-8.38,10.96C930.95,365.92,970.7,383.38,996.87,369.35z"/>
	<path class="st0" d="M333.77,394.31c-26.12,24.83-48.85,50.17-75.36,70.62c-28.9,22.3-71.54,17.08-97.88-8.62
		c-43.41-42.34-86.56-84.97-129-128.28c-33.65-34.34-33.27-81.18,0.48-115.53c42.37-43.13,85.13-85.9,128.3-128.23
		c29.09-28.52,77.73-30.18,107.34-1.9c46.62,44.52,92.16,90.23,136.85,136.69c26.19,27.23,25.55,74.03,0.49,102.06
		c-14.17,15.85-29.75,30.45-44.5,45.79c-7.03,7.31-13.17,6.01-16.06-2.76c-4.18-12.69-8.19-25.79-9.49-38.99
		c-2.88-29.23-0.35-59.45-6.7-87.77c-11.3-50.33-59.48-86.59-110.87-89.12c-52.12-2.57-99.77,29.09-120.18,79.85
		c-18.38,45.72-4.67,100,34.7,133.86c39.56,34.02,84.01,38.23,131.54,19.36c9.08-3.6,11.42-9.97,8.8-19.8
		c-2.78-10.42-3.15-21.47-5.09-32.15c-0.8-4.42-2.92-8.59-4.44-12.88c-3.76,1.72-7.96,2.84-11.21,5.24
		c-32.18,23.76-76.42,14.72-96.07-19.81c-12.98-22.81-10.02-51.66,7.54-73.5c15.01-18.67,43.58-27.46,66.61-20.49
		c26.94,8.15,45.37,30.02,46.79,57.05c0.8,15.26-0.03,30.6-0.09,45.9C276.09,360.63,284.81,373.94,333.77,394.31z"/>
	<path class="st0" d="M703.01,369.2c-33.35,14.01-69.43-10.34-71.48-48.19c-0.97-17.95,0.74-36.03,0.3-54.03
		c-0.65-26.93-17.93-49.29-41.2-54.6c-30.54-6.96-53.86,2.64-68.33,28.13c-13.33,23.48-8.63,50.54,12.15,69.9
		c19.7,18.36,48.91,20.53,70.84,5.25c3.43-2.39,6.81-4.85,11.76-8.38c3.78,16.82,7.7,31.8,10.06,47.02
		c0.43,2.75-4.94,7.77-8.68,9.58c-50.2,24.27-116.67,2.26-139.91-46c-26.35-54.69-7.24-117.15,44.09-144.08
		c71.81-37.68,154.73,10.85,157.49,92.3c0.56,16.38,0.47,32.78,0.43,49.17c-0.04,18.26,4.73,34.44,18.72,47.15
		C701.03,364.06,701.75,366.86,703.01,369.2z"/>
	<path class="st0" d="M877.32,202.2c0,21.66,0.81,40.62-0.26,59.48c-0.83,14.56,4.77,19.7,18.85,19.31
		c7.62-0.21,15.32,2.35,22.98,3.67c-3.16,8.47-5.39,17.46-9.81,25.2c-2.77,4.85-8.26,9.74-13.51,11.29
		c-16.68,4.95-19.31,16.34-18.75,31.53c0.24,6.43-3.6,18.29-6.67,18.66c-12.6,1.51-25.81,0.48-38.29-2.06
		c-2.12-0.43-2.42-12.8-2.53-19.68c-0.32-19.89-1.87-21.63-21.35-21.61c-29.49,0.03-58.98-0.47-88.45,0.2
		c-12.55,0.29-18.95-3.8-17.62-16.72c2.9-28.01,2.19-57.14,10-83.74c12.07-41.11,44.2-62.48,86.51-66.27
		c21.13-1.89,42.56-0.22,63.85-0.54c13.76-0.21,15.69,6.35,11.64,17.77c-6.09,17.18-28.14,31.33-49.22,31.7
		c-10.8,0.19-22.06-0.34-32.28,2.46c-24.04,6.6-41.64,31.23-39.77,55.63c0.33,4.35,8.36,11.13,13.29,11.56
		c16.8,1.47,33.81,0.55,50.73,0.65c8.91,0.05,12.95-4.27,12.73-13.11c-0.24-9.82,0.38-19.7-0.48-29.46
		c-0.97-10.98,2.84-17.11,13.66-20.59C853.18,214.14,863.08,208.61,877.32,202.2z"/>
	<path class="st0" d="M1032.92,243.41c-0.02,22.37,0.68,44.78-0.29,67.11c-0.53,12.03,4.02,15.81,15.08,14.9
		c5.42-0.45,10.91-0.09,16.36-0.08c25.35,0.08,25.35,0.08,25.42,25.51c0.06,22.13,0.06,22.14-22.59,22.11
		c-10.37-0.02-20.74-0.3-31.1-0.05c-24.35,0.6-51.94-28.21-50.9-52.17c1.32-30.5-0.38-61.12,0.51-91.65
		c0.43-14.62-3.65-21.34-19.23-20.39c-6.25,0.38-12.74-3.19-19.12-4.96c2.27-7.52,2.8-16.29,7.13-22.34
		c13.4-18.71,49.92-29.4,71.12-20.94c3.82,1.53,7.12,9.24,7.29,14.21C1033.37,197.56,1032.94,220.49,1032.92,243.41z"/>
	<path class="st0" d="M996.87,369.35c-26.17,14.03-65.92-3.43-70.97-32.66c-0.56-3.25,4.98-10.49,8.38-10.96
		c10.66-1.48,21.65-0.87,32.49-0.48c2.87,0.1,7.01,1.57,8.26,3.73C982.68,342.22,989.66,355.83,996.87,369.35z"/>
</g>
</svg>
