<svg width="196" height="116" viewBox="0 0 196 116" fill="none" xmlns="http://www.w3.org/2000/svg">
<g clip-path="url(#clip0_909_54869)">
<path d="M93.4096 81.9544L85.1332 77.1718L73.8235 78.921L70.7949 85.453L79.0713 90.2308L90.381 88.4815L93.4096 81.9544Z" stroke="#F4F3EC" stroke-width="0.5" stroke-miterlimit="10"/>
<path d="M107.748 73.6732L99.4716 68.8954L88.1618 70.6447L85.1333 77.1718L93.4097 81.9544L104.719 80.2051L107.748 73.6732Z" stroke="#F4F3EC" stroke-width="0.5" stroke-miterlimit="10"/>
<path d="M122.086 65.3968L113.81 60.619L102.5 62.3683L99.4717 68.8954L107.748 73.6732L119.053 71.9239L122.086 65.3968Z" stroke="#F4F3EC" stroke-width="0.5" stroke-miterlimit="10"/>
<path d="M136.424 57.1205L128.143 52.3427L116.838 54.0919L113.81 60.619L122.086 65.3968L133.391 63.6475L136.424 57.1205Z" stroke="#F4F3EC" stroke-width="0.5" stroke-miterlimit="10"/>
<path d="M132.582 88.0116L124.301 83.2338L112.996 84.983L109.967 91.5101L118.244 96.2879L129.553 94.5387L132.582 88.0116Z" stroke="#F4F3EC" stroke-width="0.5" stroke-miterlimit="10"/>
<path d="M118.244 96.2879L109.967 91.5101L98.6574 93.2594L95.6289 99.7865L103.905 104.569L115.215 102.82L118.244 96.2879Z" stroke="#F4F3EC" stroke-width="0.5" stroke-miterlimit="10"/>
<path d="M146.92 79.7352L138.639 74.9574L127.334 76.7067L124.301 83.2338L132.582 88.0116L143.887 86.2623L146.92 79.7352Z" stroke="#F4F3EC" stroke-width="0.5" stroke-miterlimit="10"/>
<path d="M161.258 71.4588L152.977 66.6761L141.672 68.4254L138.639 74.9574L146.92 79.7352L158.225 77.9859L161.258 71.4588Z" stroke="#F4F3EC" stroke-width="0.5" stroke-miterlimit="10"/>
<path d="M157.416 102.35L149.135 97.572L137.83 99.3213L134.801 105.848L143.078 110.626L154.383 108.877L157.416 102.35Z" stroke="#F4F3EC" stroke-width="0.5" stroke-miterlimit="10"/>
<path d="M171.749 94.0734L163.473 89.2908L152.168 91.0401L149.135 97.572L157.416 102.35L168.721 100.601L171.749 94.0734Z" stroke="#F4F3EC" stroke-width="0.5" stroke-miterlimit="10"/>
<path d="M186.087 85.7922L177.811 81.0144L166.506 82.7637L163.473 89.2908L171.749 94.0734L183.059 92.3241L186.087 85.7922Z" stroke="#F4F3EC" stroke-width="0.5" stroke-miterlimit="10"/>
<path d="M58.08 45.0015L49.8036 40.2189L38.4939 41.9682L35.4653 48.5001L43.7417 53.2779L55.0514 51.5286L58.08 45.0015Z" stroke="#F4F3EC" stroke-width="0.5" stroke-miterlimit="10"/>
<path d="M72.4184 36.7203L64.142 31.9425L52.8322 33.6918L49.8037 40.2189L58.0801 45.0015L69.3898 43.2523L72.4184 36.7203Z" stroke="#F4F3EC" stroke-width="0.5" stroke-miterlimit="10"/>
<path d="M86.7567 28.4439L78.4804 23.6661L67.1706 25.4154L64.1421 31.9425L72.4185 36.7203L83.7282 34.971L86.7567 28.4439Z" stroke="#F4F3EC" stroke-width="0.5" stroke-miterlimit="10"/>
<path d="M175.592 63.1776L167.315 58.3998L156.006 60.1491L152.977 66.6762L161.258 71.4588L172.563 69.7095L175.592 63.1776Z" stroke="#F4F3EC" stroke-width="0.5" stroke-miterlimit="10"/>
<path d="M68.5756 67.6162L60.2992 62.8384L48.9895 64.5828L45.9609 71.1148L54.2373 75.8926L65.5471 74.1433L68.5756 67.6162Z" stroke="#F4F3EC" stroke-width="0.5" stroke-miterlimit="10"/>
<path d="M125.929 34.5059L117.647 29.7233L106.342 31.4725L103.314 38.0045L111.59 42.7823L122.895 41.033L125.929 34.5059Z" stroke="#F4F3EC" stroke-width="0.5" stroke-miterlimit="10"/>
<path d="M82.914 59.3349L74.6376 54.5571L63.3278 56.3064L60.2993 62.8383L68.5757 67.6162L79.8854 65.8669L82.914 59.3349Z" stroke="#F4F3EC" stroke-width="0.5" stroke-miterlimit="10"/>
<path d="M97.2523 51.0586L88.976 46.2808L77.6662 48.03L74.6377 54.5571L82.9141 59.3349L94.2238 57.5857L97.2523 51.0586Z" stroke="#F4F3EC" stroke-width="0.5" stroke-miterlimit="10"/>
<path d="M111.59 42.7822L103.314 38.0044L92.0041 39.7537L88.9756 46.2808L97.252 51.0586L108.557 49.3093L111.59 42.7822Z" stroke="#F4F3EC" stroke-width="0.5" stroke-miterlimit="10"/>
<path d="M150.763 48.8442L142.482 44.0615L131.177 45.8108L128.144 52.3427L136.425 57.1205L147.73 55.3713L150.763 48.8442Z" stroke="#F4F3EC" stroke-width="0.5" stroke-miterlimit="10"/>
<path d="M165.096 40.563L156.82 35.7852L145.51 37.5344L142.481 44.0615L150.763 48.8442L162.068 47.0949L165.096 40.563Z" stroke="#F4F3EC" stroke-width="0.5" stroke-miterlimit="10"/>
<path d="M140.262 26.2247L131.986 21.4469L120.681 23.1962L117.647 29.7233L125.929 34.5059L137.234 32.7566L140.262 26.2247Z" stroke="#F4F3EC" stroke-width="0.5" stroke-miterlimit="10"/>
<path d="M189.93 54.9012L181.654 50.1234L170.344 51.8727L167.315 58.3998L175.592 63.1776L186.902 61.4283L189.93 54.9012Z" stroke="#F4F3EC" stroke-width="0.5" stroke-miterlimit="10"/>
<path d="M54.2372 75.8926L45.9608 71.1147L34.6559 72.864L31.6226 79.3911L39.9038 84.1689L51.2087 82.4196L54.2372 75.8926Z" stroke="#F4F3EC" stroke-width="0.5" stroke-miterlimit="10"/>
<path d="M103.905 104.569L95.6288 99.7865L84.3191 101.536L81.2905 108.068L89.5669 112.846L100.877 111.096L103.905 104.569Z" stroke="#F4F3EC" stroke-width="0.5" stroke-miterlimit="10"/>
<path d="M79.0712 90.2308L70.7948 85.453L59.4851 87.2023L56.4565 93.7294L64.7329 98.5072L76.0427 96.7579L79.0712 90.2308Z" stroke="#F4F3EC" stroke-width="0.5" stroke-miterlimit="10"/>
<path d="M112.996 84.983L104.719 80.2052L93.4094 81.9545L90.3809 88.4816L98.6572 93.2594L109.967 91.5101L112.996 84.983Z" stroke="#F4F3EC" stroke-width="0.5" stroke-miterlimit="10"/>
<path d="M127.334 76.7066L119.053 71.924L107.748 73.6732L104.719 80.2052L112.996 84.983L124.3 83.2337L127.334 76.7066Z" stroke="#F4F3EC" stroke-width="0.5" stroke-miterlimit="10"/>
<path d="M141.672 68.4254L133.391 63.6476L122.086 65.3969L119.053 71.9239L127.334 76.7066L138.639 74.9573L141.672 68.4254Z" stroke="#F4F3EC" stroke-width="0.5" stroke-miterlimit="10"/>
<path d="M156.006 60.149L147.729 55.3712L136.424 57.1205L133.391 63.6476L141.672 68.4254L152.977 66.6761L156.006 60.149Z" stroke="#F4F3EC" stroke-width="0.5" stroke-miterlimit="10"/>
<path d="M137.83 99.3212L129.553 94.5386L118.243 96.2879L115.215 102.82L123.491 107.598L134.801 105.848L137.83 99.3212Z" stroke="#F4F3EC" stroke-width="0.5" stroke-miterlimit="10"/>
<path d="M152.168 91.04L143.887 86.2622L132.582 88.0115L129.553 94.5386L137.83 99.3212L149.134 97.572L152.168 91.04Z" stroke="#F4F3EC" stroke-width="0.5" stroke-miterlimit="10"/>
<path d="M166.506 82.7636L158.225 77.9858L146.92 79.7351L143.887 86.2622L152.168 91.04L163.473 89.2907L166.506 82.7636Z" stroke="#F4F3EC" stroke-width="0.5" stroke-miterlimit="10"/>
<path d="M180.84 74.4873L172.563 69.7095L161.258 71.4588L158.225 77.9858L166.506 82.7637L177.811 81.0144L180.84 74.4873Z" stroke="#F4F3EC" stroke-width="0.5" stroke-miterlimit="10"/>
<path d="M63.328 56.3065L55.0517 51.5287L43.7419 53.278L40.7134 59.8051L48.9897 64.5829L60.2995 62.8384L63.328 56.3065Z" stroke="#F4F3EC" stroke-width="0.5" stroke-miterlimit="10"/>
<path d="M77.6659 48.0301L69.3895 43.2523L58.0798 45.0016L55.0513 51.5287L63.3276 56.3065L74.6374 54.5572L77.6659 48.0301Z" stroke="#F4F3EC" stroke-width="0.5" stroke-miterlimit="10"/>
<path d="M92.0043 39.7537L83.7279 34.9711L72.4182 36.7203L69.3896 43.2523L77.666 48.0301L88.9758 46.2808L92.0043 39.7537Z" stroke="#F4F3EC" stroke-width="0.5" stroke-miterlimit="10"/>
<path d="M106.343 31.4725L98.0615 26.6947L86.7566 28.444L83.728 34.9711L92.0044 39.7537L103.314 38.0044L106.343 31.4725Z" stroke="#F4F3EC" stroke-width="0.5" stroke-miterlimit="10"/>
<path d="M170.344 51.8727L162.068 47.0948L150.763 48.8441L147.729 55.3712L156.006 60.149L167.316 58.3997L170.344 51.8727Z" stroke="#F4F3EC" stroke-width="0.5" stroke-miterlimit="10"/>
<path d="M120.681 23.1961L112.4 18.4183L101.095 20.1676L98.0615 26.6947L106.343 31.4725L117.648 29.7232L120.681 23.1961Z" stroke="#F4F3EC" stroke-width="0.5" stroke-miterlimit="10"/>
<path d="M195.178 66.211L186.902 61.4283L175.592 63.1776L172.563 69.7096L180.84 74.4874L192.15 72.7381L195.178 66.211Z" stroke="#F4F3EC" stroke-width="0.5" stroke-miterlimit="10"/>
<path d="M48.9896 64.5829L40.7133 59.8051L29.4084 61.5543L26.375 68.0814L34.6562 72.8641L45.9611 71.1148L48.9896 64.5829Z" stroke="#F4F3EC" stroke-width="0.5" stroke-miterlimit="10"/>
<path d="M123.492 107.598L115.215 102.82L103.905 104.569L100.877 111.096L109.153 115.874L120.463 114.125L123.492 107.598Z" stroke="#F4F3EC" stroke-width="0.5" stroke-miterlimit="10"/>
<path d="M98.6576 93.2594L90.3813 88.4816L79.0715 90.2308L76.043 96.7579L84.3193 101.536L95.6291 99.7865L98.6576 93.2594Z" stroke="#F4F3EC" stroke-width="0.5" stroke-miterlimit="10"/>
<path d="M145.51 37.5344L137.234 32.7566L125.929 34.5059L122.896 41.033L131.177 45.8108L142.482 44.0615L145.51 37.5344Z" stroke="#F4F3EC" stroke-width="0.5" stroke-miterlimit="10"/>
<path d="M184.682 43.5963L176.406 38.8136L165.096 40.5629L162.067 47.0948L170.344 51.8726L181.654 50.1233L184.682 43.5963Z" stroke="#F4F3EC" stroke-width="0.5" stroke-miterlimit="10"/>
<path d="M159.848 29.258L151.572 24.4753L140.262 26.2246L137.233 32.7566L145.51 37.5344L156.82 35.7851L159.848 29.258Z" stroke="#F4F3EC" stroke-width="0.5" stroke-miterlimit="10"/>
<path d="M84.3192 101.536L76.0429 96.7579L64.7331 98.5072L61.7046 105.034L69.9858 109.817L81.2907 108.068L84.3192 101.536Z" stroke="#F4F3EC" stroke-width="0.5" stroke-miterlimit="10"/>
<path d="M59.4852 87.2023L51.2089 82.4197L39.904 84.169L36.8706 90.7009L45.1518 95.4787L56.4567 93.7294L59.4852 87.2023Z" stroke="#F4F3EC" stroke-width="0.5" stroke-miterlimit="10"/>
<path d="M73.8236 78.9211L65.5473 74.1433L54.2375 75.8926L51.209 82.4197L59.4854 87.2023L70.7951 85.4531L73.8236 78.9211Z" stroke="#F4F3EC" stroke-width="0.5" stroke-miterlimit="10"/>
<path d="M88.1615 70.6448L79.8852 65.8669L68.5754 67.6162L65.5469 74.1433L73.8232 78.9211L85.133 77.1718L88.1615 70.6448Z" stroke="#F4F3EC" stroke-width="0.5" stroke-miterlimit="10"/>
<path d="M102.5 62.3684L94.2235 57.5857L82.9138 59.335L79.8853 65.8669L88.1616 70.6447L99.4714 68.8954L102.5 62.3684Z" stroke="#F4F3EC" stroke-width="0.5" stroke-miterlimit="10"/>
<path d="M116.838 54.092L108.557 49.3093L97.2522 51.0586L94.2236 57.5857L102.5 62.3684L113.81 60.6191L116.838 54.092Z" stroke="#F4F3EC" stroke-width="0.5" stroke-miterlimit="10"/>
<path d="M131.177 45.8108L122.895 41.033L111.59 42.7822L108.557 49.3093L116.838 54.092L128.143 52.3427L131.177 45.8108Z" stroke="#F4F3EC" stroke-width="0.5" stroke-miterlimit="10"/>
<path style="mix-blend-mode:multiply" d="M93.5453 0L0 54.0096L78.1749 94.6598C86.8227 99.3809 96.9686 100.55 106.464 97.9209L154.489 84.605L156.238 81.6976C159.102 76.9342 160.975 71.6415 161.744 66.1369C162.514 60.6323 162.164 55.029 160.716 49.6628C159.268 44.2966 156.752 39.2779 153.318 34.9074C149.884 30.5369 145.603 26.9047 140.732 24.2282L93.5453 0Z" fill="url(#paint0_linear_909_54869)"/>
<path d="M169.685 53.3313V38.6344L162.417 53.2053L154.092 69.9082V84.3919C156.053 83.3669 157.623 81.7256 158.559 79.7207L168.735 57.7844C169.379 56.3932 169.697 54.8736 169.666 53.3409L169.685 53.3313Z" fill="#BCBCBB"/>
<path d="M61.3558 54.9545L53.6318 49.5322V64.0256C53.6318 64.2145 53.6318 64.3938 53.6609 64.5828C53.7271 66.2783 54.2206 67.9296 55.0957 69.3833C55.9708 70.837 57.1991 72.0459 58.6665 72.8979L92.2371 92.2805C93.2462 92.8653 94.3499 93.2688 95.4982 93.4726L95.7357 93.5065V79.0955L61.3558 54.9545Z" fill="#BCBCBB"/>
<path d="M95.7354 88.6754V93.521C96.7597 93.681 97.8026 93.681 98.8269 93.521L150.961 85.4579C152.061 85.2826 153.124 84.9256 154.106 84.4015V69.9082L95.7354 79.1149V88.6754Z" fill="#D6D6D4"/>
<path d="M164.645 30.2998L131.075 10.9172C129.082 9.76976 126.757 9.33725 124.485 9.69125L72.3502 17.7447C70.708 17.9993 69.154 18.6553 67.8261 19.6544C66.4981 20.6535 65.4373 21.9649 64.7377 23.4723L54.5618 45.4085C53.5012 47.696 53.3348 50.2976 54.0952 52.7016C54.8555 55.1056 56.4878 57.1382 58.6709 58.3997L92.2416 77.7823C94.2337 78.9318 96.5589 79.366 98.8316 79.0131L150.966 70.95C152.608 70.6953 154.162 70.0394 155.49 69.0403C156.818 68.0411 157.879 66.7298 158.578 65.2224L168.754 43.291C169.816 41.0037 169.983 38.4017 169.223 35.9974C168.462 33.5931 166.829 31.5605 164.645 30.2998Z" fill="white"/>
<path d="M140.073 34.8353L113.422 19.4407C112.907 19.1801 112.338 19.0443 111.76 19.0443C111.183 19.0443 110.613 19.1801 110.098 19.4407L106.348 21.6067C105.432 22.1349 105.432 22.9926 106.348 23.545L132.999 38.9396C133.514 39.2002 134.083 39.336 134.661 39.336C135.238 39.336 135.807 39.2002 136.323 38.9396L140.068 36.7736C141.008 36.226 141.008 35.3732 140.073 34.8353Z" fill="url(#paint1_linear_909_54869)"/>
<path d="M97.3975 43.8968L84.2173 36.2891C83.7027 36.0262 83.1331 35.8892 82.5553 35.8892C81.9774 35.8892 81.4078 36.0262 80.8932 36.2891L77.1475 38.4502C76.2269 38.9784 76.2269 39.8409 77.1475 40.3885L93.1382 49.6389C93.8456 47.594 95.2606 45.6412 97.3975 43.8968Z" fill="url(#paint2_linear_909_54869)"/>
<path d="M118.059 64.6167C129.77 64.6167 139.264 59.1366 139.264 52.3766C139.264 45.6166 129.77 40.1365 118.059 40.1365C106.348 40.1365 96.8545 45.6166 96.8545 52.3766C96.8545 59.1366 106.348 64.6167 118.059 64.6167Z" fill="url(#paint3_linear_909_54869)"/>
<path d="M118.06 61.3798C126.672 61.3798 133.653 57.349 133.653 52.3766C133.653 47.4043 126.672 43.3734 118.06 43.3734C109.448 43.3734 102.466 47.4043 102.466 52.3766C102.466 57.349 109.448 61.3798 118.06 61.3798Z" stroke="#F4F3EC" stroke-width="3" stroke-miterlimit="10"/>
<path d="M100.14 42.0264C102.668 40.6064 105.384 39.5524 108.208 38.8961L93.9571 30.6585C93.4425 30.3956 92.8729 30.2585 92.295 30.2585C91.7172 30.2585 91.1476 30.3956 90.633 30.6585L86.8873 32.8196C85.9666 33.3527 85.9666 34.2103 86.8873 34.7579L99.8203 42.2202L100.14 42.0264Z" fill="url(#paint4_linear_909_54869)"/>
<path d="M127.475 38.7943L103.697 25.0568C103.182 24.7939 102.611 24.6569 102.033 24.6569C101.454 24.6569 100.884 24.7939 100.368 25.0568L96.6224 27.218C95.7066 27.751 95.7066 28.6087 96.6224 29.1563L112.221 38.1595C117.303 37.4622 122.468 37.6772 127.475 38.7943Z" fill="url(#paint5_linear_909_54869)"/>
<g style="mix-blend-mode:multiply" opacity="0.3">
<path d="M113.412 21.505L139.947 36.827L140.073 36.7543C140.994 36.2261 140.994 35.3636 140.073 34.816L113.422 19.4214C112.907 19.1608 112.338 19.025 111.76 19.025C111.183 19.025 110.613 19.1608 110.098 19.4214L106.348 21.5874C105.432 22.1156 105.432 22.9733 106.348 23.5257L106.473 23.5984L110.098 21.505C110.612 21.246 111.18 21.1111 111.755 21.1111C112.331 21.1111 112.898 21.246 113.412 21.505Z" fill="#12262C"/>
</g>
<g style="mix-blend-mode:multiply" opacity="0.3">
<path d="M84.232 38.3533L96.0215 45.1372C96.46 44.6905 96.9244 44.2698 97.4122 43.8773L84.232 36.2697C83.7174 36.0068 83.1478 35.8698 82.5699 35.8698C81.9921 35.8698 81.4225 36.0068 80.9079 36.2697L77.1622 38.4308C76.2415 38.959 76.2415 39.8215 77.1622 40.3691L77.2882 40.4418L80.9224 38.3533C81.4351 38.0928 82.0021 37.9571 82.5772 37.9571C83.1523 37.9571 83.7193 38.0928 84.232 38.3533Z" fill="#12262C"/>
</g>
<g style="mix-blend-mode:multiply" opacity="0.3">
<path d="M133.052 43.7174C124.77 38.9396 111.348 38.9396 103.067 43.7174C98.4682 46.3728 96.4282 49.9392 96.937 53.4087C97.3392 50.6273 99.3598 47.9089 103.067 45.7816C111.348 41.0038 124.77 41.0038 133.052 45.7816C136.739 47.9089 138.779 50.6273 139.186 53.4087C139.69 49.9392 137.65 46.3728 133.052 43.7174Z" fill="#12262C"/>
</g>
<g style="mix-blend-mode:multiply" opacity="0.3">
<path d="M93.9572 32.7373L105.8 39.5745C106.585 39.3225 107.393 39.0964 108.223 38.8961L93.9717 30.6585C93.4571 30.3956 92.8875 30.2585 92.3097 30.2585C91.7318 30.2585 91.1622 30.3956 90.6476 30.6585L86.9019 32.8196C85.9813 33.3527 85.9813 34.2103 86.9019 34.7579L87.0279 34.8306L90.6137 32.7373C91.1308 32.4712 91.7039 32.3324 92.2854 32.3324C92.867 32.3324 93.4401 32.4712 93.9572 32.7373Z" fill="#12262C"/>
</g>
<g style="mix-blend-mode:multiply" opacity="0.3">
<path d="M103.697 27.1356L122.513 37.9996C124.185 38.1657 125.846 38.436 127.484 38.8088L103.697 25.0568C103.182 24.7939 102.611 24.6569 102.033 24.6569C101.454 24.6569 100.884 24.7939 100.368 25.0568L96.6224 27.218C95.7066 27.751 95.7066 28.6087 96.6224 29.1563L96.7484 29.2289L100.358 27.1356C100.876 26.8738 101.448 26.7373 102.028 26.7373C102.608 26.7373 103.18 26.8738 103.697 27.1356Z" fill="#12262C"/>
</g>
</g>
<defs>
<linearGradient id="paint0_linear_909_54869" x1="61.6754" y1="23.5499" x2="117.236" y2="100.911" gradientUnits="userSpaceOnUse">
<stop stop-color="#12262C" stop-opacity="0"/>
<stop offset="0.66" stop-color="#0F1F23" stop-opacity="0.62"/>
<stop offset="1" stop-color="#0D1B1E"/>
</linearGradient>
<linearGradient id="paint1_linear_909_54869" x1="84.2029" y1="47.4437" x2="146.654" y2="18.2003" gradientUnits="userSpaceOnUse">
<stop stop-color="#B6EA5C"/>
<stop offset="1" stop-color="#2FE4AB"/>
</linearGradient>
<linearGradient id="paint2_linear_909_54869" x1="82.9865" y1="44.8465" x2="145.437" y2="15.603" gradientUnits="userSpaceOnUse">
<stop stop-color="#B6EA5C"/>
<stop offset="1" stop-color="#2FE4AB"/>
</linearGradient>
<linearGradient id="paint3_linear_909_54869" x1="92.1833" y1="64.4907" x2="154.639" y2="35.2472" gradientUnits="userSpaceOnUse">
<stop stop-color="#B6EA5C"/>
<stop offset="1" stop-color="#2FE4AB"/>
</linearGradient>
<linearGradient id="paint4_linear_909_54869" x1="82.0756" y1="42.9034" x2="144.526" y2="13.6551" gradientUnits="userSpaceOnUse">
<stop stop-color="#B6EA5C"/>
<stop offset="1" stop-color="#2FE4AB"/>
</linearGradient>
<linearGradient id="paint5_linear_909_54869" x1="83.5828" y1="46.1257" x2="146.038" y2="16.8773" gradientUnits="userSpaceOnUse">
<stop stop-color="#B6EA5C"/>
<stop offset="1" stop-color="#2FE4AB"/>
</linearGradient>
<clipPath id="clip0_909_54869">
<rect width="195.333" height="116" fill="white"/>
</clipPath>
</defs>
</svg>
