<svg width="266" height="178" viewBox="0 0 266 178" fill="none" xmlns="http://www.w3.org/2000/svg">
<path d="M61.4116 110.337C13.5924 117.015 -39.8557 107.787 -101.507 82.248C-121.682 73.8952 -141.43 64.5177 -160.529 55.4607C-177.464 47.419 -193.867 39.6306 -210.307 32.6108L-216.233 38.9691C-241.679 66.2566 -284.313 111.924 -340.95 117.24C-348.657 117.953 -356.42 117.787 -364.09 116.746C-393.465 112.766 -418.663 96.3953 -431.473 72.9397C-449.39 40.1936 -441.776 -3.05861 -413.375 -29.9701C-382.149 -59.5587 -338.79 -56.9448 -315.507 -55.5469C-288.542 -53.9248 -259.445 -47.9762 -229.021 -37.874L-226.292 -36.9543L-133.588 -136.344C-100.106 -172.248 -62.1486 -212.948 -13.4877 -238.778C44.9188 -269.763 108.779 -272.093 157.327 -245.01C201.681 -220.252 232.582 -169.648 237.975 -112.946C242.562 -62.2194 228.394 -11.5712 198.153 29.4126C168.097 69.7816 122.532 98.5447 73.1417 108.338C69.2814 109.101 65.3806 109.757 61.4403 110.308L61.4116 110.337ZM-167.605 -13.1751C-156.635 -8.17779 -145.832 -3.05645 -135.163 2.00804C-116.727 10.7632 -97.6726 19.8012 -78.859 27.5972C-23.275 50.6181 22.6897 58.0044 61.609 50.3367C97.2403 43.2767 128.982 23.2389 150.679 -5.89254C172.377 -35.024 182.486 -71.1739 179.047 -107.335C175.469 -144.97 156.088 -177.923 128.431 -193.33C92.0192 -213.682 45.5193 -203.143 14.1796 -186.513C-25.7153 -165.34 -58.5986 -130.082 -90.3869 -95.9917L-167.605 -13.1751ZM-356.156 58.1159C-352.945 58.5595 -349.694 58.632 -346.466 58.332C-319.511 55.8012 -294.766 35.0318 -271.531 11.2673C-287.103 7.19894 -303.024 4.60618 -319.082 3.52338C-343.711 2.04495 -362.247 3.08108 -372.714 12.9857C-381.341 21.1646 -384.502 35.6131 -379.611 44.5479C-375.815 51.4787 -366.831 56.6777 -356.155 58.1241" fill="#46E69E" fill-opacity="0.03"/>
</svg>
