<svg width="194" height="209" viewBox="0 0 194 209" fill="none" xmlns="http://www.w3.org/2000/svg">
<path d="M-10.5884 141.337C-58.4076 148.015 -111.856 138.787 -173.507 113.248C-193.682 104.895 -213.43 95.5177 -232.529 86.4607C-249.464 78.419 -265.867 70.6306 -282.307 63.6108L-288.233 69.9691C-313.679 97.2566 -356.313 142.924 -412.95 148.24C-420.657 148.953 -428.42 148.787 -436.09 147.746C-465.465 143.766 -490.663 127.395 -503.473 103.94C-521.39 71.1936 -513.776 27.9414 -485.375 1.02992C-454.149 -28.5587 -410.79 -25.9448 -387.507 -24.5469C-360.542 -22.9248 -331.445 -16.9762 -301.021 -6.87399L-298.292 -5.95434L-205.588 -105.344C-172.106 -141.248 -134.149 -181.948 -85.4877 -207.778C-27.0812 -238.763 36.7792 -241.093 85.327 -214.01C129.681 -189.252 160.582 -138.648 165.975 -81.9461C170.562 -31.2194 156.394 19.4288 126.153 60.4126C96.0972 100.782 50.5316 129.545 1.14166 139.338C-2.71864 140.101 -6.61937 140.757 -10.5597 141.308L-10.5884 141.337ZM-239.605 17.8249C-228.635 22.8222 -217.832 27.9435 -207.163 33.008C-188.727 41.7632 -169.673 50.8012 -150.859 58.5972C-95.275 81.6181 -49.3103 89.0044 -10.391 81.3367C25.2403 74.2767 56.9815 54.2389 78.6794 25.1075C100.377 -4.02396 110.486 -40.1739 107.047 -76.3348C103.469 -113.97 84.0878 -146.923 56.4314 -162.33C20.0192 -182.682 -26.4807 -172.143 -57.8204 -155.513C-97.7153 -134.34 -130.599 -99.0817 -162.387 -64.9917L-239.605 17.8249ZM-428.156 89.1159C-424.945 89.5595 -421.694 89.632 -418.466 89.332C-391.511 86.8012 -366.766 66.0318 -343.531 42.2673C-359.103 38.1989 -375.024 35.6062 -391.082 34.5234C-415.711 33.045 -434.247 34.0811 -444.714 43.9857C-453.341 52.1646 -456.502 66.6131 -451.611 75.5479C-447.815 82.4787 -438.831 87.6777 -428.155 89.1241" fill="#46E69E" fill-opacity="0.03"/>
</svg>
