<?xml version="1.0" encoding="utf-8"?>
<!-- Generator: Adobe Illustrator 26.0.2, SVG Export Plug-In . SVG Version: 6.00 Build 0)  -->
<svg version="1.1" id="svg" xmlns="http://www.w3.org/2000/svg" xmlns:xlink="http://www.w3.org/1999/xlink" x="0px" y="0px"
	 viewBox="0 0 401.5 87" style="enable-background:new 0 0 401.5 87;" xml:space="preserve">
<style type="text/css">
	.st0{fill-rule:evenodd;clip-rule:evenodd;fill:#FFFFFF;}
</style>
<g>
	<path class="st0" d="M54.5,11c0,0,0,32.9,0,39.2s0,19.4,16.1,20.4c9.2,0.5,15.2-2.4,15.2-2.4l-1.9-10.7c-4.5,1.4-15.5,3.9-15.8-4.3
		C67.7,45.6,67.9,34,67.9,34l15.9-0.1V22.6H67.9V8.9L54.5,11z"/>
	<path class="st0" d="M129.6,40.9c0-9.8-2.4-25.4-36-17.4l1.7,10.9l0,0c13.2-3.9,21.8-2.6,21.4,6.4c-5.8-1.3-19.8-1.6-24.7,5.4
		c-5,7-2.4,15.7,0,18.1c2.6,2.6,4.9,7.3,24.7,6c7.6-0.5,13-2.2,13-2.2S129.6,50.7,129.6,40.9z M116.7,59.5c0,0-6,0.9-10,0
		c-5.4-1.2-5.6-8.1,0-9.6c3.8-1,8.3-0.6,10-0.1V59.5z"/>
	<path class="st0" d="M141.4,2.7v66.9h13.5V49.2c0,0,8.8,8.5,15.7,20.3h15.8c0,0-10.8-18.9-19.8-26.5l18.9-20.5h-16.4l-14.2,16.4
		V0.6L141.4,2.7z"/>
	<path class="st0" d="M209.8,21.3c-22.2,0-22.5,24.1-22.5,24.1s-1.5,19.6,16.5,24.2c12.3,3.1,24.8-1.8,24.8-1.8l-1.8-11.1
		c-15,5-24.5,1.6-25.6-6H231C232,42.5,232,21.3,209.8,21.3z M201.2,41.3c0,0,0.5-8.9,8.6-8.9c8.8,0,8.6,8.9,8.6,8.9L201.2,41.3z"/>
	<path class="st0" d="M241.2,2.7l13.5-2.2v39.8c0,0,0.1,6.9,0,11.2c-0.1,3.5,1.9,6.6,7.4,6.6l-1.8,12.5c0,0-19.1,2.4-19.1-19.1l0,0
		L241.2,2.7z"/>
	<path class="st0" d="M263.6,22.6h13.8l9.8,30l8.9-30h14c0,0-12,41.5-20.7,53.8s-18.4,9.5-26.6,7.2l2.3-10.5c0,0,5.8,1.9,9.7,0.7
		c3.9-1.2,5.7-6.5,5.7-6.5S266.9,37.8,263.6,22.6z"/>
	<circle class="st0" cx="316.6" cy="62.2" r="8.5"/>
	<circle class="st0" cx="338.9" cy="9.1" r="8"/>
	<rect x="332.2" y="22.6" class="st0" width="13.5" height="46.9"/>
	<path class="st0" d="M377.3,21.3c-15.4,0-23,11.9-23,24.6s7.6,24.7,23,24.7c15.5,0,23-12,23-24.7S392.8,21.3,377.3,21.3z
		 M377.3,58.9c-8.1,0-9.3-9.5-9.3-13s1.1-13,9.3-13c8.2,0,9.3,9.4,9.3,13S385.4,58.9,377.3,58.9z"/>
	<path class="st0" d="M42.6,10.5L38.5,22c-8.3-4.5-19-5-21.5-1.3c-2,2.9-1.6,7.7,6.3,10.2c1,0.3,1.4,1.6,0.6,2.4l-5.5,6
		c-1.8,2-4.8,2.5-7.2,1.2c-4.1-2.2-9.5-6.7-9.9-15.3C0.6,7.1,22.8,2,42.6,10.5z"/>
	<path class="st0" d="M20.7,41.8c-0.8,0.8-0.5,2.1,0.6,2.5c4.3,1.6,10.6,4,9.3,9.7c-1.6,6.8-17.3,4.9-26.3,0.7L0.4,66.1
		c0,0,14.1,7.3,31.7,3.2C49.8,65.1,45.2,47,43.6,43.7c-1.4-2.9-4.9-7.1-11.6-9.8c-1.7-0.7-3.6-0.3-4.8,1L20.7,41.8z"/>
</g>
</svg>
