<?xml version="1.0" encoding="utf-8"?>
<svg width="358" height="64" viewBox="0 0 358 64" fill="none" xmlns="http://www.w3.org/2000/svg">
<path d="M77.2 44V18.5H84.1V44H77.2Z" fill="white"/>
<path d="M115.8 44L98.5999 26.5V44H91.7V18.5H99.2L116.4 36.1V18.5H123.3V44H115.8Z" fill="white"/>
<path d="M137.8 23.9V28.3H154.4V33.7H137.8V44H130.9V18.5H155.3V23.9H137.8Z" fill="white"/>
<path d="M184.3 25.7003C183.8 25.5003 183.2 25.2003 182.4 24.9003C181.6 24.6003 180.7 24.3003 179.7 24.1003C178.7 23.9003 177.6 23.6003 176.4 23.4003C175.2 23.2003 174 23.1003 172.8 23.1003C171.8 23.1003 171 23.1003 170.3 23.2003C169.6 23.3003 169 23.3003 168.5 23.4003C168 23.5003 167.6 23.6003 167.4 23.7003C167.1 23.8003 166.9 24.0003 166.8 24.1003C166.7 24.2003 166.6 24.4003 166.5 24.5003C166.5 24.6003 166.4 24.8003 166.4 24.9003C166.4 25.3003 166.6 25.6003 167 25.9003C167.4 26.2003 167.9 26.4003 168.5 26.6003C169.1 26.8003 169.9 27.0003 170.7 27.2003C171.6 27.4003 172.5 27.6003 173.4 27.8003C174.3 28.0003 175.4 28.2003 176.4 28.5003C177.4 28.7003 178.4 29.0003 179.4 29.3003C180.4 29.6003 181.3 30.0003 182.1 30.4003C183 30.8003 183.7 31.3003 184.3 31.9003C184.9 32.5003 185.5 33.1003 185.8 33.9003C186.2 34.6003 186.4 35.5003 186.4 36.4003C186.4 37.6003 186.2 38.7003 185.7 39.6003C185.3 40.5003 184.7 41.2003 184 41.8003C183.3 42.4003 182.4 42.9003 181.5 43.3003C180.5 43.7003 179.5 43.9003 178.5 44.1003C177.5 44.3003 176.4 44.4003 175.3 44.5003C174.2 44.6003 173.2 44.6003 172.2 44.6003C169.7 44.6003 167.3 44.4003 165.2 44.0003C163.1 43.6003 161.2 43.1003 159.5 42.4003V36.3003C161.2 37.2003 163.1 38.0003 165.3 38.5003C167.5 39.0003 169.8 39.3003 172.3 39.3003C173.8 39.3003 175 39.2003 175.9 39.1003C176.8 39.0003 177.5 38.7003 178.1 38.5003C178.7 38.3003 179 38.0003 179.2 37.7003C179.4 37.4003 179.5 37.1003 179.5 36.9003C179.5 36.5003 179.3 36.1003 178.9 35.8003C178.5 35.5003 178 35.2003 177.4 35.0003C176.8 34.8003 176 34.6003 175.2 34.4003C174.3 34.2003 173.4 34.0003 172.5 33.8003C171.5 33.6003 170.6 33.4003 169.5 33.2003C168.5 33.0003 167.5 32.7003 166.5 32.4003C165.5 32.1003 164.6 31.7003 163.8 31.3003C163 30.9003 162.2 30.4003 161.6 29.9003C161 29.3003 160.4 28.7003 160.1 28.0003C159.7 27.3003 159.5 26.4003 159.5 25.5003C159.5 24.4003 159.7 23.4003 160.1 22.6003C160.5 21.8003 161 21.1003 161.7 20.5003C162.4 19.9003 163.2 19.5003 164 19.1003C164.9 18.7003 165.8 18.5003 166.8 18.3003C167.8 18.1003 168.8 18.0003 169.8 17.9003C170.8 17.8003 171.8 17.8003 172.7 17.8003C173.7 17.8003 174.7 17.8003 175.8 17.9003C176.8 18.0003 177.9 18.1003 178.9 18.3003C179.9 18.5003 180.9 18.7003 181.8 18.9003C182.7 19.1003 183.6 19.4003 184.4 19.6003V25.7003H184.3Z" fill="white"/>
<path d="M206.9 24.0004V44.0004H200V24.0004H189.2V18.4004H217.8V24.0004H206.9Z" fill="white"/>
<path d="M254.6 31.2002C254.6 33.4002 254.2 35.3002 253.4 37.0002C252.6 38.7002 251.4 40.1002 249.9 41.2002C248.4 42.3002 246.6 43.2002 244.4 43.8002C242.3 44.4002 239.9 44.7002 237.2 44.7002C234.5 44.7002 232.1 44.4002 230 43.8002C227.9 43.2002 226 42.4002 224.5 41.2002C223 40.1002 221.8 38.7002 221 37.0002C220.2 35.3002 219.8 33.4002 219.8 31.2002C219.8 29.0002 220.2 27.1002 221 25.4002C221.8 23.7002 223 22.3002 224.5 21.2002C226 20.1002 227.8 19.2002 230 18.6002C232.2 18.0002 234.6 17.7002 237.2 17.7002C239.9 17.7002 242.3 18.0002 244.4 18.6002C246.5 19.2002 248.4 20.0002 249.9 21.2002C251.4 22.3002 252.6 23.7002 253.4 25.4002C254.2 27.1002 254.6 29.1002 254.6 31.2002ZM247.6 31.2002C247.6 30.2002 247.4 29.3002 247.1 28.3002C246.8 27.4002 246.3 26.5002 245.5 25.7002C244.7 24.9002 243.7 24.3002 242.3 23.9002C240.9 23.5002 239.3 23.2002 237.2 23.2002C235.8 23.2002 234.6 23.3002 233.5 23.5002C232.4 23.7002 231.5 24.0002 230.8 24.4002C230 24.8002 229.4 25.2002 228.9 25.7002C228.4 26.2002 228 26.8002 227.7 27.4002C227.4 28.0002 227.2 28.6002 227 29.2002C226.9 29.8002 226.8 30.5002 226.8 31.1002C226.8 31.7002 226.9 32.4002 227 33.0002C227.1 33.6002 227.3 34.3002 227.7 34.8002C228 35.4002 228.4 35.9002 228.9 36.4002C229.4 36.9002 230.1 37.4002 230.8 37.7002C231.6 38.1002 232.5 38.4002 233.5 38.6002C234.6 38.8002 235.8 38.9002 237.2 38.9002C239.3 38.9002 241 38.7002 242.3 38.2002C243.6 37.7002 244.7 37.1002 245.5 36.4002C246.3 35.6002 246.8 34.8002 247.1 33.8002C247.5 33.1002 247.6 32.2002 247.6 31.2002Z" fill="white"/>
<path d="M284.6 44L267.4 26.5V44H260.5V18.5H268L285.2 36.1V18.5H292.1V44H284.6Z" fill="white"/>
<path d="M299.7 44V18.5H325.5V23.9H306.7V28.1H324.5V33.5H306.7V38.5H325.7V43.9H299.7V44Z" fill="white"/>
<path d="M355.7 25.7003C355.2 25.5003 354.6 25.2003 353.8 24.9003C353 24.6003 352.1 24.3003 351.1 24.1003C350.1 23.9003 349 23.6003 347.8 23.4003C346.6 23.2003 345.4 23.1003 344.2 23.1003C343.2 23.1003 342.4 23.1003 341.7 23.2003C341 23.3003 340.4 23.3003 339.9 23.4003C339.4 23.5003 339 23.6003 338.8 23.7003C338.5 23.8003 338.3 24.0003 338.2 24.1003C338.1 24.2003 338 24.4003 337.9 24.5003C337.9 24.6003 337.8 24.8003 337.8 24.9003C337.8 25.3003 338 25.6003 338.4 25.9003C338.8 26.2003 339.3 26.4003 339.9 26.6003C340.5 26.8003 341.3 27.0003 342.1 27.2003C343 27.4003 343.9 27.6003 344.8 27.8003C345.8 28.0003 346.8 28.2003 347.8 28.5003C348.8 28.7003 349.8 29.0003 350.8 29.3003C351.8 29.6003 352.7 30.0003 353.5 30.4003C354.4 30.8003 355.1 31.3003 355.7 31.9003C356.3 32.5003 356.9 33.1003 357.2 33.9003C357.6 34.6003 357.8 35.5003 357.8 36.4003C357.8 37.6003 357.6 38.7003 357.1 39.6003C356.7 40.5003 356.1 41.2003 355.4 41.8003C354.7 42.4003 353.8 42.9003 352.9 43.3003C351.9 43.7003 350.9 43.9003 349.9 44.1003C348.9 44.3003 347.8 44.4003 346.7 44.5003C345.6 44.6003 344.6 44.6003 343.6 44.6003C341.1 44.6003 338.7 44.4003 336.6 44.0003C334.5 43.6003 332.6 43.1003 330.9 42.4003V36.3003C332.6 37.2003 334.5 38.0003 336.7 38.5003C338.9 39.0003 341.2 39.3003 343.7 39.3003C345.2 39.3003 346.4 39.2003 347.3 39.1003C348.2 38.9003 348.9 38.7003 349.5 38.5003C350 38.3003 350.4 38.0003 350.6 37.7003C350.8 37.4003 350.9 37.1003 350.9 36.9003C350.9 36.5003 350.7 36.1003 350.3 35.8003C349.9 35.5003 349.4 35.2003 348.8 35.0003C348.2 34.8003 347.4 34.6003 346.6 34.4003C345.7 34.2003 344.8 34.0003 343.9 33.8003C342.9 33.6003 342 33.4003 340.9 33.2003C339.9 33.0003 338.9 32.7003 337.9 32.4003C336.9 32.1003 336 31.7003 335.2 31.3003C334.4 30.9003 333.6 30.4003 333 29.9003C332.4 29.3003 331.8 28.7003 331.5 28.0003C331.1 27.3003 330.9 26.4003 330.9 25.5003C330.9 24.4003 331.1 23.4003 331.5 22.6003C331.9 21.8003 332.4 21.1003 333.1 20.5003C333.8 19.9003 334.6 19.5003 335.4 19.1003C336.2 18.7003 337.2 18.5003 338.2 18.3003C339.2 18.1003 340.2 18.0003 341.2 17.9003C342.2 17.8003 343.2 17.8003 344.1 17.8003C345.1 17.8003 346.1 17.8003 347.2 17.9003C348.2 18.0003 349.3 18.1003 350.3 18.3003C351.3 18.5003 352.3 18.7003 353.2 18.9003C354.1 19.1003 355 19.4003 355.8 19.6003V25.7003H355.7Z" fill="white"/>
<path d="M31.7 0C23.7 0 17.3 6.49999 17.3 14.4C17.3 17.7 18.5 21 20.6 23.6L21.9 25.1L36.5 43.1L37.8 44.6C39 46 39.6 47.7 39.6 49.6C39.6 53.9 36.1 57.4 31.8 57.4C27.5 57.4 24 53.9 24 49.6V48.5C21.9 49.5 19.7 50.1 17.4 50.3C17.8 57.9 24.1 64 31.8 64C39.8 64 46.2 57.5 46.2 49.6C46.2 46.3 45 43 42.9 40.4L41.7 38.9L27.1 20.9L25.8 19.4C24.6 18 24 16.3 24 14.5C24 10.2 27.5 6.7 31.8 6.7C36.1 6.7 39.6 10.2 39.6 14.5V15.4C41.6 14.4 43.8 13.8 46.2 13.7C45.7 6.1 39.4 0 31.7 0Z" fill="white"/>
<path d="M16 47.7001C20 47.7001 24.1 46.0001 26.7 43.3001C28 42.0001 29.3 40.6001 30.4 39.1001L26.1 33.8001C24.8 35.5001 23.5 37.0001 22 38.5001C20.8 39.7001 18.4 41.0001 15.8 41.0001C10.8 41.0001 6.7 36.9001 6.7 31.9001C6.7 26.9001 10.8 22.8001 15.8 22.8001C16.4 22.8001 16.9 22.9001 17.4 22.9001C16.2 20.8001 15.4 18.5001 15.1 16.1001C6.7 16.4001 0 23.4001 0 31.8001C0 40.4001 7 47.5001 15.6 47.6001H16V47.7001Z" fill="white"/>
<path d="M48.3 16.2002H46.3C42.4 16.4002 39.4 17.8002 36.6 20.6002C35.3 21.9002 34 23.3002 32.9 24.8002L37.2 30.1002C38.5 28.4002 39.8 26.9002 41.3 25.4002C43.1 23.6002 44.8 22.9002 47.5 22.9002C52.5 22.9002 56.6 27.0002 56.6 32.0002C56.6 37.0002 52.5 41.1002 47.5 41.1002C47 41.1002 46.4 41.0002 45.8 40.9002C47.1 43.0002 47.8 45.3002 48.1 47.7002C56.5 47.4002 63.2 40.4002 63.2 32.0002C63.4 23.5002 56.7 16.6002 48.3 16.2002Z" fill="white"/>
</svg>
