<svg width="667" height="255" viewBox="0 0 667 255" fill="none" xmlns="http://www.w3.org/2000/svg">
<path d="M108.23 352.487C92.3766 334.566 72.1224 319.355 53.7894 302.945C24.5375 276.777 -0.546924 244.006 14.5086 210.395C19.9097 198.328 32.0499 188.083 48.0262 185.895C71.2877 182.719 86.644 197.934 97.5567 212.889C107.954 227.139 118.253 241.431 130.086 255.009C159.086 288.261 207.985 298.386 285.981 296.724" stroke="url(#paint0_linear_895_3878)" stroke-width="20" stroke-miterlimit="10"/>
<path d="M190.355 342.184C212.768 335.112 220.623 309.136 278.636 316.455C305.558 319.851 331.865 325.538 350.767 308.753C366.486 294.794 367.801 268.711 351.353 248.346C330.893 223.005 296.828 220.901 270.761 202.116C251.072 187.922 235.244 165.77 236.94 145.759C238.392 128.781 252.017 116.741 268.063 110.319C284.11 103.897 302.681 102.041 320.32 98.5106C337.959 94.9806 355.469 89.3523 366.151 77.0549C376.833 64.7575 378.741 44.3333 366.097 28.6525C352.964 12.3984 327.52 6.70903 311.59 14.4023C283.682 27.8793 287.694 69.535 305.548 96.8527C323.403 124.17 354.303 137.187 383.928 136.059C414.241 134.902 440.275 112.195 464.207 99.4486C488.617 86.4446 515.142 75.1616 545.531 73.5935C603.571 70.5928 657.433 110.173 682.174 162.76C698.773 198.018 699.504 236.059 685.828 266.268C673.395 293.797 647.238 315.186 617.651 326.97C600.72 333.725 575.892 337.252 555.671 336.055C532.219 334.648 507.084 324.858 487.822 308.266C457.914 282.502 444.329 242.258 455.623 212.883C460.535 200.097 469.984 189.24 483.536 184.115C497.088 178.99 514.903 180.159 529.798 188.785C552.697 202.043 563.245 229.99 557.694 250.542C552.144 271.093 533.85 284.886 513.133 292.944C492.415 301.002 468.978 304.233 446.721 309.586C411.215 318.113 376.694 334.919 376.405 373.795C376.298 387.75 382.712 403.607 395.606 414.094C414.383 429.356 433.605 423.522 448.899 415.569C463.47 407.99 477.974 400.321 493.517 394.122C531.599 378.951 577.697 395.592 644.202 438.505" stroke="url(#paint1_linear_895_3878)" stroke-width="20" stroke-miterlimit="10"/>
<defs>
<linearGradient id="paint0_linear_895_3878" x1="36.205" y1="674.286" x2="28.474" y2="239.743" gradientUnits="userSpaceOnUse">
<stop stop-color="#2FE4AB"/>
<stop offset="1" stop-color="#B6EA5C"/>
</linearGradient>
<linearGradient id="paint1_linear_895_3878" x1="578" y1="-41" x2="346.732" y2="320.12" gradientUnits="userSpaceOnUse">
<stop stop-color="#2FE4AB"/>
<stop offset="1" stop-color="#B6EA5C"/>
</linearGradient>
</defs>
</svg>
