<svg width="1056" height="301" viewBox="0 0 1056 301" fill="none" xmlns="http://www.w3.org/2000/svg">
<g clip-path="url(#clip0_615:24)">
<path d="M1018.68 268.92H1018.39C1015.72 268.745 1013.23 267.518 1011.47 265.508C1009.7 263.498 1008.81 260.869 1008.98 258.2C1008.98 258.12 1008.98 258.04 1008.98 257.96C1008.94 256.644 1009.15 255.333 1009.62 254.101C1010.08 252.868 1010.78 251.74 1011.68 250.78C1012.59 249.821 1013.67 249.048 1014.87 248.508C1016.07 247.967 1017.36 247.669 1018.68 247.63C1020.6 247.664 1022.47 248.286 1024.03 249.412C1025.59 250.538 1026.77 252.115 1027.41 253.93H1037.07C1036.3 249.977 1034.14 246.43 1030.98 243.93C1027.49 240.924 1022.99 239.339 1018.39 239.49C1013.54 239.504 1008.88 241.412 1005.41 244.807C1001.94 248.202 999.93 252.817 999.81 257.67C999.712 260.24 1000.16 262.802 1001.11 265.19C1002.07 267.578 1003.52 269.738 1005.36 271.53C1008.87 275.009 1013.62 276.961 1018.56 276.96H1018.98C1023.15 276.961 1027.2 275.563 1030.48 272.991C1033.76 270.418 1036.08 266.819 1037.07 262.77H1027.41C1026.75 264.557 1025.56 266.1 1024 267.198C1022.44 268.296 1020.59 268.896 1018.68 268.92V268.92Z" fill="white"/>
<path d="M1052.88 243.71C1051.01 239.262 1048.29 235.218 1044.88 231.8C1041.47 228.386 1037.42 225.669 1032.97 223.8C1028.36 221.839 1023.41 220.839 1018.4 220.86C1013.39 220.846 1008.43 221.846 1003.82 223.8C999.371 225.674 995.327 228.39 991.91 231.8C988.5 235.217 985.784 239.261 983.91 243.71C981.944 248.324 980.924 253.285 980.91 258.3C980.925 263.308 981.945 268.263 983.91 272.87C985.784 277.319 988.5 281.363 991.91 284.78C995.33 288.186 999.373 290.902 1003.82 292.78C1008.43 294.75 1013.39 295.77 1018.4 295.78H1018.47C1023.46 295.761 1028.39 294.741 1032.97 292.78C1037.42 290.911 1041.47 288.194 1044.88 284.78C1048.29 281.362 1051.01 277.318 1052.88 272.87C1054.83 268.26 1055.83 263.305 1055.82 258.3C1055.83 253.288 1054.83 248.326 1052.88 243.71V243.71ZM1045.39 269.71C1043.91 273.187 1041.78 276.348 1039.11 279.02C1036.44 281.701 1033.27 283.837 1029.78 285.31C1026.17 286.84 1022.29 287.622 1018.37 287.61C1014.45 287.626 1010.56 286.844 1006.95 285.31C1003.47 283.836 1000.3 281.7 997.63 279.02C994.953 276.351 992.817 273.19 991.34 269.71C989.821 266.098 989.039 262.219 989.04 258.3C989.04 254.375 989.822 250.489 991.34 246.87C992.813 243.385 994.95 240.22 997.63 237.55C1000.3 234.876 1003.47 232.743 1006.95 231.27V231.27C1010.55 229.751 1014.41 228.969 1018.32 228.97H1018.38C1022.3 228.964 1026.18 229.746 1029.79 231.27C1033.28 232.741 1036.44 234.873 1039.12 237.55C1041.79 240.228 1043.92 243.391 1045.4 246.87C1046.92 250.488 1047.71 254.374 1047.7 258.3C1047.7 262.216 1046.92 266.093 1045.39 269.7V269.71Z" fill="white"/>
<path d="M183.2 23.55C162.89 12.22 134.37 5.96997 98.4301 5.96997H82.29V70.81H107.42C150 70.81 176.17 99.33 176.17 150.89C176.17 203.62 149.61 230.19 107.03 230.19H82.29V295.03H103.51C193.75 295.03 250 245.81 250 150.5C250 91.51 224.22 46.98 183.2 23.55Z" fill="white"/>
<path d="M0 295.03H73.88V230.19H73.83V70.81H73.88V5.96997H0V295.03Z" fill="white"/>
<path d="M402.73 123.55L399.56 122.17L382.51 180.63C397.41 188.05 408.98 197.24 408.98 211.09C408.999 214.737 408.294 218.351 406.907 221.724C405.52 225.096 403.478 228.161 400.9 230.739C398.321 233.318 395.257 235.36 391.884 236.747C388.511 238.134 384.897 238.838 381.25 238.82C362.89 238.82 351.17 223.2 350.78 199.37H277.34V205.63C277.34 267.74 318.75 300.55 381.64 300.55C444.14 300.55 482.42 267.74 482.42 211.88C482.42 173.94 466.4 150.89 402.73 123.55Z" fill="white"/>
<path d="M350.78 167.3C358.6 170.45 366.93 173.56 374.78 177L391.78 118.74C367.48 107.81 355.46 99.9501 355.46 84.8701C355.46 71.9801 367.17 62.2201 380.85 62.2201C395.3 62.2201 403.85 69.6401 407.02 90.3401H480.07C479.68 51.6701 464.83 28.62 433.97 12.61C418.144 4.49334 400.585 0.337811 382.8 0.500058C329.68 0.500058 282.02 36.4401 282.02 85.6601C282.03 123.16 303.51 148.16 350.78 167.3Z" fill="white"/>
<path d="M662.89 109.87C662.89 130.97 652.49 143.87 634.61 148.87L670.87 194.44C709.96 183.39 733.6 148.01 733.6 105.53C733.6 64.53 711.72 30.53 680.47 16.46C665.24 9.81996 642.19 5.92004 612.11 5.92004H595.28V70.76H616.41C644.14 70.81 662.89 84.87 662.89 109.87Z" fill="white"/>
<path d="M701.36 246.34L686.42 227.56L661.72 196.56H661.78L625.29 150.71C622.083 151.082 618.858 151.265 615.63 151.26H588.28V151.06H586.86V5.94995H512.98V295.03H586.86V201.63H589.06L655.86 294.99H740.24L701.38 246.28L701.36 246.34Z" fill="white"/>
<path d="M942.72 5.96997L890.07 186.34L883.61 208.7H883.54L858.34 295.03H921.5L1018.37 5.96997H942.72Z" fill="white"/>
<path d="M824.62 5.96997H748.84L845.33 295.03H849.57L878.83 194.79L824.62 5.96997Z" fill="white"/>
</g>
<defs>
<clipPath id="clip0_615:24">
<rect width="1055.83" height="300" fill="white" transform="translate(0 0.5)"/>
</clipPath>
</defs>
</svg>
