<svg width="190" height="35" viewBox="0 0 190 35" fill="none" xmlns="http://www.w3.org/2000/svg">
<path d="M11.9725 27.3951L5.25649 15.7628C5.08907 15.4728 5.00098 15.1439 5.00098 14.809C5.00098 14.4742 5.08907 14.1453 5.25649 13.8553L11.9725 2.22865C12.1399 1.93866 12.3807 1.69786 12.6707 1.53045C12.9607 1.36303 13.2896 1.27489 13.6245 1.2749H27.0508C27.3856 1.27489 27.7146 1.36303 28.0046 1.53045C28.2946 1.69786 28.5354 1.93866 28.7028 2.22865L35.4415 13.8666L32.1374 15.7742L25.9721 5.10124H14.7486L9.13397 14.8204L15.2993 25.4989L11.9725 27.3951Z" fill="#fff"/>
<path d="M21.817 33.7251H8.36238C8.02753 33.7251 7.69852 33.6369 7.40853 33.4695C7.11854 33.3021 6.87776 33.0613 6.71033 32.7713L0 21.1504L3.29841 19.2429L9.46369 29.9214H20.6816L26.2905 20.1966L20.1309 9.52373L23.4293 7.61621L30.1453 19.2429C30.3127 19.5328 30.4008 19.8618 30.4008 20.1966C30.4008 20.5314 30.3127 20.8604 30.1453 21.1504L23.4293 32.7827C23.2647 33.0655 23.0297 33.301 22.7472 33.4661C22.4647 33.6312 22.1442 33.7205 21.817 33.7251Z" fill="#fff"/>
<path d="M49.1184 22.9556C48.1544 22.4365 47.3513 21.6628 46.7965 20.7188C46.2455 19.7375 45.9561 18.631 45.9561 17.5056C45.9561 16.3802 46.2455 15.2736 46.7965 14.2924C47.3532 13.3464 48.1581 12.5709 49.1241 12.0499C50.0376 11.5789 51.0404 11.3062 52.0666 11.2494C53.0928 11.1927 54.1195 11.3533 55.0793 11.7207C55.8592 12.0297 56.5554 12.5178 57.1118 13.1456L55.9764 14.247C55.5367 13.7757 55.0024 13.4026 54.4086 13.1522C53.8147 12.9017 53.1747 12.7795 52.5303 12.7936C51.668 12.7807 50.817 12.9919 50.0608 13.4067C49.3463 13.8057 48.7567 14.3953 48.3577 15.1098C47.9517 15.8472 47.7388 16.6752 47.7388 17.5169C47.7388 18.3586 47.9517 19.1867 48.3577 19.924C48.756 20.6391 49.3458 21.2289 50.0608 21.6271C50.817 22.042 51.668 22.2532 52.5303 22.2402C53.1763 22.2544 53.8178 22.1305 54.4121 21.877C55.0063 21.6234 55.5396 21.246 55.9764 20.7699L57.1118 21.9053C56.551 22.5346 55.8512 23.0244 55.068 23.3359C54.2313 23.6733 53.336 23.8412 52.4339 23.8298C51.2719 23.8291 50.1297 23.528 49.1184 22.9556Z" fill="white"/>
<path d="M52.4331 23.915C51.2446 23.9362 50.0709 23.6487 49.0268 23.0805C48.0434 22.5544 47.2227 21.769 46.6538 20.8096C46.0882 19.8075 45.791 18.6762 45.791 17.5254C45.791 16.3747 46.0882 15.2434 46.6538 14.2413C47.2262 13.2827 48.0484 12.4978 49.0325 11.9704C49.964 11.4892 50.9869 11.2106 52.0339 11.1529C53.0808 11.0951 54.1281 11.2596 55.107 11.6355C55.9058 11.9526 56.6194 12.4522 57.1905 13.0945L57.2813 13.1967L55.9415 14.4967L55.879 14.3378C55.4525 13.8801 54.9342 13.5176 54.358 13.274C53.7818 13.0305 53.1607 12.9113 52.5352 12.9242C51.697 12.9144 50.8702 13.1196 50.1338 13.5203C49.4391 13.9033 48.862 14.4686 48.4648 15.1553C48.0702 15.8707 47.8632 16.6744 47.8632 17.4914C47.8632 18.3084 48.0702 19.1121 48.4648 19.8275C48.86 20.5172 49.4375 21.0848 50.1338 21.4682C50.8729 21.8589 51.6995 22.0544 52.5352 22.0359C53.1615 22.047 53.783 21.9258 54.3592 21.6803C54.9354 21.4347 55.4533 21.0703 55.879 20.6109L55.9756 20.5087L57.3154 21.8031L57.2245 21.9053C56.6517 22.5523 55.9365 23.0575 55.1353 23.3813C54.2777 23.7329 53.3599 23.9141 52.4331 23.915ZM49.1858 22.8363C50.183 23.3731 51.3007 23.6466 52.4331 23.6311C53.3173 23.6394 54.1946 23.4755 55.0161 23.1486C55.7352 22.8609 56.3824 22.4191 56.9122 21.8542L55.9756 20.9459C55.5258 21.4024 54.9879 21.7627 54.3945 22.0048C53.8011 22.2468 53.1646 22.3655 52.5239 22.3538C51.6377 22.3674 50.7631 22.1502 49.9862 21.7236C49.2434 21.3172 48.6267 20.7142 48.2036 19.9808C47.7867 19.2214 47.5681 18.3691 47.5681 17.5027C47.5681 16.6364 47.7867 15.7841 48.2036 15.0247C48.6283 14.2925 49.2446 13.6899 49.9862 13.2818C50.7645 12.8586 51.6381 12.6417 52.5239 12.6517C53.1638 12.6385 53.7998 12.7554 54.3932 12.9955C54.9865 13.2356 55.5249 13.5937 55.9756 14.0482L56.9122 13.1399C56.3842 12.5795 55.7413 12.1399 55.0275 11.8512C54.2065 11.5304 53.3315 11.3704 52.4501 11.38C51.3142 11.3661 50.1933 11.6395 49.1914 12.1748C48.2481 12.6836 47.4626 13.4416 46.9206 14.3661C46.3809 15.3245 46.0975 16.4058 46.0975 17.5056C46.0975 18.6054 46.3809 19.6867 46.9206 20.645C47.4636 21.5688 48.2488 22.3266 49.1914 22.8363H49.1858Z" fill="white"/>
<path d="M61.556 22.9555C60.581 22.4298 59.7713 21.6436 59.2171 20.6846C58.6589 19.7098 58.3652 18.6061 58.3652 17.4828C58.3652 16.3595 58.6589 15.2557 59.2171 14.2809C59.7736 13.3237 60.5828 12.5381 61.556 12.0101C62.5868 11.4765 63.7306 11.198 64.8913 11.198C66.052 11.198 67.1958 11.4765 68.2266 12.0101C69.1926 12.5311 69.9975 13.3066 70.5542 14.2525C71.1052 15.2338 71.3946 16.3403 71.3946 17.4657C71.3946 18.5912 71.1052 19.6977 70.5542 20.6789C69.9972 21.6231 69.1922 22.3967 68.2266 22.9157C67.1969 23.453 66.0527 23.7336 64.8913 23.7336C63.7299 23.7336 62.5857 23.453 61.556 22.9157V22.9555ZM67.3239 21.5986C68.0363 21.1968 68.6253 20.6079 69.0271 19.8955C69.4331 19.1582 69.646 18.3302 69.646 17.4884C69.646 16.6467 69.4331 15.8187 69.0271 15.0814C68.6248 14.3693 68.036 13.7805 67.3239 13.3782C66.5838 12.9644 65.7477 12.753 64.8998 12.7651C64.0465 12.7529 63.2049 12.9643 62.4587 13.3782C61.7449 13.7782 61.1555 14.3676 60.7555 15.0814C60.3495 15.8187 60.1366 16.6467 60.1366 17.4884C60.1366 18.3302 60.3495 19.1582 60.7555 19.8955C61.1547 20.6099 61.7443 21.1994 62.4587 21.5986C63.2049 22.0126 64.0465 22.224 64.8998 22.2118C65.7419 22.2209 66.5718 22.0095 67.3069 21.5986H67.3239Z" fill="white"/>
<path d="M64.8834 23.9152C63.6954 23.9321 62.5228 23.6449 61.4771 23.0807C60.4879 22.5564 59.6613 21.771 59.0871 20.8099C58.5143 19.8132 58.2129 18.6838 58.2129 17.5342C58.2129 16.3847 58.5143 15.2552 59.0871 14.2585C59.6585 13.2865 60.485 12.4894 61.4771 11.9537C62.5291 11.4063 63.6975 11.1206 64.8834 11.1206C66.0692 11.1206 67.2376 11.4063 68.2896 11.9537C69.2737 12.481 70.0959 13.266 70.6683 14.2245C71.2339 15.2267 71.5311 16.3579 71.5311 17.5087C71.5311 18.6595 71.2339 19.7907 70.6683 20.7929C70.0991 21.7539 69.2761 22.5396 68.2896 23.0637C67.2458 23.6344 66.073 23.9277 64.8834 23.9152ZM61.6077 22.8309C62.6165 23.3568 63.7373 23.6314 64.8749 23.6314C66.0125 23.6314 67.1332 23.3568 68.142 22.8309C69.0861 22.3259 69.8721 21.5694 70.4128 20.6452C70.9525 19.6869 71.2361 18.6057 71.2361 17.5058C71.2361 16.406 70.9525 15.3247 70.4128 14.3664C69.8708 13.4418 69.0853 12.6838 68.142 12.1751C67.1321 11.6529 66.0118 11.3804 64.8749 11.3804C63.7379 11.3804 62.6176 11.6529 61.6077 12.1751C60.665 12.6873 59.8799 13.4469 59.3369 14.3721C58.7932 15.3229 58.5072 16.3992 58.5072 17.4945C58.5072 18.5898 58.7932 19.6661 59.3369 20.6169C59.8783 21.5434 60.6638 22.3033 61.6077 22.8139V22.8309ZM64.8834 22.3541C64.0046 22.3653 63.1381 22.1482 62.3685 21.7239C61.6317 21.3152 61.021 20.7124 60.6028 19.981C60.1823 19.2228 59.9617 18.37 59.9617 17.503C59.9617 16.636 60.1823 15.7832 60.6028 15.025C61.019 14.2935 61.6304 13.6921 62.3685 13.2878C63.1376 12.8616 64.0041 12.6425 64.8834 12.652C65.7557 12.6404 66.6155 12.8597 67.3756 13.2878C68.1064 13.698 68.7125 14.2982 69.1298 15.025C69.5467 15.7844 69.7654 16.6367 69.7654 17.503C69.7654 18.3693 69.5467 19.2216 69.1298 19.981C68.7129 20.7095 68.1068 21.3117 67.3756 21.7239C66.615 22.15 65.7551 22.3674 64.8834 22.3541ZM64.8834 12.9358C64.0543 12.9273 63.2371 13.1326 62.5104 13.5319C61.8184 13.9167 61.2436 14.4817 60.847 15.1669C60.4524 15.8823 60.2455 16.686 60.2455 17.503C60.2455 18.32 60.4524 19.1237 60.847 19.8391C61.2416 20.5273 61.8168 21.0946 62.5104 21.4798C63.2394 21.8699 64.0567 22.0654 64.8834 22.0475C65.703 22.067 66.5134 21.8712 67.2337 21.4798C67.9198 21.0906 68.4885 20.5239 68.8801 19.8391C69.2747 19.1237 69.4816 18.32 69.4816 17.503C69.4816 16.686 69.2747 15.8823 68.8801 15.1669C68.4868 14.4849 67.9184 13.9204 67.2337 13.5319C66.5157 13.1316 65.7054 12.9261 64.8834 12.9358Z" fill="white"/>
<path d="M74.9546 23.3417C74.2069 23.1136 73.5174 22.7262 72.9336 22.2063L73.5808 20.8439C74.1067 21.2978 74.716 21.6449 75.3747 21.8657C76.102 22.132 76.871 22.2665 77.6455 22.2631C78.4364 22.3138 79.2251 22.1343 79.9163 21.7465C80.1484 21.6008 80.3391 21.3979 80.4703 21.1574C80.6015 20.9168 80.6688 20.6466 80.6657 20.3727C80.6725 20.1824 80.6396 19.9928 80.5693 19.8159C80.4989 19.639 80.3925 19.4787 80.2569 19.3451C79.9641 19.0755 79.618 18.8705 79.2408 18.7433C78.6818 18.5563 78.1133 18.399 77.5377 18.2721C76.7794 18.1008 76.0338 17.8769 75.3066 17.6022C74.746 17.3853 74.2471 17.0344 73.8533 16.5804C73.4295 16.0553 73.2151 15.392 73.2515 14.7183C73.2434 14.0896 73.4233 13.4728 73.7681 12.947C74.1577 12.3844 74.7019 11.9467 75.335 11.6867C76.1611 11.3492 77.0487 11.1887 77.9407 11.2155C78.6614 11.2139 79.3791 11.3074 80.0753 11.4937C80.7201 11.6534 81.3313 11.9264 81.8806 12.2998L81.3129 13.7021C80.8031 13.3757 80.2485 13.1252 79.6666 12.9584C79.1138 12.7931 78.5404 12.7071 77.9635 12.7029C77.1787 12.6541 76.3983 12.8527 75.7323 13.2706C75.5011 13.4222 75.3117 13.6296 75.1818 13.8737C75.0518 14.1178 74.9854 14.3907 74.9887 14.6672C74.9812 14.8586 75.0148 15.0493 75.0873 15.2265C75.1598 15.4038 75.2694 15.5634 75.4088 15.6948C75.7088 15.969 76.0626 16.1778 76.4477 16.3079C77.0066 16.4921 77.5751 16.6456 78.1508 16.7677C78.9068 16.9408 79.6503 17.1646 80.3762 17.4376C80.93 17.6557 81.4241 18.002 81.8181 18.4481C82.2409 18.9649 82.4555 19.6208 82.4199 20.2875C82.4272 20.9133 82.2451 21.5268 81.8976 22.0474C81.5032 22.6169 80.9477 23.0557 80.3024 23.3077C79.4695 23.6419 78.5766 23.8004 77.6796 23.7732C76.7536 23.7824 75.8325 23.6366 74.9546 23.3417Z" fill="white"/>
<path d="M77.628 23.9151C76.7039 23.9168 75.7856 23.7692 74.9086 23.478C74.1459 23.249 73.4399 22.8622 72.8365 22.3425L72.7627 22.2687L73.5348 20.6394L73.6767 20.7643C74.1886 21.2085 74.7827 21.548 75.4253 21.7635C76.1315 22.019 76.8769 22.1497 77.628 22.1495C78.3911 22.2034 79.1531 22.0316 79.8193 21.6556C80.0341 21.525 80.211 21.3405 80.3325 21.1204C80.454 20.9004 80.5158 20.6524 80.5119 20.401C80.5197 20.2294 80.4907 20.0581 80.4271 19.8985C80.3635 19.739 80.2666 19.5948 80.1429 19.4756C79.868 19.2191 79.5407 19.0254 79.1835 18.9079C78.6245 18.721 78.056 18.5637 77.4804 18.4367C76.7094 18.2642 75.9507 18.0404 75.2095 17.7668C74.629 17.5379 74.1113 17.174 73.6994 16.7052C73.256 16.1516 73.03 15.4551 73.0636 14.7466C73.0646 14.0888 73.2623 13.4462 73.6313 12.9016C74.0347 12.3157 74.5984 11.8584 75.2549 11.5845C76.1013 11.2407 77.0099 11.0763 77.9231 11.102C78.6571 11.1025 79.388 11.1979 80.0975 11.3858C80.7555 11.5542 81.3796 11.8346 81.9425 12.2147L82.039 12.2771L81.3521 13.9405L81.2102 13.8497C80.7094 13.5333 80.1667 13.2887 79.5979 13.123C79.0451 12.9586 78.4715 12.8744 77.8948 12.8732C77.1434 12.821 76.3941 13.0014 75.7488 13.3898C75.5348 13.5277 75.3594 13.7179 75.2392 13.9424C75.119 14.1669 75.058 14.4183 75.0619 14.6729C75.0531 14.8443 75.082 15.0155 75.1468 15.1744C75.2115 15.3334 75.3105 15.4761 75.4366 15.5925C75.7238 15.85 76.0624 16.0435 76.4301 16.1603C76.9776 16.3437 77.5349 16.4972 78.0992 16.6201C78.8704 16.7918 79.629 17.0156 80.37 17.29C80.945 17.5203 81.4583 17.8819 81.8687 18.3459C82.3116 18.8888 82.5381 19.5763 82.5046 20.2761C82.5035 20.9322 82.3057 21.5729 81.9369 22.1155C81.5264 22.7013 80.9544 23.155 80.2905 23.4212C79.4457 23.7649 78.5398 23.933 77.628 23.9151ZM73.0863 22.212C73.6432 22.6709 74.2858 23.0144 74.9768 23.2225C75.8238 23.5071 76.7117 23.651 77.6052 23.6483C78.4826 23.6731 79.3558 23.5185 80.1713 23.1941C80.7893 22.9492 81.3221 22.5289 81.7041 21.9849C82.0397 21.4811 82.214 20.887 82.2037 20.2818C82.2393 19.6502 82.0367 19.0283 81.636 18.5389C81.2578 18.1061 80.7807 17.7711 80.2451 17.5625C79.5277 17.2901 78.7916 17.07 78.0424 16.9039C77.4665 16.7782 76.8979 16.6209 76.3393 16.4327C75.9345 16.2989 75.5628 16.0802 75.2493 15.7912C75.0945 15.6467 74.9727 15.4704 74.8924 15.2744C74.812 15.0785 74.775 14.8674 74.7838 14.6558C74.7816 14.3567 74.8536 14.0617 74.9933 13.7972C75.1329 13.5327 75.336 13.3069 75.5842 13.14C76.2799 12.7181 77.0885 12.52 77.9005 12.5723C78.4947 12.5745 79.0855 12.6624 79.6547 12.8335C80.1947 12.9881 80.712 13.2134 81.1931 13.5034L81.6644 12.368C81.1518 12.0406 80.5903 11.7972 80.001 11.647C79.3155 11.4658 78.6095 11.3742 77.9005 11.3745C77.0279 11.3468 76.1593 11.5034 75.3515 11.8343C74.7418 12.083 74.2173 12.503 73.8414 13.0435C73.5139 13.5505 73.344 14.1432 73.3531 14.7466C73.3169 15.3869 73.5192 16.018 73.9208 16.5179C74.3009 16.9526 74.7798 17.2894 75.3174 17.5C76.039 17.7714 76.7788 17.9914 77.5314 18.1586C78.2695 18.3345 78.8485 18.4935 79.2346 18.6354C79.631 18.7702 79.9946 18.9868 80.3019 19.2713C80.4528 19.4182 80.5712 19.5952 80.6495 19.7907C80.7277 19.9863 80.764 20.1962 80.756 20.4067C80.7622 20.7039 80.6906 20.9976 80.5482 21.2585C80.4058 21.5195 80.1976 21.7386 79.9442 21.8941C79.2322 22.3119 78.4124 22.5094 77.5882 22.4618C76.8139 22.4575 76.0459 22.3211 75.3174 22.0587C74.701 21.8471 74.1251 21.5323 73.6143 21.1277L73.0863 22.212Z" fill="white"/>
<path d="M96.2884 23.6312V14.7012L91.8602 22.1439H91.054L86.626 14.7637V23.6369H84.9229V11.3801H86.3535L91.4628 19.9923L96.5041 11.3801H97.9403V23.6312H96.2884Z" fill="white"/>
<path d="M98.1112 23.7733H96.1469V15.2179L91.9232 22.2859H90.9581L90.9126 22.2177L86.7514 15.269V23.7846H84.7871V11.2383H86.4448L91.4746 19.7141L96.4364 11.2383H98.0941V11.3802L98.1112 23.7733ZM96.4081 23.4894H97.8046V11.5221H96.5897L91.4803 20.2705L86.2802 11.4994H85.071V23.4667H86.4675V14.2415L91.117 22.002H91.7585L96.4137 14.1904L96.4081 23.4894Z" fill="white"/>
<path d="M103.834 22.9555C102.859 22.4298 102.049 21.6436 101.495 20.6846C100.941 19.7086 100.649 18.6053 100.649 17.4828C100.649 16.3602 100.941 15.257 101.495 14.2809C102.052 13.3237 102.861 12.5381 103.834 12.0101C104.865 11.4765 106.009 11.198 107.169 11.198C108.33 11.198 109.474 11.4765 110.505 12.0101C111.471 12.5311 112.276 13.3066 112.832 14.2525C113.383 15.2338 113.673 16.3403 113.673 17.4657C113.673 18.5912 113.383 19.6977 112.832 20.6789C112.275 21.6231 111.47 22.3967 110.505 22.9157C109.475 23.453 108.331 23.7336 107.169 23.7336C106.008 23.7336 104.864 23.453 103.834 22.9157V22.9555ZM109.602 21.5986C110.314 21.1968 110.903 20.6079 111.305 19.8955C111.711 19.1582 111.924 18.3302 111.924 17.4884C111.924 16.6467 111.711 15.8187 111.305 15.0814C110.903 14.3693 110.314 13.7805 109.602 13.3782C108.862 12.9637 108.026 12.7521 107.178 12.7651C106.325 12.7537 105.483 12.965 104.737 13.3782C104.023 13.7782 103.434 14.3676 103.034 15.0814C102.628 15.8187 102.415 16.6467 102.415 17.4884C102.415 18.3302 102.628 19.1582 103.034 19.8955C103.433 20.6099 104.023 21.1994 104.737 21.5986C105.483 22.0119 106.325 22.2232 107.178 22.2118C108.026 22.2247 108.862 22.0132 109.602 21.5986Z" fill="white"/>
<path d="M107.177 23.9152C105.989 23.9321 104.817 23.6449 103.771 23.0807C102.782 22.5564 101.955 21.771 101.381 20.8099C100.812 19.8119 100.513 18.683 100.513 17.5342C100.513 16.3855 100.812 15.2565 101.381 14.2585C101.952 13.2865 102.779 12.4894 103.771 11.9537C104.823 11.4063 105.991 11.1206 107.177 11.1206C108.363 11.1206 109.531 11.4063 110.583 11.9537C111.567 12.481 112.39 13.266 112.962 14.2245C113.528 15.2267 113.825 16.3579 113.825 17.5087C113.825 18.6595 113.528 19.7907 112.962 20.7929C112.393 21.7539 111.57 22.5396 110.583 23.0637C109.54 23.6344 108.367 23.9277 107.177 23.9152ZM103.901 22.8309C104.91 23.3568 106.031 23.6314 107.169 23.6314C108.306 23.6314 109.427 23.3568 110.436 22.8309C111.38 22.3259 112.166 21.5694 112.707 20.6452C113.246 19.6869 113.53 18.6057 113.53 17.5058C113.53 16.406 113.246 15.3247 112.707 14.3664C112.165 13.4418 111.379 12.6838 110.436 12.1751C109.426 11.6529 108.306 11.3804 107.169 11.3804C106.032 11.3804 104.911 11.6529 103.901 12.1751C102.959 12.6873 102.174 13.4469 101.631 14.3721C101.091 15.3242 100.807 16.4 100.807 17.4945C100.807 18.589 101.091 19.6648 101.631 20.6169C102.172 21.5434 102.958 22.3033 103.901 22.8139V22.8309ZM107.177 22.3541C106.298 22.3653 105.432 22.1482 104.662 21.7239C103.927 21.3136 103.316 20.7112 102.897 19.981C102.476 19.2228 102.256 18.37 102.256 17.503C102.256 16.636 102.476 15.7832 102.897 15.025C103.317 14.2964 103.927 13.6959 104.662 13.2878C105.431 12.8616 106.298 12.6425 107.177 12.652C108.049 12.6404 108.909 12.8597 109.669 13.2878C110.4 13.698 111.006 14.2982 111.424 15.025C111.841 15.7844 112.059 16.6367 112.059 17.503C112.059 18.3693 111.841 19.2216 111.424 19.981C111.007 20.7095 110.401 21.3117 109.669 21.7239C108.909 22.15 108.049 22.3674 107.177 22.3541ZM107.177 12.9358C106.348 12.9273 105.531 13.1326 104.804 13.5319C104.112 13.9167 103.537 14.4817 103.141 15.1669C102.746 15.8823 102.539 16.686 102.539 17.503C102.539 18.32 102.746 19.1237 103.141 19.8391C103.537 20.5261 104.112 21.093 104.804 21.4798C105.533 21.8699 106.35 22.0654 107.177 22.0475C107.997 22.067 108.807 21.8712 109.527 21.4798C110.211 21.0889 110.777 20.5225 111.168 19.8391C111.563 19.1237 111.77 18.32 111.77 17.503C111.77 16.686 111.563 15.8823 111.168 15.1669C110.776 14.4837 110.208 13.9189 109.522 13.5319C108.806 13.1318 107.997 12.9263 107.177 12.9358Z" fill="white"/>
<path d="M117.254 23.3417C116.504 23.1148 115.813 22.7274 115.228 22.2063L115.875 20.8439C116.401 21.2966 117.011 21.6435 117.669 21.8657C118.396 22.132 119.165 22.2665 119.939 22.2631C120.73 22.3144 121.519 22.1349 122.21 21.7465C122.442 21.6008 122.633 21.3979 122.764 21.1574C122.895 20.9168 122.963 20.6466 122.96 20.3727C122.966 20.1824 122.934 19.9928 122.863 19.8159C122.793 19.639 122.687 19.4787 122.551 19.3451C122.258 19.0755 121.912 18.8705 121.535 18.7433C120.976 18.5563 120.407 18.399 119.832 18.2721C119.073 18.1008 118.328 17.8769 117.601 17.6022C117.04 17.3853 116.541 17.0344 116.147 16.5804C115.723 16.0553 115.509 15.392 115.545 14.7183C115.537 14.0896 115.717 13.4728 116.062 12.947C116.452 12.3844 116.996 11.9467 117.629 11.6867C118.455 11.3492 119.343 11.1887 120.235 11.2155C120.955 11.2139 121.673 11.3074 122.369 11.4937C123.014 11.6534 123.625 11.9264 124.175 12.2998L123.607 13.7021C123.097 13.3757 122.542 13.1252 121.961 12.9584C121.408 12.7926 120.834 12.7066 120.257 12.7029C119.473 12.6541 118.692 12.8527 118.026 13.2706C117.796 13.423 117.607 13.6305 117.477 13.8744C117.347 14.1184 117.28 14.3909 117.283 14.6672C117.277 14.8584 117.311 15.0487 117.383 15.2257C117.456 15.4027 117.565 15.5626 117.703 15.6948C118.003 15.969 118.357 16.1778 118.742 16.3079C119.301 16.4913 119.869 16.6448 120.445 16.7677C121.201 16.9408 121.944 17.1646 122.67 17.4376C123.224 17.6557 123.718 18.002 124.112 18.4481C124.535 18.9649 124.749 19.6208 124.714 20.2875C124.721 20.9133 124.539 21.5268 124.192 22.0474C123.797 22.6169 123.242 23.0557 122.596 23.3077C121.764 23.6419 120.871 23.8004 119.974 23.7732C119.049 23.7824 118.13 23.6366 117.254 23.3417Z" fill="white"/>
<path d="M119.923 23.9151C119.001 23.9173 118.084 23.7697 117.209 23.478C116.445 23.2497 115.737 22.8629 115.131 22.3425L115.058 22.2687L115.83 20.6394L115.972 20.7643C116.484 21.2085 117.078 21.548 117.72 21.7635C118.427 22.0186 119.172 22.1492 119.923 22.1495C120.688 22.2035 121.452 22.0318 122.12 21.6556C122.333 21.5235 122.508 21.3385 122.628 21.1187C122.749 20.8988 122.81 20.6516 122.807 20.401C122.815 20.2299 122.786 20.0591 122.724 19.8997C122.661 19.7402 122.566 19.5958 122.443 19.4756C122.166 19.2203 121.837 19.0268 121.478 18.9079C120.92 18.7206 120.351 18.5633 119.775 18.4367C119.004 18.2638 118.246 18.04 117.504 17.7668C116.925 17.5364 116.407 17.1727 115.994 16.7052C115.551 16.1516 115.325 15.4551 115.359 14.7466C115.36 14.0888 115.557 13.4462 115.926 12.9016C116.33 12.3157 116.893 11.8584 117.55 11.5845C118.396 11.2407 119.305 11.0763 120.218 11.102C120.952 11.1025 121.683 11.1979 122.392 11.3858C123.051 11.5532 123.675 11.8336 124.237 12.2147L124.334 12.2771L123.647 13.9405L123.505 13.8497C123.006 13.5333 122.465 13.2887 121.899 13.123C121.345 12.9595 120.772 12.8754 120.195 12.8732C119.444 12.821 118.695 13.0014 118.049 13.3898C117.835 13.5277 117.66 13.7179 117.54 13.9424C117.42 14.1669 117.359 14.4183 117.363 14.6729C117.355 14.8441 117.385 15.0148 117.45 15.1736C117.514 15.3323 117.612 15.4752 117.737 15.5925C118.025 15.8487 118.364 16.0421 118.731 16.1603C119.289 16.3454 119.858 16.499 120.434 16.6201C121.205 16.7914 121.964 17.0153 122.705 17.29C123.281 17.5186 123.794 17.8805 124.203 18.3459C124.649 18.8872 124.876 19.5759 124.839 20.2761C124.838 20.9322 124.64 21.5729 124.271 22.1155C123.86 22.7063 123.283 23.1625 122.614 23.4269C121.76 23.7725 120.844 23.9387 119.923 23.9151ZM115.381 22.212C115.938 22.6709 116.581 23.0144 117.272 23.2225C118.119 23.5071 119.007 23.651 119.9 23.6483C120.778 23.6731 121.651 23.5185 122.466 23.1941C123.084 22.9492 123.617 22.5289 123.999 21.9849C124.335 21.4811 124.509 20.887 124.499 20.2818C124.534 19.6502 124.332 19.0283 123.931 18.5389C123.553 18.1061 123.076 17.7711 122.54 17.5625C121.823 17.2901 121.086 17.07 120.337 16.9039C119.762 16.7767 119.193 16.6194 118.634 16.4327C118.23 16.2975 117.859 16.0789 117.544 15.7912C117.391 15.6458 117.27 15.4693 117.189 15.2736C117.109 15.0778 117.071 14.8672 117.079 14.6558C117.078 14.3569 117.15 14.0623 117.29 13.7979C117.429 13.5336 117.632 13.3077 117.879 13.14C118.575 12.7181 119.383 12.52 120.195 12.5723C120.79 12.5745 121.38 12.6624 121.95 12.8335C122.49 12.9881 123.007 13.2134 123.488 13.5034L123.959 12.368C123.447 12.0406 122.885 11.7972 122.296 11.647C121.61 11.4654 120.904 11.3738 120.195 11.3745C119.323 11.3479 118.455 11.5046 117.646 11.8343C117.039 12.0839 116.516 12.5038 116.142 13.0435C115.81 13.5489 115.638 14.1422 115.648 14.7466C115.615 15.3866 115.816 16.0167 116.216 16.5179C116.596 16.9526 117.075 17.2894 117.612 17.5C118.334 17.7706 119.074 17.9906 119.826 18.1586C120.564 18.3345 121.143 18.4935 121.529 18.6354C121.926 18.7702 122.29 18.9868 122.597 19.2713C122.748 19.4182 122.866 19.5952 122.944 19.7907C123.023 19.9863 123.059 20.1962 123.051 20.4067C123.057 20.7039 122.986 20.9976 122.843 21.2585C122.701 21.5195 122.492 21.7386 122.239 21.8941C121.527 22.3119 120.707 22.5094 119.883 22.4618C119.109 22.4575 118.341 22.3211 117.612 22.0587C116.996 21.8471 116.42 21.5323 115.909 21.1277L115.381 22.212Z" fill="white"/>
<path d="M129.476 12.9016H125.275V11.3801H135.415V12.9016H131.214V23.6312H129.476V12.9016Z" fill="white"/>
<path d="M131.384 23.7733H129.363V13.0436H125.14V11.2383H135.563V13.0436H131.384V23.7733ZM129.647 23.4894H131.101V12.7597H135.302V11.4994H125.446V12.737H129.647V23.4894Z" fill="white"/>
<path d="M144.515 20.5825H138.003L136.658 23.6425H134.853L140.405 11.3914H142.108L147.677 23.6425H145.838L144.515 20.5825ZM143.902 19.1803L141.262 13.174L138.616 19.1803H143.902Z" fill="white"/>
<path d="M147.922 23.7733H145.77L144.425 20.7076H138.101L136.749 23.7733H134.632L140.309 11.2383H142.222L147.922 23.7733ZM145.958 23.4894H147.485L142.046 11.4994H140.496L135.075 23.4667H136.562L137.913 20.4011H144.612L145.958 23.4894ZM144.124 19.3111H138.401L141.24 12.8108L144.124 19.3111ZM138.833 19.0272H143.687L141.263 13.5148L138.833 19.0272Z" fill="white"/>
<path d="M151.345 12.9016H147.144V11.3801H157.277V12.9016H153.076V23.6312H151.373L151.345 12.9016Z" fill="white"/>
<path d="M153.218 23.7733H151.203V13.0436H147.002V11.2383H157.419V13.0436H153.218V23.7733ZM151.515 23.4894H152.957V12.7597H157.158V11.4994H147.28V12.737H151.481L151.515 23.4894Z" fill="white"/>
<path d="M159.202 11.3801H160.956V23.6312H159.202V11.3801Z" fill="white"/>
<path d="M161.081 23.7733H159.043V11.2383H161.081V23.7733ZM159.327 23.4894H160.797V11.4994H159.327V23.4894Z" fill="white"/>
<path d="M166.804 22.9555C165.829 22.4298 165.019 21.6436 164.465 20.6846C163.911 19.7086 163.619 18.6053 163.619 17.4828C163.619 16.3602 163.911 15.257 164.465 14.2809C165.022 13.3237 165.831 12.5381 166.804 12.0101C167.835 11.4765 168.978 11.198 170.139 11.198C171.3 11.198 172.444 11.4765 173.474 12.0101C174.441 12.5297 175.247 13.3055 175.802 14.2525C176.353 15.2338 176.643 16.3403 176.643 17.4657C176.643 18.5912 176.353 19.6977 175.802 20.6789C175.247 21.6244 174.441 22.3984 173.474 22.9157C172.445 23.453 171.301 23.7336 170.139 23.7336C168.978 23.7336 167.834 23.453 166.804 22.9157V22.9555ZM172.572 21.5986C173.284 21.1968 173.873 20.6079 174.275 19.8955C174.685 19.1594 174.9 18.3309 174.9 17.4884C174.9 16.646 174.685 15.8175 174.275 15.0814C173.873 14.3693 173.284 13.7805 172.572 13.3782C171.832 12.9637 170.996 12.7521 170.148 12.7651C169.295 12.7537 168.453 12.965 167.707 13.3782C166.991 13.776 166.401 14.3659 166.003 15.0814C165.594 15.8175 165.379 16.646 165.379 17.4884C165.379 18.3309 165.594 19.1594 166.003 19.8955C166.4 20.6115 166.991 21.2016 167.707 21.5986C168.453 22.0119 169.295 22.2232 170.148 22.2118C170.996 22.2247 171.832 22.0132 172.572 21.5986Z" fill="white"/>
<path d="M170.147 23.9152C168.959 23.9321 167.786 23.6449 166.741 23.0807C165.751 22.5564 164.925 21.771 164.351 20.8099C163.782 19.8119 163.482 18.683 163.482 17.5342C163.482 16.3855 163.782 15.2565 164.351 14.2585C164.922 13.2865 165.749 12.4894 166.741 11.9537C167.793 11.4063 168.961 11.1206 170.147 11.1206C171.333 11.1206 172.501 11.4063 173.553 11.9537C174.537 12.4837 175.36 13.2679 175.937 14.2245C176.499 15.2279 176.794 16.3587 176.794 17.5087C176.794 18.6587 176.499 19.7895 175.937 20.7929C175.364 21.7529 174.54 22.5381 173.553 23.0637C172.509 23.6344 171.336 23.9277 170.147 23.9152ZM166.871 22.8309C167.88 23.3568 169.001 23.6314 170.138 23.6314C171.276 23.6314 172.397 23.3568 173.406 22.8309C174.351 22.3276 175.137 21.5707 175.676 20.6452C176.216 19.6869 176.499 18.6057 176.499 17.5058C176.499 16.406 176.216 15.3247 175.676 14.3664C175.136 13.4407 174.35 12.6824 173.406 12.1751C172.396 11.6529 171.275 11.3804 170.138 11.3804C169.001 11.3804 167.881 11.6529 166.871 12.1751C165.929 12.6873 165.143 13.4469 164.6 14.3721C164.06 15.3242 163.777 16.4 163.777 17.4945C163.777 18.589 164.06 19.6648 164.6 20.6169C165.142 21.5434 165.927 22.3033 166.871 22.8139V22.8309ZM170.147 22.3541C169.27 22.3661 168.405 22.1489 167.638 21.7239C166.899 21.3156 166.287 20.7128 165.866 19.981C165.446 19.2228 165.225 18.37 165.225 17.503C165.225 16.636 165.446 15.7832 165.866 15.025C166.287 14.2949 166.9 13.6941 167.638 13.2878C168.404 12.8611 169.269 12.6419 170.147 12.652C171.019 12.6404 171.879 12.8597 172.639 13.2878C173.37 13.698 173.976 14.2982 174.393 15.025C174.81 15.7844 175.029 16.6367 175.029 17.503C175.029 18.3693 174.81 19.2216 174.393 19.981C173.976 20.7095 173.37 21.3117 172.639 21.7239C171.878 22.15 171.019 22.3674 170.147 22.3541ZM170.147 12.9358C169.318 12.9273 168.5 13.1326 167.774 13.5319C167.082 13.9167 166.507 14.4817 166.11 15.1669C165.716 15.8823 165.509 16.686 165.509 17.503C165.509 18.32 165.716 19.1237 166.11 19.8391C166.507 20.5261 167.081 21.093 167.774 21.4798C168.503 21.8692 169.32 22.0647 170.147 22.0475C170.968 22.0661 171.78 21.8705 172.503 21.4798C173.187 21.0905 173.754 20.5236 174.143 19.8391C174.538 19.1237 174.745 18.32 174.745 17.503C174.745 16.686 174.538 15.8823 174.143 15.1669C173.752 14.4853 173.186 13.9208 172.503 13.5319C171.783 13.1316 170.971 12.9262 170.147 12.9358Z" fill="white"/>
<path d="M189.858 11.3801V23.6312H188.422L181.041 14.4912V23.6312H179.293V11.3801H180.775L188.155 20.5145V11.3801H189.858Z" fill="white"/>
<path d="M190 23.7733H188.354L188.314 23.7222L181.212 14.9057V23.7846H179.18V11.2383H180.826L180.866 11.2894L187.968 20.1115V11.2383H190V23.7733ZM188.49 23.4894H189.716V11.4994H188.252V20.895L180.69 11.4994H179.464V23.4667H180.928V14.0882L188.49 23.4894Z" fill="white"/>
<path d="M72.4191 9.18904L56.8477 24.7605L57.8954 25.8082L73.4669 10.2368L72.4191 9.18904Z" fill="white"/>
<path d="M57.8945 26.0157L56.6455 24.7667L72.4164 8.99585L73.6653 10.2448L57.8945 26.0157ZM57.0486 24.7667L57.8945 25.6126L73.2623 10.2448L72.4164 9.39322L57.0486 24.7667Z" fill="white"/>
</svg>
