<svg width="1070" height="528" viewBox="0 0 1070 528" fill="none" xmlns="http://www.w3.org/2000/svg">
<g opacity="0.2">
<path d="M63.8989 411.289L53.9065 417.054C53.0426 417.556 52.397 418.362 52.0964 419.314C51.7958 420.267 51.8618 421.298 52.2814 422.204L55.1034 428.243C55.3783 428.841 55.797 429.362 56.322 429.758C56.8469 430.155 57.4619 430.415 58.1121 430.516L74.2426 433.009C75.1433 433.149 76.0648 432.979 76.856 432.526L86.8373 426.75C87.6935 426.255 88.3351 425.459 88.6375 424.518C88.9399 423.576 88.8814 422.556 88.4734 421.655L85.6295 415.561C85.3505 414.965 84.9291 414.447 84.4025 414.052C83.8758 413.658 83.2601 413.399 82.6098 413.299L66.4793 410.806C65.5893 410.671 64.6798 410.841 63.8989 411.289ZM92.3276 427.705L82.3353 433.481C81.4703 433.979 80.8234 434.783 80.5225 435.734C80.2216 436.686 80.2886 437.716 80.7102 438.62L83.5432 444.714C83.8203 445.309 84.2398 445.827 84.7645 446.222C85.2893 446.616 85.9031 446.875 86.5518 446.976L102.682 449.469C103.58 449.61 104.498 449.439 105.285 448.986L115.277 443.21C116.142 442.712 116.789 441.908 117.09 440.957C117.391 440.005 117.324 438.976 116.902 438.071L114.08 431.988C113.803 431.393 113.384 430.875 112.859 430.48C112.334 430.086 111.72 429.827 111.072 429.726L94.941 427.233C94.0416 427.09 93.1201 427.256 92.3276 427.705ZM74.583 388.713L64.5906 394.489C63.7112 394.99 63.0544 395.805 62.7528 396.771C62.4511 397.737 62.5272 398.782 62.9655 399.694L65.7875 405.777C66.0657 406.374 66.4869 406.892 67.0137 407.287C67.5404 407.681 68.1565 407.94 68.8072 408.039L84.9267 410.532C85.8274 410.672 86.749 410.501 87.5401 410.048L97.5324 404.273C98.3956 403.773 99.0408 402.969 99.3415 402.018C99.6422 401.068 99.5766 400.039 99.1576 399.134L96.3356 393.051C96.0645 392.444 95.6465 391.914 95.1192 391.51C94.592 391.105 93.9722 390.838 93.3159 390.734L77.1854 388.241C76.2895 388.099 75.3717 388.265 74.583 388.713ZM103.023 405.184L93.0304 410.949C92.1673 411.448 91.522 412.252 91.2213 413.203C90.9207 414.154 90.9863 415.183 91.4053 416.088L94.2273 422.171C94.5028 422.767 94.9219 423.286 95.4469 423.681C95.9719 424.076 96.5866 424.334 97.236 424.433L113.366 426.926C114.267 427.066 115.189 426.895 115.98 426.443L125.972 420.678C126.836 420.176 127.482 419.37 127.782 418.418C128.083 417.465 128.017 416.434 127.597 415.528L124.775 409.456C124.496 408.859 124.075 408.339 123.549 407.943C123.022 407.547 122.406 407.286 121.756 407.183L105.625 404.69C104.727 404.548 103.807 404.722 103.023 405.184ZM131.463 421.6L121.47 427.365C120.605 427.863 119.958 428.667 119.657 429.618C119.356 430.57 119.423 431.599 119.845 432.504L122.667 438.587C122.943 439.183 123.362 439.702 123.887 440.097C124.412 440.492 125.026 440.75 125.676 440.849L141.806 443.353C142.708 443.489 143.63 443.315 144.42 442.859L154.401 437.094C155.266 436.596 155.913 435.792 156.214 434.841C156.515 433.889 156.448 432.859 156.026 431.955L153.204 425.872C152.927 425.275 152.507 424.757 151.983 424.36C151.458 423.964 150.845 423.702 150.195 423.599L134.065 421.106C133.17 420.958 132.252 421.121 131.463 421.567V421.6ZM113.63 382.575L103.638 388.351C102.775 388.85 102.129 389.654 101.829 390.605C101.528 391.556 101.594 392.585 102.013 393.49L104.835 399.573C105.105 400.178 105.521 400.707 106.046 401.112C106.571 401.516 107.189 401.784 107.843 401.89L123.974 404.383C124.874 404.522 125.796 404.352 126.587 403.899L136.569 398.124C137.435 397.628 138.085 396.824 138.388 395.873C138.691 394.921 138.625 393.89 138.205 392.985L135.383 386.901C135.101 386.307 134.679 385.791 134.153 385.396C133.627 385.002 133.012 384.742 132.363 384.639L116.232 382.125C115.339 381.974 114.421 382.133 113.63 382.575ZM142.059 399.046L132.077 404.811C131.212 405.308 130.566 406.112 130.265 407.064C129.964 408.015 130.031 409.045 130.452 409.95L133.274 416.033C133.55 416.629 133.969 417.148 134.494 417.543C135.019 417.937 135.634 418.196 136.283 418.295L152.414 420.788C153.311 420.929 154.229 420.758 155.016 420.304L165.008 414.54C165.874 414.04 166.521 413.234 166.822 412.281C167.123 411.327 167.056 410.296 166.633 409.39L163.811 403.317C163.536 402.72 163.118 402.199 162.593 401.803C162.068 401.406 161.453 401.146 160.803 401.044L144.672 398.552C143.775 398.396 142.852 398.556 142.059 399.002V399.046ZM227.378 448.349L217.386 454.114C216.522 454.615 215.876 455.421 215.576 456.374C215.275 457.326 215.341 458.357 215.761 459.264L218.583 465.336C218.858 465.934 219.276 466.454 219.801 466.851C220.326 467.247 220.941 467.508 221.591 467.609L237.722 469.97C238.623 470.11 239.544 469.939 240.335 469.487L250.328 463.711C251.191 463.211 251.836 462.407 252.137 461.456C252.437 460.506 252.372 459.477 251.953 458.572L249.131 452.489C248.849 451.894 248.427 451.378 247.901 450.983C247.375 450.589 246.76 450.329 246.111 450.227L229.981 447.734C229.08 447.604 228.161 447.786 227.378 448.25V448.349ZM95.8744 343.594L85.882 349.37C85.0189 349.869 84.3736 350.673 84.073 351.624C83.7723 352.575 83.8379 353.604 84.2569 354.509L87.0789 360.592C87.3602 361.186 87.7823 361.703 88.3085 362.097C88.8348 362.491 89.4492 362.751 90.0986 362.854L106.229 365.346C107.126 365.487 108.044 365.316 108.831 364.863L118.824 359.088C119.687 358.588 120.332 357.784 120.633 356.833C120.934 355.882 120.868 354.854 120.449 353.949L117.627 347.865C117.35 347.27 116.93 346.753 116.406 346.358C115.881 345.963 115.267 345.704 114.618 345.603L98.4878 343.111C97.5871 342.971 96.6655 343.141 95.8744 343.594ZM152.754 376.437L142.762 382.202C141.898 382.701 141.253 383.505 140.952 384.456C140.652 385.407 140.717 386.436 141.136 387.341L143.958 393.424C144.234 394.02 144.653 394.539 145.178 394.934C145.703 395.328 146.318 395.587 146.967 395.686L163.098 398.189C164 398.326 164.921 398.152 165.711 397.695L175.703 391.931C176.567 391.431 177.212 390.627 177.512 389.676C177.813 388.725 177.748 387.697 177.329 386.792L174.507 380.708C174.226 380.113 173.804 379.594 173.278 379.198C172.752 378.802 172.137 378.54 171.487 378.435L155.356 375.943C154.458 375.807 153.54 375.981 152.754 376.437ZM181.161 392.853L171.168 398.618C170.303 399.115 169.657 399.919 169.356 400.871C169.055 401.822 169.122 402.852 169.543 403.757L172.365 409.84C172.64 410.438 173.059 410.958 173.584 411.355C174.109 411.751 174.724 412.012 175.374 412.113L191.504 414.605C192.406 414.742 193.328 414.568 194.118 414.111L204.099 408.347C204.964 407.849 205.611 407.045 205.912 406.093C206.213 405.142 206.146 404.112 205.724 403.208L202.902 397.124C202.627 396.528 202.208 396.009 201.683 395.615C201.158 395.22 200.543 394.961 199.894 394.862L183.763 392.359C182.865 392.221 181.946 392.395 181.161 392.853ZM266.469 442.211L256.477 447.976C255.614 448.475 254.968 449.279 254.668 450.23C254.367 451.181 254.433 452.21 254.852 453.114L257.674 459.198C257.949 459.794 258.368 460.313 258.893 460.707C259.418 461.102 260.033 461.361 260.682 461.46L276.813 463.952C277.714 464.092 278.635 463.922 279.426 463.469L289.419 457.704C290.282 457.205 290.927 456.401 291.228 455.45C291.528 454.499 291.463 453.47 291.044 452.565L288.222 446.482C287.944 445.884 287.523 445.364 286.997 444.967C286.47 444.571 285.853 444.31 285.202 444.209L269.071 441.717C268.195 441.552 267.289 441.692 266.502 442.112L266.469 442.211ZM106.493 321.029L96.5003 326.794C95.6363 327.295 94.9908 328.101 94.6902 329.054C94.3895 330.006 94.4555 331.037 94.8751 331.943L97.7081 338.016C97.9857 338.614 98.4065 339.134 98.9332 339.531C99.46 339.927 100.076 340.187 100.728 340.289L116.858 342.781C117.756 342.921 118.674 342.751 119.461 342.298L129.453 336.522C130.316 336.023 130.961 335.219 131.262 334.268C131.563 333.317 131.497 332.288 131.078 331.383L128.256 325.3C127.981 324.704 127.562 324.185 127.037 323.791C126.512 323.396 125.897 323.137 125.248 323.038L109.117 320.546C108.213 320.403 107.287 320.574 106.493 321.029ZM134.932 337.445L124.94 343.221C124.077 343.72 123.432 344.524 123.131 345.475C122.83 346.426 122.896 347.455 123.315 348.359L126.137 354.443C126.414 355.038 126.834 355.556 127.358 355.95C127.883 356.345 128.497 356.604 129.146 356.705L145.276 359.197C146.177 359.337 147.098 359.167 147.89 358.714L157.882 352.938C158.745 352.439 159.39 351.635 159.691 350.684C159.992 349.733 159.926 348.704 159.507 347.799L156.685 341.716C156.407 341.12 155.986 340.601 155.459 340.206C154.932 339.812 154.316 339.553 153.665 339.454L137.535 336.962C136.634 336.819 135.712 336.99 134.921 337.445H134.932ZM163.372 353.861L153.38 359.637C152.517 360.136 151.871 360.94 151.571 361.891C151.27 362.842 151.336 363.871 151.755 364.775L154.577 370.859C154.852 371.455 155.271 371.974 155.796 372.368C156.321 372.763 156.936 373.022 157.585 373.121L173.716 375.613C174.617 375.753 175.538 375.583 176.329 375.13L186.311 369.365C187.177 368.866 187.824 368.06 188.127 367.108C188.43 366.155 188.365 365.123 187.947 364.215L185.125 358.143C184.846 357.546 184.424 357.027 183.898 356.631C183.371 356.234 182.756 355.973 182.105 355.87L165.975 353.378C165.074 353.234 164.151 353.405 163.361 353.861H163.372ZM191.801 370.332L181.82 376.096C180.955 376.594 180.308 377.398 180.007 378.35C179.706 379.301 179.773 380.331 180.194 381.235L183.016 387.319C183.292 387.915 183.711 388.434 184.236 388.828C184.761 389.223 185.376 389.482 186.025 389.581L202.145 392.007C203.043 392.145 203.962 391.971 204.747 391.513L214.739 385.748C215.604 385.251 216.251 384.447 216.552 383.495C216.853 382.544 216.786 381.514 216.365 380.609L213.543 374.526C213.265 373.93 212.846 373.411 212.321 373.015C211.797 372.619 211.183 372.357 210.534 372.253L194.403 369.761C193.498 369.634 192.576 369.82 191.79 370.288L191.801 370.332ZM248.681 403.164L238.688 408.928C237.824 409.43 237.179 410.236 236.878 411.189C236.577 412.141 236.643 413.172 237.063 414.078L239.885 420.151C240.161 420.75 240.581 421.271 241.108 421.668C241.635 422.065 242.253 422.324 242.905 422.424L259.035 424.916C259.932 425.055 260.85 424.885 261.638 424.433L271.63 418.657C272.493 418.158 273.138 417.354 273.439 416.403C273.74 415.452 273.674 414.423 273.255 413.518L270.422 407.38C270.146 406.783 269.725 406.263 269.198 405.868C268.671 405.473 268.054 405.216 267.402 405.118L251.283 402.626C250.381 402.489 249.459 402.663 248.67 403.12L248.681 403.164ZM277.12 419.58L267.128 425.355C266.276 425.852 265.638 426.646 265.336 427.584C265.034 428.523 265.09 429.539 265.492 430.439L268.314 436.523C268.591 437.118 269.01 437.636 269.535 438.03C270.06 438.425 270.674 438.684 271.322 438.785L287.453 441.277C288.354 441.417 289.275 441.247 290.066 440.794L300.059 435.018C300.922 434.519 301.567 433.715 301.868 432.764C302.169 431.813 302.103 430.784 301.684 429.879L298.862 423.851C298.581 423.257 298.158 422.74 297.632 422.346C297.106 421.952 296.492 421.692 295.842 421.589L279.712 419.097C278.82 418.943 277.902 419.098 277.109 419.536L277.12 419.58ZM145.606 314.88L135.613 320.655C134.742 321.148 134.088 321.949 133.779 322.9C133.47 323.852 133.529 324.884 133.944 325.794L136.766 331.878C137.045 332.474 137.467 332.992 137.993 333.386C138.52 333.781 139.135 334.039 139.786 334.14L155.916 336.632C156.813 336.772 157.732 336.602 158.519 336.149L168.511 330.384C169.375 329.883 170.021 329.077 170.321 328.124C170.622 327.171 170.556 326.141 170.136 325.234L167.314 319.162C167.039 318.564 166.621 318.044 166.096 317.647C165.571 317.251 164.956 316.99 164.306 316.889L148.219 314.396C147.318 314.257 146.397 314.427 145.606 314.88ZM174.045 331.351L164.053 337.115C163.19 337.615 162.545 338.419 162.244 339.37C161.943 340.321 162.009 341.349 162.428 342.254L165.25 348.338C165.525 348.934 165.944 349.452 166.469 349.847C166.995 350.242 167.609 350.5 168.259 350.6L184.389 353.103C185.291 353.24 186.213 353.066 187.002 352.609L196.995 346.844C197.858 346.345 198.503 345.541 198.804 344.59C199.105 343.639 199.039 342.61 198.62 341.705L195.798 335.622C195.522 335.023 195.102 334.502 194.575 334.105C194.048 333.708 193.43 333.448 192.778 333.349L176.648 330.856C175.754 330.708 174.837 330.867 174.045 331.307V331.351ZM202.485 347.767L192.493 353.531C191.63 354.031 190.984 354.835 190.684 355.786C190.383 356.736 190.449 357.765 190.868 358.67L193.69 364.754C193.965 365.351 194.383 365.872 194.908 366.268C195.433 366.665 196.048 366.925 196.698 367.026L212.829 369.519C213.731 369.656 214.652 369.482 215.442 369.025L225.435 363.26C226.298 362.761 226.943 361.957 227.244 361.006C227.544 360.055 227.479 359.026 227.06 358.121L224.238 352.038C223.959 351.442 223.537 350.924 223.011 350.529C222.484 350.135 221.868 349.876 221.218 349.776L205.087 347.272C204.194 347.123 203.276 347.282 202.485 347.723V347.767ZM344.673 429.901L334.681 435.666C333.816 436.164 333.169 436.968 332.868 437.919C332.567 438.871 332.634 439.901 333.055 440.805L335.877 446.888C336.152 447.486 336.571 448.007 337.096 448.403C337.621 448.8 338.236 449.06 338.886 449.161L355.017 451.654C355.919 451.796 356.842 451.621 357.63 451.16L367.611 445.395C368.478 444.899 369.127 444.095 369.428 443.143C369.729 442.191 369.661 441.16 369.237 440.256L366.415 434.173C366.139 433.577 365.72 433.058 365.195 432.663C364.67 432.268 364.055 432.01 363.406 431.911L347.275 429.341C346.379 429.197 345.461 429.364 344.673 429.814V429.901ZM373.102 446.317L363.12 452.082C362.253 452.58 361.604 453.386 361.303 454.34C361.002 455.294 361.07 456.326 361.495 457.232L364.317 463.304C364.592 463.902 365.011 464.423 365.536 464.819C366.061 465.216 366.676 465.476 367.326 465.577L383.456 468.07C384.354 468.211 385.272 468.04 386.059 467.587L396.051 461.811C396.916 461.313 397.563 460.509 397.864 459.558C398.165 458.606 398.098 457.577 397.676 456.672L394.854 450.589C394.577 449.994 394.158 449.476 393.633 449.082C393.108 448.687 392.494 448.428 391.846 448.327L375.715 445.834C374.824 445.668 373.903 445.807 373.102 446.23V446.317ZM401.542 462.733L391.549 468.509C390.686 469.009 390.041 469.813 389.74 470.764C389.439 471.714 389.505 472.743 389.924 473.648L392.746 479.731C393.027 480.326 393.449 480.842 393.976 481.236C394.502 481.631 395.116 481.891 395.766 481.993L411.896 484.486C412.793 484.626 413.712 484.456 414.499 484.003L424.491 478.238C425.355 477.737 426 476.931 426.301 475.978C426.602 475.025 426.536 473.995 426.116 473.088L423.294 467.005C423.017 466.41 422.597 465.892 422.073 465.498C421.548 465.103 420.934 464.844 420.285 464.743L404.155 462.25C403.264 462.084 402.343 462.223 401.542 462.646V462.733ZM213.092 325.157L203.1 330.922C202.237 331.422 201.592 332.226 201.291 333.177C200.99 334.127 201.056 335.156 201.475 336.061L204.297 342.144C204.572 342.741 204.991 343.259 205.517 343.654C206.042 344.049 206.656 344.307 207.306 344.406L223.436 346.91C224.338 347.047 225.26 346.872 226.049 346.416L236.031 340.651C236.898 340.155 237.547 339.352 237.85 338.4C238.153 337.449 238.088 336.418 237.667 335.512L234.834 329.418C234.559 328.82 234.14 328.3 233.615 327.903C233.09 327.507 232.475 327.246 231.825 327.145L215.695 324.652C214.795 324.518 213.876 324.696 213.092 325.157ZM241.554 341.573L231.573 347.338C230.702 347.831 230.048 348.632 229.741 349.584C229.434 350.536 229.496 351.569 229.915 352.477L232.737 358.56C233.012 359.158 233.43 359.679 233.955 360.075C234.48 360.472 235.095 360.732 235.745 360.833L251.876 363.326C252.774 363.464 253.693 363.289 254.478 362.832L264.471 357.067C265.336 356.569 265.982 355.765 266.283 354.814C266.584 353.862 266.517 352.833 266.096 351.928L263.274 345.889C263 345.279 262.577 344.748 262.043 344.344C261.509 343.941 260.883 343.679 260.221 343.583L244.091 341.079C243.214 340.96 242.322 341.134 241.554 341.573ZM412.149 440.113L402.156 445.878C401.293 446.38 400.647 447.186 400.346 448.138C400.046 449.091 400.112 450.122 400.531 451.028L403.353 457.1C403.629 457.7 404.05 458.221 404.577 458.618C405.104 459.014 405.721 459.274 406.373 459.373L422.504 461.866C423.401 462.006 424.319 461.836 425.106 461.383L435.098 455.607C435.961 455.108 436.607 454.303 436.907 453.353C437.208 452.402 437.142 451.373 436.723 450.468L433.901 444.385C433.624 443.79 433.205 443.272 432.68 442.878C432.155 442.483 431.541 442.224 430.893 442.123L414.762 439.63C413.865 439.48 412.944 439.639 412.149 440.08V440.113ZM440.589 456.584L430.596 462.36C429.733 462.86 429.088 463.664 428.787 464.614C428.486 465.565 428.552 466.594 428.971 467.499L431.793 473.582C432.07 474.177 432.49 474.695 433.014 475.09C433.539 475.484 434.153 475.743 434.802 475.844L450.932 478.337C451.833 478.477 452.755 478.306 453.546 477.854L463.538 472.089C464.402 471.587 465.048 470.781 465.348 469.829C465.649 468.876 465.583 467.846 465.163 466.939L462.341 460.856C462.063 460.259 461.642 459.741 461.115 459.346C460.588 458.951 459.972 458.693 459.321 458.594L443.191 456.101C442.304 455.934 441.386 456.074 440.589 456.496V456.584ZM469.028 473.055L459.036 478.82C458.173 479.319 457.528 480.124 457.227 481.074C456.926 482.025 456.992 483.054 457.411 483.959L460.233 490.042C460.508 490.638 460.927 491.157 461.452 491.552C461.978 491.947 462.592 492.205 463.242 492.304L479.372 494.797C480.273 494.937 481.194 494.766 481.985 494.314L491.967 488.549C492.832 488.051 493.479 487.248 493.782 486.297C494.085 485.346 494.021 484.316 493.603 483.41L490.814 477.195C490.539 476.597 490.12 476.077 489.595 475.68C489.07 475.284 488.455 475.023 487.805 474.922L471.675 472.429C470.762 472.276 469.824 472.451 469.028 472.923V473.055ZM497.457 489.471L487.52 495.104C486.655 495.602 486.008 496.406 485.707 497.357C485.406 498.309 485.473 499.339 485.895 500.243L488.717 506.326C488.992 506.923 489.411 507.441 489.936 507.836C490.461 508.231 491.076 508.489 491.725 508.588L507.856 511.092C508.754 511.23 509.673 511.055 510.458 510.598L520.451 504.833C521.316 504.335 521.962 503.531 522.263 502.58C522.564 501.628 522.497 500.599 522.076 499.694L519.254 493.611C518.978 493.015 518.559 492.496 518.034 492.101C517.509 491.706 516.894 491.448 516.245 491.349L500.114 488.845C499.198 488.698 498.259 488.873 497.457 489.339V489.471ZM525.952 505.755L515.959 511.52C515.096 512.02 514.451 512.824 514.15 513.775C513.85 514.725 513.915 515.754 514.334 516.659L517.156 522.742C517.436 523.339 517.857 523.859 518.383 524.255C518.91 524.651 519.525 524.912 520.176 525.015L536.306 527.508C537.205 527.65 538.125 527.476 538.909 527.014L548.901 521.249C549.764 520.75 550.41 519.946 550.71 518.995C551.011 518.044 550.945 517.015 550.526 516.11L547.704 510.027C547.429 509.431 547.01 508.912 546.485 508.517C545.96 508.122 545.345 507.864 544.696 507.765L528.565 505.272C527.665 505.132 526.743 505.303 525.952 505.755ZM195.436 286.143L185.443 291.908C184.58 292.408 183.935 293.212 183.634 294.163C183.333 295.113 183.399 296.142 183.818 297.047L186.64 303.13C186.918 303.727 187.339 304.246 187.866 304.64C188.393 305.035 189.009 305.293 189.66 305.392L205.79 307.896C206.689 308.032 207.607 307.858 208.393 307.402L218.385 301.637C219.248 301.138 219.893 300.334 220.194 299.383C220.495 298.432 220.429 297.403 220.01 296.498L217.188 290.415C216.913 289.817 216.495 289.297 215.97 288.9C215.445 288.503 214.83 288.243 214.179 288.142L198.049 285.649C197.111 285.499 196.15 285.686 195.337 286.176L195.436 286.143ZM280.744 335.391L270.762 341.167C269.897 341.665 269.251 342.469 268.95 343.42C268.649 344.372 268.716 345.402 269.137 346.306L271.861 352.477C272.138 353.072 272.557 353.59 273.082 353.985C273.607 354.379 274.221 354.638 274.869 354.739L290.967 357.177C291.864 357.318 292.782 357.147 293.569 356.694L303.562 350.918C304.436 350.429 305.095 349.629 305.406 348.677C305.717 347.725 305.659 346.69 305.242 345.779L302.42 339.696C302.142 339.101 301.723 338.583 301.198 338.188C300.673 337.794 300.06 337.535 299.411 337.434L283.28 334.908C282.369 334.773 281.438 334.955 280.645 335.424L280.744 335.391ZM422.932 417.482L412.852 423.291C411.985 423.787 411.336 424.591 411.035 425.543C410.734 426.495 410.802 427.526 411.226 428.43L414.048 434.513C414.326 435.108 414.745 435.626 415.27 436.021C415.795 436.415 416.408 436.674 417.057 436.775L433.188 439.224C434.085 439.365 435.003 439.194 435.79 438.741L445.782 432.976C446.648 432.476 447.295 431.67 447.596 430.717C447.897 429.764 447.83 428.732 447.408 427.826L444.586 421.743C444.308 421.148 443.889 420.63 443.364 420.236C442.839 419.841 442.226 419.582 441.577 419.481L425.446 416.988C424.541 416.861 423.619 417.047 422.833 417.515L422.932 417.482ZM451.372 433.953L441.379 439.718C440.516 440.218 439.871 441.022 439.57 441.972C439.269 442.923 439.335 443.952 439.754 444.857L442.576 450.94C442.854 451.537 443.275 452.055 443.802 452.45C444.329 452.845 444.945 453.103 445.596 453.202L461.627 455.695C462.525 455.835 463.443 455.665 464.23 455.212L474.222 449.447C475.085 448.947 475.731 448.143 476.031 447.193C476.332 446.242 476.266 445.213 475.847 444.308L473.025 438.225C472.75 437.627 472.332 437.107 471.807 436.71C471.282 436.313 470.667 436.053 470.017 435.952L453.886 433.459C452.989 433.316 452.07 433.487 451.284 433.942L451.372 433.953ZM479.811 450.369L469.819 456.134C468.956 456.634 468.311 457.438 468.01 458.388C467.709 459.339 467.775 460.368 468.194 461.273L471.016 467.356C471.291 467.953 471.71 468.471 472.235 468.866C472.76 469.261 473.375 469.519 474.025 469.618L490.056 472.166C490.958 472.302 491.88 472.128 492.67 471.672L502.662 465.907C503.525 465.407 504.17 464.603 504.471 463.652C504.772 462.702 504.706 461.673 504.287 460.768L501.465 454.597C501.185 454.018 500.769 453.516 500.253 453.134C499.737 452.751 499.135 452.5 498.5 452.401L482.37 449.897C481.457 449.739 480.518 449.902 479.712 450.358L479.811 450.369ZM508.251 466.785L498.259 472.55C497.396 473.05 496.75 473.854 496.45 474.804C496.149 475.755 496.215 476.784 496.634 477.689L499.456 483.772C499.731 484.37 500.149 484.89 500.674 485.287C501.199 485.684 501.814 485.944 502.464 486.045L518.595 488.538C519.497 488.68 520.42 488.505 521.208 488.044L531.19 482.279C532.056 481.783 532.706 480.98 533.009 480.028C533.312 479.077 533.246 478.046 532.826 477.14L529.905 471.068C529.626 470.472 529.204 469.954 528.678 469.559C528.151 469.165 527.535 468.906 526.885 468.806L510.755 466.302C509.859 466.165 508.943 466.331 508.152 466.774L508.251 466.785ZM206.043 263.644L196.05 269.42C195.183 269.904 194.526 270.694 194.21 271.636C193.893 272.578 193.938 273.605 194.337 274.515L197.16 280.598C197.436 281.196 197.857 281.715 198.384 282.11C198.911 282.505 199.528 282.763 200.179 282.86L216.299 285.353C217.196 285.493 218.114 285.322 218.901 284.87L228.893 279.105C229.757 278.603 230.403 277.797 230.704 276.845C231.004 275.892 230.938 274.861 230.519 273.955L227.697 267.927C227.422 267.329 227.003 266.808 226.478 266.412C225.953 266.015 225.338 265.755 224.688 265.654L208.612 263.117C207.694 262.964 206.751 263.135 205.944 263.6L206.043 263.644ZM234.483 280.115L224.49 285.88C223.627 286.379 222.982 287.183 222.681 288.134C222.38 289.085 222.446 290.114 222.865 291.019L225.687 297.102C225.963 297.698 226.382 298.217 226.907 298.612C227.432 299.006 228.046 299.265 228.696 299.364L244.826 301.868C245.728 302.004 246.65 301.83 247.44 301.373L257.432 295.609C258.295 295.109 258.94 294.305 259.241 293.354C259.542 292.404 259.476 291.375 259.057 290.47L256.235 284.386C255.958 283.788 255.537 283.268 255.01 282.872C254.483 282.475 253.867 282.215 253.215 282.114L237.085 279.621C236.167 279.428 235.211 279.564 234.384 280.005L234.483 280.115ZM262.922 296.586L252.93 302.351C252.065 302.848 251.418 303.652 251.117 304.604C250.816 305.555 250.883 306.585 251.305 307.49L254.127 313.573C254.404 314.169 254.824 314.688 255.348 315.084C255.873 315.48 256.486 315.742 257.136 315.846L273.266 318.339C274.168 318.475 275.09 318.301 275.879 317.844L285.861 312.08C286.728 311.584 287.377 310.78 287.68 309.829C287.983 308.877 287.918 307.846 287.497 306.941L284.664 300.857C284.388 300.261 283.969 299.742 283.444 299.348C282.919 298.953 282.305 298.694 281.655 298.595L265.525 296.092C264.607 295.897 263.65 296.033 262.824 296.476L262.922 296.586ZM291.351 313.002L281.37 318.767C280.504 319.266 279.857 320.072 279.556 321.026C279.255 321.979 279.322 323.011 279.745 323.917L282.567 329.989C282.842 330.587 283.26 331.107 283.785 331.504C284.31 331.9 284.925 332.161 285.575 332.262L301.706 334.755C302.603 334.895 303.521 334.725 304.308 334.271L314.301 328.496C315.166 327.998 315.813 327.194 316.113 326.242C316.414 325.291 316.347 324.261 315.926 323.357L313.104 317.273C312.828 316.677 312.409 316.158 311.884 315.764C311.359 315.369 310.744 315.11 310.095 315.011L293.965 312.519C293.048 312.312 292.089 312.432 291.252 312.859L291.351 313.002ZM461.979 411.509L451.986 417.285C451.123 417.784 450.478 418.588 450.177 419.539C449.877 420.49 449.942 421.519 450.361 422.424L453.183 428.507C453.462 429.103 453.883 429.622 454.409 430.017C454.936 430.411 455.552 430.67 456.203 430.769L472.334 433.262C473.231 433.402 474.149 433.231 474.936 432.778L484.928 427.014C485.792 426.512 486.438 425.706 486.738 424.753C487.039 423.801 486.973 422.77 486.553 421.864L483.731 415.78C483.454 415.185 483.035 414.668 482.51 414.273C481.985 413.879 481.371 413.619 480.723 413.518L464.46 410.883C463.57 410.751 462.662 410.921 461.88 411.366L461.979 411.509ZM490.419 427.98L480.426 433.745C479.563 434.244 478.918 435.048 478.617 435.999C478.316 436.95 478.382 437.979 478.801 438.884L481.623 444.967C481.899 445.563 482.318 446.082 482.843 446.477C483.368 446.871 483.982 447.13 484.632 447.229L500.696 449.535C501.597 449.675 502.519 449.504 503.31 449.052L513.302 443.287C514.165 442.787 514.811 441.983 515.111 441.033C515.412 440.082 515.346 439.053 514.927 438.148L512.105 432.065C511.829 431.465 511.409 430.944 510.882 430.547C510.355 430.151 509.738 429.891 509.086 429.792L492.955 427.299C492.046 427.149 491.113 427.324 490.32 427.793L490.419 427.98ZM518.858 444.451L508.866 450.216C508.003 450.715 507.358 451.519 507.057 452.47C506.756 453.421 506.822 454.45 507.241 455.354L510.063 461.438C510.338 462.034 510.757 462.553 511.282 462.947C511.808 463.342 512.422 463.601 513.072 463.7L529.202 466.203C530.104 466.34 531.026 466.166 531.815 465.709L541.797 459.944C542.664 459.449 543.313 458.645 543.616 457.694C543.919 456.742 543.854 455.711 543.433 454.805L540.6 448.722C540.324 448.126 539.905 447.607 539.38 447.212C538.855 446.818 538.241 446.559 537.591 446.46L521.461 443.957C520.559 443.721 519.602 443.811 518.76 444.209L518.858 444.451ZM245.068 257.462L235.076 263.227C234.212 263.726 233.567 264.53 233.266 265.481C232.966 266.432 233.031 267.461 233.45 268.366L236.272 274.449C236.551 275.046 236.972 275.564 237.499 275.959C238.025 276.353 238.641 276.612 239.292 276.711L255.423 279.215C256.321 279.35 257.239 279.176 258.025 278.721L268.017 272.956C268.88 272.456 269.526 271.652 269.826 270.701C270.127 269.751 270.061 268.722 269.642 267.817L266.809 261.734C266.534 261.137 266.115 260.619 265.59 260.224C265.065 259.829 264.45 259.571 263.801 259.471L247.681 256.946C246.777 256.816 245.855 256.998 245.068 257.462ZM273.508 273.878L263.515 279.643C262.652 280.142 262.007 280.946 261.706 281.897C261.406 282.848 261.471 283.877 261.89 284.782L264.712 290.865C264.987 291.463 265.406 291.983 265.931 292.38C266.456 292.776 267.071 293.037 267.721 293.138L283.851 295.631C284.753 295.773 285.677 295.598 286.465 295.136L296.457 289.372C297.32 288.872 297.965 288.068 298.266 287.117C298.567 286.167 298.501 285.138 298.082 284.233L295.26 278.149C294.984 277.552 294.563 277.032 294.036 276.637C293.509 276.243 292.892 275.985 292.241 275.887L276.11 273.417C275.215 273.271 274.298 273.434 273.508 273.878ZM301.947 290.349L291.955 296.125C291.092 296.624 290.447 297.428 290.146 298.379C289.845 299.33 289.911 300.359 290.33 301.264L293.152 307.347C293.429 307.942 293.849 308.46 294.373 308.854C294.898 309.249 295.512 309.508 296.161 309.609L312.291 312.102C313.192 312.242 314.113 312.071 314.905 311.618L324.886 305.843C325.753 305.347 326.402 304.544 326.705 303.592C327.008 302.64 326.943 301.609 326.522 300.704L323.7 294.62C323.419 294.026 322.997 293.51 322.47 293.115C321.944 292.721 321.33 292.461 320.68 292.358L304.55 289.866C303.659 289.708 302.741 289.859 301.947 290.294V290.349ZM501.004 405.184L491.012 410.949C490.129 411.45 489.471 412.267 489.169 413.236C488.867 414.204 488.945 415.251 489.386 416.165L492.208 422.248C492.487 422.845 492.908 423.363 493.435 423.758C493.961 424.152 494.577 424.411 495.228 424.51L511.359 427.014C512.257 427.149 513.175 426.975 513.961 426.519L523.953 420.755C524.816 420.255 525.462 419.451 525.762 418.5C526.063 417.549 525.997 416.521 525.578 415.616L522.756 409.532C522.481 408.936 522.062 408.417 521.537 408.023C521.012 407.628 520.397 407.37 519.748 407.27L503.617 404.767C502.724 404.607 501.803 404.754 501.004 405.184ZM255.675 234.897L245.683 240.662C244.82 241.161 244.174 241.965 243.874 242.916C243.573 243.867 243.639 244.896 244.058 245.801L246.88 251.884C247.156 252.482 247.577 253.001 248.104 253.396C248.631 253.791 249.248 254.049 249.899 254.146L266.03 256.649C266.928 256.784 267.846 256.61 268.632 256.155L278.625 250.391C279.488 249.891 280.133 249.087 280.434 248.136C280.734 247.185 280.669 246.157 280.25 245.252L277.428 239.168C277.153 238.571 276.734 238.05 276.209 237.654C275.684 237.257 275.069 236.996 274.419 236.895L258.289 234.403C257.386 234.261 256.463 234.435 255.675 234.897ZM284.115 251.368L274.123 257.133C273.259 257.632 272.614 258.436 272.313 259.387C272.013 260.338 272.078 261.367 272.497 262.272L275.319 268.355C275.595 268.951 276.014 269.47 276.539 269.865C277.064 270.259 277.679 270.518 278.328 270.617L294.459 273.12C295.361 273.257 296.282 273.083 297.072 272.626L307.064 266.861C307.928 266.362 308.573 265.558 308.873 264.607C309.174 263.656 309.109 262.627 308.69 261.723L305.868 255.639C305.589 255.043 305.168 254.524 304.641 254.13C304.115 253.735 303.499 253.477 302.848 253.377L286.717 250.874C285.825 250.721 284.908 250.876 284.115 251.313V251.368ZM294.799 228.803L284.807 234.567C283.944 235.067 283.298 235.871 282.998 236.822C282.697 237.773 282.763 238.801 283.182 239.706L286.004 245.79C286.281 246.388 286.702 246.908 287.229 247.304C287.755 247.701 288.372 247.961 289.023 248.063L305.154 250.555C306.052 250.697 306.972 250.523 307.756 250.061L317.749 244.296C318.612 243.797 319.257 242.993 319.558 242.042C319.858 241.091 319.793 240.062 319.374 239.157L316.552 233.074C316.276 232.478 315.857 231.959 315.332 231.564C314.807 231.17 314.192 230.911 313.543 230.812L297.412 228.32C296.518 228.163 295.597 228.314 294.799 228.748V228.803ZM351.679 261.635L341.686 267.41C340.823 267.91 340.178 268.714 339.877 269.665C339.576 270.616 339.642 271.644 340.061 272.549L342.883 278.633C343.159 279.229 343.578 279.748 344.103 280.142C344.628 280.537 345.242 280.796 345.892 280.895L362.022 283.299C362.923 283.439 363.845 283.269 364.636 282.816L374.617 277.051C375.483 276.552 376.131 275.746 376.433 274.794C376.736 273.841 376.672 272.809 376.253 271.902L373.431 265.829C373.152 265.232 372.731 264.713 372.204 264.317C371.678 263.921 371.062 263.659 370.412 263.556L354.281 261.064C353.38 260.933 352.461 261.115 351.679 261.58V261.635ZM465.427 327.222L455.434 332.998C454.555 333.498 453.898 334.314 453.596 335.28C453.295 336.246 453.371 337.29 453.809 338.202L456.631 344.286C456.908 344.881 457.328 345.398 457.853 345.793C458.377 346.188 458.991 346.447 459.64 346.548L475.77 349.04C476.671 349.18 477.593 349.01 478.384 348.557L488.376 342.781C489.239 342.282 489.885 341.478 490.185 340.527C490.486 339.576 490.42 338.547 490.001 337.642L487.179 331.559C486.898 330.965 486.476 330.448 485.95 330.054C485.423 329.66 484.809 329.4 484.16 329.297L468.029 326.805C467.139 326.645 466.222 326.792 465.427 327.222ZM493.866 343.693L483.874 349.469C483.009 349.966 482.362 350.77 482.061 351.722C481.76 352.673 481.827 353.703 482.249 354.607L485.071 360.691C485.347 361.287 485.766 361.806 486.291 362.2C486.816 362.595 487.43 362.854 488.08 362.953L504.21 365.445C505.111 365.585 506.032 365.415 506.824 364.962L516.805 359.197C517.671 358.698 518.318 357.892 518.619 356.938C518.92 355.985 518.852 354.954 518.43 354.047L515.608 347.975C515.333 347.377 514.914 346.857 514.389 346.46C513.864 346.064 513.25 345.803 512.599 345.702L496.469 343.21C495.572 343.069 494.653 343.239 493.866 343.693ZM419.198 271.88L409.206 277.644C408.343 278.144 407.698 278.948 407.397 279.899C407.096 280.85 407.162 281.878 407.581 282.783L410.403 288.867C410.682 289.463 411.103 289.981 411.63 290.375C412.157 290.77 412.772 291.028 413.423 291.129L429.553 293.632C430.451 293.768 431.369 293.594 432.155 293.138L442.148 287.373C443.011 286.874 443.656 286.07 443.957 285.119C444.258 284.168 444.192 283.139 443.773 282.234L440.951 276.151C440.676 275.553 440.257 275.033 439.732 274.636C439.207 274.24 438.592 273.979 437.942 273.878L421.812 271.385C420.898 271.232 419.959 271.399 419.154 271.858L419.198 271.88ZM476.078 304.712L466.086 310.476C465.222 310.978 464.576 311.784 464.275 312.737C463.975 313.689 464.041 314.72 464.46 315.626L467.282 321.699C467.557 322.296 467.976 322.817 468.501 323.213C469.026 323.61 469.641 323.87 470.291 323.972L486.422 326.442C487.322 326.582 488.244 326.412 489.035 325.959L499.027 320.183C499.89 319.684 500.536 318.88 500.836 317.929C501.137 316.978 501.071 315.949 500.652 315.044L497.83 308.961C497.552 308.365 497.13 307.847 496.603 307.453C496.077 307.058 495.461 306.799 494.811 306.699L478.636 304.163C477.734 304.036 476.816 304.222 476.034 304.69L476.078 304.712ZM504.518 321.128L494.525 326.903C493.66 327.401 493.013 328.205 492.713 329.157C492.412 330.108 492.479 331.138 492.9 332.042L495.722 338.126C495.999 338.721 496.419 339.238 496.944 339.633C497.468 340.027 498.082 340.287 498.731 340.388L514.861 342.88C515.762 343.02 516.684 342.85 517.475 342.397L527.456 336.621C528.321 336.124 528.968 335.32 529.269 334.368C529.57 333.417 529.503 332.387 529.081 331.482L526.259 325.399C525.982 324.804 525.563 324.286 525.038 323.892C524.513 323.497 523.899 323.238 523.251 323.137L507.076 320.633C506.18 320.489 505.262 320.656 504.474 321.106L504.518 321.128ZM532.946 337.544L522.965 343.319C522.098 343.815 521.449 344.618 521.146 345.57C520.843 346.522 520.908 347.552 521.329 348.458L524.151 354.542C524.43 355.138 524.851 355.656 525.378 356.05C525.905 356.445 526.52 356.703 527.171 356.804L543.301 359.296C544.198 359.437 545.117 359.267 545.904 358.813L555.896 353.048C556.76 352.547 557.405 351.741 557.706 350.788C558.007 349.835 557.941 348.805 557.521 347.898L554.699 341.826C554.424 341.228 554.005 340.708 553.48 340.311C552.955 339.915 552.34 339.654 551.69 339.553L535.56 337.06C534.647 336.903 533.709 337.066 532.902 337.522L532.946 337.544ZM344.53 200.033L334.538 205.798C333.674 206.3 333.028 207.106 332.728 208.058C332.427 209.011 332.493 210.042 332.913 210.948L335.735 217.031C336.013 217.628 336.434 218.147 336.961 218.541C337.488 218.936 338.104 219.194 338.754 219.293L354.885 221.808C355.782 221.948 356.7 221.778 357.487 221.325L367.48 215.549C368.343 215.05 368.988 214.246 369.289 213.295C369.589 212.344 369.524 211.315 369.105 210.41L366.283 204.327C366.006 203.732 365.586 203.214 365.061 202.82C364.537 202.425 363.923 202.166 363.274 202.065L347.144 199.572C346.245 199.426 345.324 199.588 344.53 200.033ZM401.41 232.876L391.417 238.641C390.557 239.141 389.914 239.943 389.613 240.891C389.313 241.839 389.376 242.866 389.792 243.769L392.614 249.852C392.89 250.449 393.309 250.967 393.834 251.362C394.359 251.757 394.974 252.015 395.623 252.115L411.754 254.629C412.655 254.766 413.577 254.591 414.367 254.135L424.348 248.37C425.213 247.872 425.861 247.069 426.164 246.118C426.466 245.167 426.402 244.137 425.984 243.231L423.151 237.181C422.876 236.583 422.458 236.063 421.933 235.666C421.408 235.269 420.793 235.009 420.143 234.908L404.067 232.382C403.151 232.226 402.209 232.401 401.41 232.876ZM429.839 249.26L419.857 255.024C418.973 255.523 418.313 256.341 418.011 257.31C417.709 258.279 417.788 259.327 418.232 260.24L421.054 266.323C421.331 266.919 421.751 267.438 422.275 267.835C422.8 268.231 423.414 268.493 424.063 268.596L440.193 271.089C441.092 271.227 442.01 271.052 442.796 270.595L452.788 264.83C453.653 264.332 454.3 263.528 454.601 262.577C454.902 261.625 454.835 260.596 454.413 259.691L451.591 253.608C451.316 253.012 450.897 252.493 450.372 252.098C449.846 251.703 449.232 251.445 448.582 251.346L432.452 248.842C431.559 248.682 430.638 248.829 429.839 249.26ZM458.278 265.73L448.286 271.495C447.423 271.995 446.778 272.799 446.477 273.75C446.176 274.7 446.242 275.729 446.661 276.634L449.483 282.717C449.762 283.314 450.183 283.834 450.71 284.23C451.236 284.626 451.852 284.887 452.503 284.99L468.633 287.483C469.532 287.625 470.452 287.451 471.235 286.989L481.228 281.224C482.091 280.725 482.736 279.921 483.037 278.97C483.338 278.019 483.272 276.99 482.853 276.085L480.031 270.002C479.755 269.406 479.336 268.887 478.811 268.492C478.286 268.097 477.672 267.839 477.022 267.74L460.892 265.247C459.991 265.107 459.069 265.278 458.278 265.73ZM408.514 294.467L398.577 300.21C397.714 300.709 397.068 301.513 396.768 302.464C396.467 303.415 396.533 304.444 396.952 305.348L399.774 311.432C400.049 312.028 400.468 312.547 400.993 312.941C401.518 313.336 402.133 313.595 402.782 313.694L418.858 316.241C419.76 316.378 420.682 316.204 421.471 315.747L431.464 309.982C432.327 309.483 432.972 308.679 433.273 307.728C433.573 306.777 433.508 305.748 433.089 304.843L430.267 298.672C429.99 298.075 429.57 297.555 429.042 297.16C428.515 296.765 427.898 296.508 427.247 296.41L411.117 293.907C410.213 293.785 409.295 293.975 408.514 294.445V294.467ZM515.158 298.562L505.166 304.338C504.302 304.838 503.657 305.642 503.356 306.593C503.056 307.543 503.121 308.572 503.54 309.477L506.362 315.56C506.638 316.157 507.057 316.675 507.582 317.07C508.107 317.465 508.722 317.723 509.371 317.822L525.502 320.315C526.402 320.455 527.324 320.285 528.115 319.832L538.107 314.067C538.971 313.566 539.617 312.76 539.917 311.807C540.218 310.854 540.152 309.824 539.732 308.917L536.932 302.823C536.653 302.226 536.232 301.707 535.706 301.31C535.179 300.914 534.564 300.653 533.913 300.55L517.782 298.057C516.878 297.912 515.951 298.083 515.158 298.54V298.562ZM543.598 315.033L533.605 320.798C532.74 321.296 532.093 322.1 531.792 323.051C531.492 324.003 531.559 325.033 531.98 325.937L534.802 332.02C535.078 332.617 535.497 333.135 536.022 333.53C536.547 333.925 537.162 334.183 537.811 334.282L553.941 336.786C554.843 336.923 555.765 336.748 556.555 336.292L566.58 330.516C567.445 330.018 568.092 329.214 568.393 328.263C568.694 327.311 568.627 326.282 568.205 325.377L565.383 319.294C565.108 318.696 564.69 318.176 564.165 317.779C563.64 317.382 563.025 317.122 562.374 317.021L546.244 314.528C545.338 314.364 544.402 314.519 543.598 314.967V315.033ZM572.026 331.504L562.045 337.104C561.178 337.6 560.529 338.403 560.226 339.355C559.923 340.307 559.988 341.337 560.409 342.243L563.242 348.327C563.517 348.924 563.936 349.445 564.461 349.841C564.985 350.238 565.6 350.498 566.251 350.6L582.381 353.092C583.28 353.23 584.198 353.055 584.984 352.598L594.976 346.833C595.841 346.336 596.488 345.532 596.789 344.58C597.09 343.629 597.023 342.599 596.601 341.694L593.779 335.611C593.503 335.015 593.084 334.496 592.559 334.101C592.034 333.707 591.42 333.448 590.77 333.349L574.64 330.845C573.747 330.732 572.842 330.922 572.07 331.383L572.026 331.504ZM412.017 210.3L402.025 216.076C401.16 216.574 400.513 217.378 400.212 218.329C399.911 219.281 399.978 220.311 400.4 221.215L403.222 227.298C403.499 227.893 403.918 228.411 404.443 228.806C404.968 229.2 405.582 229.459 406.23 229.56L422.361 232.053C423.261 232.193 424.183 232.023 424.974 231.57L434.956 225.805C435.823 225.307 436.472 224.501 436.773 223.547C437.074 222.593 437.005 221.561 436.581 220.655L433.715 214.583C433.44 213.985 433.021 213.465 432.496 213.068C431.971 212.671 431.356 212.411 430.706 212.31L414.576 209.817C413.693 209.686 412.791 209.857 412.017 210.3ZM440.446 226.771L430.421 232.492C429.554 232.988 428.905 233.792 428.604 234.744C428.303 235.696 428.371 236.727 428.795 237.631L431.617 243.714C431.893 244.311 432.312 244.829 432.837 245.224C433.362 245.619 433.977 245.877 434.626 245.976L450.757 248.48C451.655 248.618 452.574 248.443 453.359 247.986L463.351 242.221C464.216 241.723 464.863 240.919 465.164 239.968C465.465 239.016 465.398 237.987 464.977 237.082L462.154 230.999C461.88 230.401 461.461 229.881 460.936 229.484C460.411 229.087 459.796 228.827 459.146 228.726L443.059 226.2C442.153 226.068 441.23 226.254 440.446 226.727V226.771ZM468.886 243.242L458.893 249.007C458.03 249.506 457.385 250.311 457.084 251.261C456.783 252.212 456.849 253.241 457.268 254.146L460.068 260.13C460.347 260.726 460.769 261.244 461.295 261.639C461.822 262.033 462.438 262.292 463.088 262.392L479.218 264.896C480.117 265.032 481.035 264.857 481.821 264.402L491.813 258.637C492.676 258.138 493.321 257.333 493.622 256.383C493.923 255.432 493.857 254.403 493.438 253.498L490.616 247.415C490.341 246.819 489.922 246.3 489.397 245.905C488.872 245.51 488.257 245.252 487.608 245.153L471.499 242.671C470.589 242.52 469.654 242.687 468.853 243.143L468.886 243.242ZM497.325 259.658L487.333 265.423C486.47 265.922 485.825 266.727 485.524 267.677C485.223 268.628 485.289 269.657 485.708 270.562L488.53 276.645C488.805 277.243 489.223 277.763 489.748 278.16C490.273 278.557 490.888 278.817 491.539 278.918L507.669 281.411C508.571 281.553 509.495 281.378 510.282 280.917L520.275 275.152C521.138 274.652 521.783 273.848 522.084 272.897C522.385 271.947 522.319 270.918 521.9 270.013L519.078 263.93C518.801 263.332 518.381 262.812 517.854 262.418C517.326 262.023 516.71 261.765 516.058 261.668L499.928 259.175C499.042 259.006 498.125 259.141 497.325 259.559V259.658ZM525.765 276.129L515.773 281.905C514.91 282.404 514.264 283.208 513.964 284.159C513.663 285.11 513.729 286.139 514.148 287.044L516.97 293.127C517.247 293.722 517.666 294.24 518.191 294.634C518.716 295.029 519.33 295.288 519.978 295.389L536.109 297.882C537.01 298.022 537.931 297.851 538.722 297.399L548.715 291.623C549.578 291.123 550.223 290.319 550.524 289.368C550.824 288.418 550.759 287.389 550.34 286.484L547.518 280.401C547.236 279.806 546.814 279.29 546.288 278.895C545.762 278.501 545.147 278.241 544.498 278.139L528.368 275.646C527.488 275.459 526.571 275.575 525.765 275.975V276.129ZM554.205 292.545L544.213 298.321C543.348 298.819 542.701 299.623 542.4 300.574C542.099 301.526 542.166 302.555 542.587 303.46L545.409 309.543C545.685 310.139 546.104 310.658 546.629 311.053C547.154 311.448 547.769 311.706 548.418 311.805L564.549 314.298C565.449 314.438 566.371 314.267 567.162 313.815L577.143 308.05C578.009 307.55 578.656 306.744 578.957 305.791C579.258 304.837 579.191 303.806 578.769 302.9L575.947 296.828C575.672 296.23 575.253 295.709 574.728 295.313C574.203 294.916 573.588 294.656 572.938 294.555L556.807 292.062C555.928 291.874 555.01 291.99 554.205 292.391V292.545ZM582.634 309.016L572.652 314.781C571.785 315.277 571.136 316.08 570.833 317.032C570.53 317.983 570.596 319.014 571.016 319.92L573.838 326.003C574.117 326.599 574.539 327.117 575.065 327.512C575.592 327.906 576.208 328.165 576.858 328.265L592.988 330.769C593.887 330.904 594.805 330.73 595.591 330.274L605.583 324.51C606.446 324.01 607.092 323.206 607.392 322.255C607.693 321.304 607.627 320.276 607.208 319.371L604.386 313.287C604.111 312.69 603.693 312.169 603.168 311.773C602.643 311.376 602.028 311.116 601.378 311.014L585.247 308.324C584.345 308.188 583.423 308.362 582.634 308.818V309.016ZM611.073 325.432L601.081 331.197C600.218 331.696 599.573 332.5 599.272 333.451C598.971 334.402 599.037 335.431 599.456 336.336L602.278 342.419C602.554 343.018 602.974 343.539 603.501 343.936C604.028 344.333 604.646 344.593 605.298 344.692L621.483 346.987C622.381 347.122 623.299 346.948 624.085 346.493L634.078 340.728C634.941 340.228 635.586 339.424 635.887 338.474C636.188 337.523 636.122 336.494 635.703 335.589L632.881 329.506C632.605 328.91 632.186 328.391 631.661 327.996C631.136 327.601 630.522 327.343 629.872 327.244L613.742 324.74C612.822 324.591 611.879 324.765 611.073 325.234V325.432ZM639.513 341.848L629.521 347.613C628.657 348.114 628.011 348.92 627.711 349.873C627.41 350.826 627.476 351.856 627.896 352.763L630.718 358.835C630.993 359.433 631.411 359.953 631.936 360.35C632.461 360.746 633.076 361.007 633.726 361.108L649.857 363.458C650.758 363.598 651.679 363.427 652.47 362.975L662.463 357.199C663.326 356.699 663.971 355.895 664.272 354.945C664.572 353.994 664.507 352.965 664.088 352.06L661.266 345.889C660.988 345.292 660.566 344.774 660.04 344.379C659.513 343.984 658.897 343.726 658.246 343.627L642.116 341.134C641.215 341.004 640.296 341.186 639.513 341.65V341.848ZM667.953 358.264L657.961 364.04C657.096 364.537 656.449 365.341 656.148 366.293C655.847 367.244 655.914 368.274 656.335 369.179L659.157 375.262C659.435 375.857 659.854 376.375 660.379 376.769C660.904 377.164 661.518 377.423 662.166 377.524L678.297 380.017C679.197 380.157 680.119 379.986 680.91 379.533L690.891 373.758C691.758 373.262 692.407 372.458 692.708 371.506C693.009 370.553 692.941 369.523 692.517 368.619L689.695 362.36C689.417 361.765 688.998 361.247 688.473 360.852C687.949 360.458 687.335 360.199 686.686 360.098L670.555 357.605C669.661 357.458 668.743 357.62 667.953 358.066V358.264ZM451.141 204.162L441.149 209.927C440.285 210.426 439.64 211.231 439.34 212.181C439.039 213.132 439.104 214.161 439.523 215.066L442.345 221.149C442.621 221.745 443.04 222.264 443.565 222.659C444.09 223.054 444.705 223.312 445.354 223.411L461.485 225.915C462.387 226.051 463.308 225.877 464.098 225.421L474.079 219.656C474.946 219.16 475.596 218.357 475.899 217.405C476.202 216.453 476.136 215.423 475.716 214.517L472.883 208.434C472.607 207.837 472.188 207.319 471.663 206.924C471.138 206.529 470.523 206.271 469.874 206.172L453.743 203.668C452.845 203.53 451.926 203.705 451.141 204.162ZM479.57 220.578L469.588 226.343C468.723 226.841 468.076 227.645 467.776 228.596C467.475 229.548 467.542 230.577 467.963 231.482L470.785 237.565C471.06 238.163 471.479 238.683 472.004 239.08C472.529 239.477 473.144 239.737 473.794 239.838L489.924 242.331C490.823 242.474 491.743 242.299 492.527 241.837L502.519 236.072C503.384 235.574 504.031 234.77 504.332 233.819C504.633 232.867 504.566 231.837 504.144 230.933L501.322 224.85C501.047 224.253 500.628 223.735 500.103 223.34C499.578 222.945 498.963 222.687 498.314 222.588L482.183 220.095C481.282 219.955 480.361 220.125 479.57 220.578ZM508.01 237.049L498.017 242.825C497.154 243.324 496.509 244.128 496.208 245.079C495.907 246.03 495.973 247.059 496.392 247.964L499.214 254.047C499.495 254.641 499.917 255.158 500.444 255.552C500.97 255.946 501.584 256.206 502.234 256.309L518.364 258.802C519.261 258.942 520.179 258.771 520.967 258.319L530.959 252.543C531.822 252.043 532.467 251.239 532.768 250.288C533.069 249.338 533.003 248.309 532.584 247.404L529.762 241.321C529.485 240.725 529.065 240.208 528.541 239.813C528.016 239.419 527.402 239.16 526.753 239.059L510.579 236.511C509.693 236.381 508.788 236.551 508.01 236.994V237.049ZM564.889 269.892L554.897 275.657C554.034 276.156 553.388 276.96 553.088 277.911C552.787 278.862 552.853 279.891 553.272 280.796L556.094 286.879C556.369 287.475 556.788 287.994 557.313 288.389C557.838 288.784 558.453 289.042 559.102 289.141L575.233 291.645C576.135 291.781 577.056 291.607 577.846 291.151L587.838 285.386C588.702 284.886 589.347 284.082 589.648 283.131C589.948 282.181 589.883 281.152 589.464 280.247L586.642 274.164C586.362 273.567 585.941 273.047 585.415 272.651C584.888 272.255 584.273 271.994 583.622 271.891L567.491 269.398C566.599 269.245 565.682 269.4 564.889 269.837V269.892ZM621.758 302.724L611.776 308.489C610.91 308.989 610.262 309.794 609.96 310.747C609.657 311.699 609.721 312.731 610.14 313.639L612.973 319.711C613.248 320.309 613.667 320.829 614.192 321.226C614.717 321.622 615.332 321.883 615.982 321.984L632.112 324.477C633.009 324.618 633.928 324.447 634.715 323.994L644.707 318.218C645.57 317.718 646.215 316.914 646.516 315.963C646.817 315.013 646.751 313.984 646.332 313.079L643.51 306.996C643.235 306.399 642.816 305.881 642.291 305.486C641.766 305.091 641.151 304.833 640.501 304.734L624.371 302.241C623.477 302.084 622.555 302.235 621.758 302.669V302.724ZM600.466 347.854L590.474 353.619C589.61 354.121 588.964 354.927 588.664 355.879C588.363 356.832 588.429 357.863 588.849 358.769L591.671 364.841C591.948 365.439 592.369 365.96 592.896 366.356C593.423 366.753 594.039 367.013 594.69 367.114L610.821 369.607C611.718 369.747 612.636 369.577 613.423 369.124L623.416 363.348C624.279 362.849 624.924 362.044 625.225 361.094C625.525 360.143 625.46 359.114 625.041 358.209L622.219 352.126C621.943 351.53 621.524 351.011 620.999 350.616C620.474 350.221 619.859 349.963 619.21 349.864L603.08 347.371C602.185 347.215 601.264 347.366 600.466 347.799V347.854ZM678.637 335.556L668.7 341.277C667.837 341.776 667.191 342.581 666.891 343.531C666.59 344.482 666.656 345.511 667.075 346.416L669.798 352.477C670.073 353.073 670.492 353.592 671.017 353.987C671.542 354.382 672.157 354.64 672.806 354.739L688.937 357.232C689.838 357.372 690.759 357.201 691.55 356.749L701.543 350.984C702.407 350.482 703.052 349.676 703.353 348.724C703.653 347.771 703.587 346.74 703.168 345.834L700.346 339.762C700.07 339.163 699.649 338.641 699.122 338.245C698.595 337.848 697.978 337.588 697.326 337.489L681.196 334.996C680.31 334.873 679.409 335.051 678.637 335.501V335.556ZM728.335 306.875L718.343 312.64C717.478 313.137 716.831 313.941 716.53 314.893C716.229 315.844 716.296 316.874 716.718 317.778L719.54 323.862C719.811 324.453 720.224 324.968 720.74 325.362C721.257 325.756 721.863 326.018 722.505 326.124L738.635 328.616C739.536 328.756 740.457 328.586 741.249 328.133L751.23 322.368C752.095 321.871 752.742 321.067 753.043 320.115C753.344 319.164 753.277 318.134 752.855 317.229L750.033 311.146C749.758 310.548 749.339 310.028 748.814 309.631C748.29 309.235 747.674 308.974 747.024 308.873L730.938 306.359C730.043 306.206 729.123 306.369 728.335 306.82V306.875ZM461.748 181.696L451.756 187.461C450.891 187.958 450.244 188.762 449.943 189.714C449.642 190.665 449.709 191.695 450.131 192.6L452.953 198.683C453.228 199.279 453.647 199.798 454.172 200.193C454.697 200.587 455.312 200.846 455.961 200.945L472.147 203.35C473.049 203.48 473.968 203.306 474.76 202.855L484.742 197.091C485.609 196.595 486.257 195.791 486.558 194.839C486.859 193.887 486.791 192.856 486.367 191.952L483.545 185.868C483.27 185.271 482.851 184.75 482.326 184.354C481.801 183.957 481.186 183.697 480.536 183.595L464.406 181.103C463.489 180.946 462.547 181.122 461.748 181.597V181.696ZM518.617 214.583L508.624 220.348C507.761 220.847 507.116 221.651 506.815 222.602C506.515 223.553 506.58 224.582 506.999 225.487L509.821 231.57C510.099 232.168 510.52 232.688 511.046 233.085C511.573 233.481 512.189 233.741 512.841 233.843L528.971 236.335C529.87 236.478 530.79 236.303 531.574 235.841L541.566 230.076C542.429 229.577 543.075 228.773 543.375 227.822C543.676 226.871 543.61 225.842 543.191 224.938L540.369 218.854C540.094 218.258 539.675 217.739 539.15 217.345C538.625 216.95 538.01 216.691 537.361 216.592L521.23 214.1C520.347 213.913 519.426 214.029 518.617 214.429V214.583ZM575.496 247.47L565.504 253.245C564.641 253.745 563.996 254.549 563.695 255.5C563.394 256.451 563.46 257.479 563.879 258.384L566.701 264.468C566.976 265.064 567.395 265.583 567.92 265.977C568.445 266.372 569.06 266.631 569.709 266.73L585.84 269.025C586.741 269.165 587.662 268.994 588.453 268.541L598.424 262.766C599.29 262.266 599.938 261.461 600.24 260.508C600.543 259.555 600.479 258.524 600.06 257.616L597.238 251.544C596.959 250.947 596.537 250.427 596.011 250.031C595.485 249.635 594.869 249.374 594.218 249.271L578.088 246.778C577.194 246.64 576.28 246.811 575.496 247.261V247.47ZM603.936 263.941L593.944 269.705C593.079 270.203 592.432 271.007 592.131 271.959C591.83 272.91 591.897 273.94 592.319 274.844L595.141 280.928C595.416 281.524 595.835 282.043 596.36 282.437C596.885 282.832 597.5 283.09 598.149 283.19L614.28 285.496C615.178 285.633 616.097 285.459 616.882 285.001L626.875 279.237C627.74 278.739 628.386 277.935 628.687 276.983C628.988 276.032 628.921 275.002 628.5 274.098L625.678 267.927C625.403 267.329 624.984 266.808 624.459 266.412C623.934 266.015 623.319 265.755 622.669 265.654L606.538 263.161C605.629 263.028 604.702 263.214 603.914 263.688L603.936 263.941ZM472.432 159.032L462.44 164.797C461.577 165.296 460.932 166.1 460.631 167.051C460.33 168.002 460.396 169.031 460.815 169.936L463.637 176.019C463.912 176.615 464.331 177.134 464.856 177.529C465.382 177.923 465.996 178.182 466.646 178.281L482.776 180.784C483.678 180.921 484.6 180.747 485.389 180.29L495.382 174.526C496.245 174.026 496.89 173.222 497.191 172.271C497.492 171.32 497.426 170.292 497.007 169.387L494.185 163.303C493.907 162.707 493.486 162.188 492.959 161.794C492.432 161.399 491.816 161.141 491.165 161.041L475.035 158.538C474.136 158.402 473.218 158.576 472.432 159.032ZM557.741 208.335L547.748 214.111C546.885 214.61 546.24 215.414 545.939 216.365C545.639 217.316 545.704 218.345 546.123 219.25L548.945 225.333C549.227 225.927 549.649 226.444 550.175 226.838C550.701 227.232 551.316 227.492 551.965 227.595L568.095 230.087C568.993 230.227 569.911 230.057 570.698 229.604L580.69 223.839C581.554 223.338 582.2 222.532 582.5 221.579C582.801 220.627 582.735 219.596 582.315 218.69L579.493 212.617C579.218 212.02 578.8 211.499 578.275 211.102C577.75 210.706 577.135 210.445 576.485 210.344L560.354 207.852C559.477 207.708 558.578 207.858 557.796 208.28L557.741 208.335ZM586.18 224.806L576.188 230.571C575.325 231.07 574.68 231.874 574.379 232.825C574.078 233.776 574.144 234.805 574.563 235.709L577.385 241.793C577.662 242.39 578.082 242.91 578.609 243.305C579.136 243.7 579.753 243.957 580.405 244.055L596.524 246.558C597.426 246.695 598.348 246.521 599.138 246.064L609.13 240.299C609.993 239.8 610.638 238.996 610.939 238.045C611.24 237.094 611.174 236.065 610.755 235.16L607.933 229.077C607.657 228.478 607.237 227.957 606.71 227.56C606.183 227.163 605.565 226.904 604.913 226.804L588.783 224.312C587.896 224.147 586.979 224.286 586.18 224.707V224.806ZM568.348 185.923L558.356 191.688C557.492 192.19 556.846 192.996 556.545 193.948C556.245 194.901 556.311 195.932 556.73 196.838L559.552 202.921C559.832 203.517 560.254 204.034 560.78 204.429C561.307 204.823 561.922 205.082 562.572 205.183L578.659 207.467C579.556 207.607 580.474 207.437 581.261 206.984L591.253 201.208C592.117 200.709 592.762 199.905 593.063 198.954C593.363 198.003 593.298 196.974 592.879 196.069L590.1 189.964C589.823 189.369 589.404 188.851 588.879 188.457C588.354 188.062 587.74 187.803 587.092 187.702L570.972 185.232C570.068 185.089 569.142 185.26 568.348 185.715V185.923ZM625.227 218.865L615.235 224.63C614.372 225.13 613.727 225.934 613.426 226.884C613.125 227.835 613.191 228.864 613.61 229.769L616.432 235.852C616.708 236.448 617.127 236.967 617.652 237.362C618.177 237.757 618.791 238.015 619.441 238.114L635.571 240.618C636.473 240.754 637.395 240.58 638.185 240.124L648.166 234.359C649.031 233.861 649.679 233.058 649.981 232.107C650.284 231.156 650.22 230.126 649.802 229.22L646.98 223.137C646.701 222.54 646.28 222.02 645.753 221.624C645.227 221.228 644.611 220.967 643.96 220.864L627.83 218.371C626.972 218.12 626.053 218.17 625.227 218.514V218.865ZM607.472 179.983L597.479 185.748C596.616 186.247 595.971 187.051 595.67 188.002C595.37 188.953 595.435 189.982 595.854 190.887L598.676 196.97C598.955 197.566 599.377 198.084 599.903 198.478C600.43 198.873 601.046 199.132 601.696 199.232L617.826 201.735C618.725 201.871 619.643 201.697 620.429 201.241L630.421 195.477C631.284 194.977 631.93 194.173 632.23 193.222C632.531 192.271 632.465 191.243 632.046 190.338L629.224 184.254C628.949 183.657 628.531 183.136 628.006 182.74C627.481 182.343 626.866 182.082 626.216 181.981L610.085 179.489C609.229 179.221 608.308 179.252 607.472 179.577V179.983ZM635.912 196.454L625.919 202.219C625.056 202.718 624.411 203.522 624.11 204.473C623.81 205.424 623.875 206.453 624.294 207.358L627.116 213.441C627.393 214.038 627.813 214.558 628.34 214.953C628.868 215.348 629.484 215.605 630.136 215.703L646.255 218.206C647.157 218.343 648.079 218.169 648.869 217.712L658.861 211.947C659.724 211.448 660.369 210.644 660.67 209.693C660.971 208.742 660.905 207.713 660.486 206.808L657.719 200.264C657.443 199.666 657.022 199.147 656.495 198.752C655.968 198.357 655.351 198.099 654.699 198.002L638.514 195.455C637.611 195.333 636.693 195.523 635.912 195.993V196.454ZM664.307 212.409L654.315 218.173C653.452 218.673 652.807 219.477 652.506 220.428C652.205 221.379 652.271 222.407 652.69 223.312L655.512 229.396C655.787 229.993 656.206 230.514 656.73 230.91C657.255 231.307 657.87 231.567 658.521 231.669L674.651 234.161C675.553 234.303 676.477 234.129 677.265 233.667L687.257 227.902C688.12 227.403 688.765 226.599 689.066 225.648C689.367 224.697 689.301 223.668 688.882 222.763L686.06 216.68C685.781 216.084 685.36 215.566 684.833 215.172C684.306 214.777 683.691 214.518 683.04 214.418L666.954 211.925C666.042 211.775 665.107 211.946 664.307 212.409ZM692.747 228.825L682.755 234.6C681.89 235.098 681.243 235.902 680.942 236.854C680.641 237.805 680.708 238.835 681.13 239.739L683.952 245.823C684.229 246.418 684.648 246.935 685.173 247.33C685.698 247.724 686.312 247.984 686.96 248.085L703.091 250.577C703.992 250.717 704.913 250.547 705.704 250.094L715.686 244.318C716.551 243.821 717.198 243.017 717.498 242.065C717.799 241.114 717.732 240.084 717.311 239.179L714.489 233.096C714.212 232.501 713.792 231.983 713.267 231.589C712.743 231.194 712.129 230.935 711.48 230.834L695.394 228.396C694.503 228.239 693.585 228.39 692.791 228.825H692.747ZM618.079 157.022L608.087 162.798C607.224 163.298 606.578 164.102 606.278 165.053C605.977 166.003 606.043 167.032 606.462 167.937L609.284 174.02C609.563 174.616 609.985 175.133 610.511 175.528C611.038 175.922 611.653 176.181 612.303 176.282L628.434 178.775C629.331 178.915 630.249 178.745 631.036 178.292L641.029 172.527C641.892 172.026 642.538 171.22 642.839 170.267C643.139 169.314 643.073 168.284 642.654 167.377L639.832 161.305C639.557 160.707 639.138 160.187 638.613 159.79C638.088 159.393 637.473 159.133 636.823 159.032L620.693 156.539C619.792 156.399 618.87 156.57 618.079 157.022ZM674.959 189.909L664.966 195.674C664.103 196.174 663.458 196.978 663.157 197.928C662.857 198.879 662.922 199.908 663.341 200.813L666.163 206.896C666.439 207.493 666.858 208.011 667.383 208.406C667.908 208.801 668.522 209.059 669.172 209.158L685.302 211.662C686.204 211.799 687.126 211.624 687.916 211.168L697.897 205.403C698.764 204.907 699.413 204.104 699.716 203.152C700.019 202.201 699.954 201.17 699.533 200.264L696.711 194.181C696.432 193.585 696.011 193.067 695.484 192.672C694.958 192.278 694.342 192.019 693.692 191.919L677.561 189.415C676.67 189.258 675.752 189.409 674.959 189.843V189.909ZM657.203 151.016L647.211 156.781C646.347 157.28 645.702 158.084 645.402 159.035C645.101 159.986 645.167 161.015 645.586 161.92L648.408 168.003C648.687 168.599 649.108 169.117 649.635 169.512C650.161 169.906 650.777 170.165 651.427 170.265L667.602 172.615C668.5 172.751 669.418 172.577 670.204 172.121L680.196 166.356C681.059 165.857 681.705 165.052 682.005 164.102C682.306 163.151 682.24 162.122 681.821 161.217L678.999 155.134C678.724 154.538 678.305 154.019 677.78 153.624C677.255 153.229 676.64 152.971 675.991 152.872L659.86 150.368C658.944 150.221 658.005 150.396 657.203 150.862V151.016ZM685.643 167.487L675.65 173.252C674.787 173.751 674.142 174.555 673.841 175.506C673.541 176.457 673.606 177.486 674.025 178.391L676.847 184.474C677.122 185.072 677.541 185.592 678.066 185.989C678.591 186.385 679.206 186.646 679.856 186.747L695.986 189.24C696.889 189.382 697.812 189.207 698.6 188.745L708.592 182.981C709.455 182.481 710.101 181.677 710.401 180.726C710.702 179.775 710.636 178.747 710.217 177.842L707.395 171.758C707.119 171.161 706.698 170.641 706.171 170.246C705.644 169.851 705.027 169.594 704.376 169.496L688.245 166.795C687.348 166.656 686.43 166.826 685.643 167.278V167.487ZM714.083 183.903L704.09 189.668C703.226 190.169 702.581 190.975 702.28 191.928C701.979 192.881 702.045 193.911 702.465 194.818L705.287 200.901C705.564 201.496 705.984 202.014 706.508 202.408C707.033 202.803 707.647 203.062 708.296 203.163L724.426 205.656C725.327 205.796 726.248 205.625 727.04 205.172L737.032 199.397C737.895 198.897 738.54 198.093 738.841 197.142C739.142 196.191 739.076 195.163 738.657 194.258L735.835 188.174C735.554 187.58 735.132 187.064 734.605 186.669C734.079 186.275 733.465 186.015 732.815 185.912L716.685 183.42C715.811 183.216 714.894 183.313 714.083 183.694V183.903ZM770.951 216.746L760.937 222.302C760.07 222.798 759.421 223.601 759.118 224.553C758.815 225.505 758.88 226.535 759.301 227.441L762.123 233.524C762.402 234.12 762.823 234.638 763.35 235.033C763.876 235.427 764.492 235.686 765.142 235.786L781.306 238.279C782.204 238.415 783.122 238.241 783.908 237.785L793.901 232.02C794.764 231.521 795.409 230.716 795.71 229.766C796.01 228.815 795.945 227.786 795.526 226.881L792.704 220.798C792.429 220.2 792.01 219.68 791.485 219.283C790.96 218.886 790.345 218.626 789.695 218.525L773.565 216.032C772.661 215.899 771.74 216.077 770.951 216.537V216.746ZM667.81 128.418L657.818 134.183C656.955 134.682 656.31 135.486 656.009 136.437C655.708 137.388 655.774 138.417 656.193 139.322L659.015 145.405C659.293 146.001 659.714 146.52 660.241 146.915C660.768 147.309 661.384 147.568 662.034 147.667L678.165 150.16C679.062 150.3 679.98 150.129 680.767 149.676L690.76 143.912C691.623 143.412 692.268 142.608 692.569 141.657C692.869 140.706 692.804 139.678 692.385 138.773L689.563 132.569C689.288 131.971 688.869 131.45 688.344 131.054C687.819 130.657 687.204 130.397 686.554 130.296L670.424 127.803C669.522 127.661 668.598 127.836 667.81 128.297V128.418ZM696.25 144.889L686.269 150.434C685.405 150.934 684.76 151.738 684.46 152.688C684.159 153.639 684.225 154.668 684.644 155.573L687.466 161.656C687.741 162.253 688.16 162.771 688.685 163.166C689.21 163.561 689.825 163.819 690.474 163.918L706.605 166.422C707.507 166.559 708.428 166.384 709.218 165.928L719.21 160.163C720.074 159.663 720.719 158.859 721.02 157.909C721.32 156.958 721.255 155.929 720.836 155.024L718.014 148.941C717.737 148.343 717.316 147.823 716.789 147.429C716.262 147.034 715.645 146.776 714.994 146.679L698.863 144.175C697.956 144.05 697.034 144.24 696.25 144.713V144.889ZM724.69 161.36L714.697 167.125C713.834 167.624 713.189 168.428 712.888 169.379C712.588 170.33 712.653 171.359 713.072 172.264L715.894 178.347C716.169 178.945 716.588 179.465 717.113 179.862C717.638 180.258 718.253 180.519 718.903 180.62L735.033 183.112C735.936 183.254 736.859 183.08 737.647 182.618L747.628 176.853C748.495 176.358 749.144 175.554 749.447 174.603C749.75 173.651 749.685 172.62 749.264 171.715L746.442 165.631C746.163 165.035 745.742 164.517 745.215 164.123C744.689 163.728 744.073 163.469 743.423 163.369L727.292 160.877C726.424 160.667 725.512 160.756 724.701 161.129L724.69 161.36ZM753.119 177.776L743.137 183.541C742.271 184.04 741.624 184.846 741.323 185.8C741.023 186.753 741.09 187.784 741.512 188.69L744.334 194.774C744.611 195.369 745.031 195.887 745.555 196.281C746.08 196.676 746.694 196.935 747.343 197.036L763.473 199.528C764.37 199.669 765.289 199.499 766.076 199.045L776.068 193.269C776.933 192.772 777.58 191.968 777.881 191.016C778.182 190.065 778.115 189.035 777.693 188.131L774.871 182.047C774.594 181.452 774.175 180.934 773.65 180.54C773.125 180.145 772.511 179.886 771.863 179.785L755.732 177.293C754.857 177.082 753.937 177.171 753.119 177.545V177.776ZM809.998 210.619L800.006 216.384C799.143 216.883 798.497 217.687 798.197 218.638C797.896 219.589 797.962 220.618 798.381 221.523L801.203 227.606C801.479 228.203 801.9 228.723 802.427 229.118C802.954 229.513 803.571 229.77 804.222 229.868L820.353 232.371C821.251 232.506 822.169 232.332 822.955 231.877L832.948 226.112C833.811 225.613 834.456 224.809 834.757 223.858C835.057 222.907 834.992 221.878 834.573 220.973L831.751 214.89C831.475 214.291 831.054 213.77 830.527 213.373C830 212.976 829.383 212.717 828.731 212.617L812.612 210.125C811.735 209.917 810.815 210.01 809.998 210.388V210.619ZM820.682 187.977L810.701 193.742C809.834 194.237 809.185 195.041 808.882 195.992C808.579 196.944 808.644 197.975 809.065 198.881L811.887 204.964C812.166 205.56 812.587 206.078 813.114 206.472C813.64 206.867 814.256 207.126 814.907 207.226L831.037 209.729C831.935 209.865 832.853 209.691 833.639 209.235L843.632 203.47C844.495 202.971 845.14 202.167 845.441 201.216C845.741 200.265 845.676 199.236 845.257 198.331L842.435 192.248C842.159 191.652 841.74 191.133 841.215 190.739C840.69 190.344 840.076 190.085 839.426 189.986L823.296 187.483C822.411 187.299 821.49 187.419 820.682 187.823V187.977ZM877.562 220.809L867.569 226.585C866.706 227.084 866.061 227.888 865.76 228.839C865.46 229.79 865.525 230.819 865.944 231.724L868.766 237.807C869.044 238.402 869.463 238.92 869.988 239.314C870.512 239.709 871.126 239.968 871.775 240.069L887.906 242.561C888.806 242.701 889.728 242.531 890.519 242.078L900.511 236.302C901.374 235.803 902.02 234.999 902.32 234.048C902.621 233.097 902.555 232.068 902.136 231.163L899.292 224.927C899.011 224.332 898.589 223.816 898.063 223.421C897.537 223.027 896.922 222.767 896.273 222.665L880.142 220.172C879.246 220.053 878.336 220.243 877.562 220.71V220.809ZM906.002 237.28L896.009 243.055C895.144 243.553 894.497 244.357 894.196 245.309C893.896 246.26 893.963 247.29 894.384 248.194L897.206 254.278C897.482 254.874 897.901 255.393 898.426 255.787C898.951 256.182 899.565 256.441 900.215 256.54L916.345 259.032C917.246 259.172 918.167 259.002 918.959 258.549L928.94 252.554C929.808 252.056 930.457 251.25 930.758 250.296C931.059 249.342 930.99 248.31 930.565 247.404L927.743 241.332C927.468 240.734 927.05 240.213 926.525 239.817C926 239.42 925.385 239.16 924.734 239.059L908.604 236.566C907.704 236.432 906.786 236.61 906.002 237.071V237.28ZM888.169 198.09L878.177 203.855C877.314 204.354 876.668 205.158 876.368 206.109C876.067 207.06 876.133 208.089 876.552 208.994L879.374 215.077C879.649 215.675 880.067 216.195 880.592 216.592C881.117 216.988 881.732 217.249 882.382 217.35L898.513 219.842C899.415 219.985 900.338 219.81 901.126 219.348L911.119 213.584C911.982 213.084 912.627 212.28 912.928 211.329C913.228 210.378 913.163 209.35 912.744 208.445L909.922 202.361C909.643 201.765 909.221 201.247 908.695 200.853C908.168 200.458 907.552 200.2 906.902 200.099L890.771 197.651C889.879 197.497 888.962 197.652 888.169 198.09ZM916.609 214.506L906.616 220.282C905.751 220.779 905.105 221.583 904.804 222.535C904.503 223.486 904.57 224.516 904.991 225.421L907.813 231.504C908.091 232.099 908.51 232.617 909.035 233.011C909.559 233.406 910.173 233.665 910.822 233.766L926.953 236.258C927.853 236.398 928.775 236.228 929.566 235.775L939.547 230C940.412 229.502 941.059 228.698 941.36 227.746C941.661 226.795 941.594 225.765 941.173 224.861L938.35 218.777C938.073 218.182 937.654 217.665 937.129 217.27C936.604 216.876 935.99 216.616 935.342 216.515L919.211 214.023C918.314 213.882 917.396 214.052 916.609 214.506ZM785.094 109.806L775.102 115.582C774.239 116.081 773.593 116.885 773.293 117.836C772.992 118.787 773.058 119.816 773.477 120.721L776.299 126.804C776.576 127.399 776.995 127.917 777.52 128.311C778.045 128.706 778.659 128.965 779.307 129.066L795.438 131.558C796.339 131.698 797.26 131.528 798.051 131.075L808.044 125.31C808.908 124.809 809.553 124.003 809.854 123.05C810.154 122.098 810.088 121.067 809.669 120.161L806.847 114.088C806.571 113.489 806.15 112.968 805.623 112.571C805.096 112.174 804.479 111.915 803.827 111.815L787.708 109.367C786.812 109.212 785.89 109.367 785.094 109.806ZM870.413 159.109L860.421 164.874C859.558 165.373 858.913 166.177 858.612 167.128C858.311 168.079 858.377 169.108 858.796 170.013L861.618 176.096C861.897 176.693 862.318 177.212 862.845 177.608C863.371 178.004 863.987 178.266 864.638 178.369L880.768 180.861C881.667 181.004 882.587 180.829 883.371 180.367L893.363 174.602C894.226 174.103 894.871 173.299 895.172 172.348C895.473 171.397 895.407 170.368 894.988 169.463L892.166 163.38C891.89 162.784 891.471 162.265 890.946 161.871C890.421 161.476 889.807 161.217 889.157 161.118L873.027 158.626C872.126 158.486 871.205 158.656 870.413 159.109ZM927.293 191.941L917.301 197.717C916.438 198.216 915.792 199.02 915.492 199.971C915.191 200.922 915.256 201.951 915.675 202.855L918.498 208.939C918.775 209.534 919.194 210.052 919.719 210.446C920.244 210.841 920.857 211.1 921.506 211.201L937.637 213.693C938.537 213.833 939.459 213.663 940.25 213.21L950.242 207.445C951.106 206.944 951.752 206.138 952.053 205.185C952.353 204.233 952.287 203.202 951.868 202.295L949.046 196.223C948.766 195.626 948.345 195.107 947.819 194.711C947.292 194.314 946.677 194.053 946.026 193.95L929.895 191.458C928.998 191.318 928.08 191.488 927.293 191.941ZM955.733 208.412L945.74 214.122C944.875 214.619 944.229 215.423 943.928 216.375C943.627 217.326 943.694 218.356 944.115 219.261L946.937 225.344C947.213 225.94 947.632 226.459 948.157 226.853C948.682 227.248 949.297 227.507 949.946 227.606L966.076 230.109C966.978 230.246 967.9 230.072 968.69 229.615L978.671 223.85C979.538 223.355 980.187 222.551 980.488 221.598C980.789 220.646 980.721 219.616 980.296 218.711L977.474 212.628C977.199 212.03 976.781 211.51 976.256 211.113C975.731 210.717 975.116 210.456 974.466 210.355L958.335 207.863C957.435 207.728 956.517 207.907 955.733 208.368V208.412ZM909.46 152.96L899.468 158.724C898.605 159.224 897.96 160.028 897.659 160.979C897.358 161.93 897.424 162.958 897.843 163.863L900.665 169.947C900.941 170.546 901.361 171.067 901.888 171.464C902.415 171.86 903.033 172.12 903.685 172.22L919.804 174.712C920.706 174.854 921.63 174.68 922.418 174.218L932.41 168.453C933.273 167.954 933.918 167.15 934.219 166.199C934.52 165.248 934.454 164.219 934.035 163.314L931.213 157.231C930.936 156.633 930.516 156.114 929.989 155.719C929.462 155.324 928.845 155.066 928.193 154.969L912.063 152.476C911.166 152.337 910.248 152.508 909.46 152.96ZM966.34 185.792L956.348 191.567C955.483 192.065 954.836 192.869 954.535 193.821C954.234 194.772 954.301 195.802 954.722 196.706L957.545 202.79C957.822 203.385 958.241 203.902 958.766 204.297C959.291 204.691 959.904 204.951 960.553 205.052L976.684 207.533C977.584 207.673 978.506 207.503 979.297 207.05L989.279 201.285C990.144 200.786 990.792 199.98 991.092 199.026C991.393 198.073 991.326 197.041 990.904 196.135L988.082 190.063C987.807 189.465 987.388 188.945 986.863 188.548C986.338 188.152 985.723 187.891 985.073 187.79L968.942 185.298C968.044 185.16 967.125 185.334 966.34 185.792ZM1044.5 173.493L1034.52 179.258C1033.65 179.754 1033 180.557 1032.7 181.509C1032.4 182.461 1032.46 183.491 1032.88 184.397L1035.7 190.48C1035.98 191.076 1036.4 191.594 1036.93 191.989C1037.46 192.383 1038.07 192.642 1038.72 192.742L1054.85 195.246C1055.75 195.384 1056.67 195.209 1057.46 194.752L1067.45 188.987C1068.31 188.488 1068.96 187.683 1069.26 186.733C1069.56 185.782 1069.49 184.753 1069.07 183.848L1066.25 177.765C1065.98 177.169 1065.56 176.65 1065.03 176.255C1064.51 175.86 1063.89 175.602 1063.24 175.503L1047.11 172.999C1046.21 172.863 1045.29 173.037 1044.5 173.493Z" fill="#2D4D53"/>
<path d="M298.04 374.549C298.8 374.124 299.677 373.959 300.54 374.078L316.918 376.341C318.198 376.517 319.313 377.301 319.913 378.445L323.198 384.707C324.206 386.628 323.499 389.003 321.604 390.059L311.424 395.733C310.636 396.172 309.724 396.332 308.834 396.188L292.16 393.476C290.753 393.247 289.575 392.287 289.066 390.955L286.715 384.803C286.006 382.948 286.765 380.853 288.499 379.884L298.04 374.549Z" fill="#DD603C"/>
<path d="M309.401 352.364C310.16 351.939 311.038 351.774 311.9 351.893L328.456 354.18C329.735 354.356 330.851 355.14 331.451 356.284L334.79 362.649C335.798 364.571 335.09 366.945 333.195 368.001L322.883 373.749C322.096 374.188 321.183 374.348 320.293 374.204L303.437 371.462C302.031 371.233 300.852 370.273 300.343 368.942L297.952 362.687C297.243 360.831 298.003 358.737 299.737 357.767L309.401 352.364Z" fill="#DD603C"/>
<path d="M258.437 381.169C259.197 380.744 260.074 380.579 260.937 380.698L277.492 382.985C278.772 383.162 279.887 383.945 280.487 385.089L283.826 391.454C284.834 393.376 284.127 395.75 282.231 396.807L271.919 402.555C271.132 402.993 270.219 403.153 269.33 403.009L252.474 400.267C251.067 400.038 249.888 399.078 249.38 397.747L246.989 391.492C246.28 389.636 247.04 387.542 248.773 386.572L258.437 381.169Z" fill="#DD603C"/>
<path d="M269.516 359.012C270.276 358.587 271.153 358.421 272.015 358.54L288.571 360.827C289.85 361.004 290.966 361.788 291.566 362.932L294.905 369.297C295.913 371.218 295.205 373.593 293.31 374.649L282.998 380.397C282.211 380.836 281.298 380.996 280.408 380.851L263.553 378.11C262.146 377.881 260.967 376.921 260.458 375.59L258.068 369.334C257.358 367.479 258.118 365.384 259.852 364.415L269.516 359.012Z" fill="#DD603C"/>
<path d="M218.552 385.601C219.312 385.176 220.19 385.011 221.052 385.13L237.607 387.417C238.887 387.593 240.002 388.377 240.602 389.521L243.941 395.886C244.949 397.808 244.242 400.182 242.347 401.238L232.034 406.986C231.247 407.425 230.335 407.585 229.445 407.441L212.589 404.699C211.182 404.47 210.003 403.51 209.495 402.179L207.104 395.924C206.395 394.068 207.155 391.974 208.888 391.004L218.552 385.601Z" fill="#DD603C"/>
<path d="M229.631 364.551C230.391 364.126 231.268 363.961 232.13 364.08L248.686 366.367C249.965 366.543 251.081 367.327 251.681 368.471L255.02 374.836C256.028 376.758 255.32 379.132 253.425 380.188L243.113 385.936C242.326 386.375 241.413 386.535 240.523 386.391L223.668 383.649C222.261 383.42 221.082 382.46 220.573 381.129L218.183 374.874C217.474 373.018 218.233 370.924 219.967 369.954L229.631 364.551Z" fill="#DD603C"/>
<path d="M248.466 403.326C249.226 402.902 250.103 402.736 250.965 402.855L267.521 405.142C268.8 405.319 269.916 406.103 270.516 407.246L273.855 413.612C274.863 415.533 274.155 417.908 272.26 418.964L261.948 424.712C261.161 425.151 260.248 425.311 259.358 425.166L242.503 422.425C241.096 422.196 239.917 421.236 239.408 419.904L237.018 413.649C236.309 411.794 237.068 409.699 238.802 408.73L248.466 403.326Z" fill="#DD603C"/>
<path d="M209.535 409.088C210.294 408.663 211.172 408.497 212.034 408.617L228.413 410.879C229.692 411.056 230.808 411.839 231.408 412.983L234.693 419.246C235.701 421.167 234.993 423.541 233.098 424.598L222.918 430.272C222.131 430.711 221.219 430.871 220.329 430.726L203.655 428.014C202.248 427.785 201.069 426.825 200.56 425.494L198.209 419.342C197.5 417.486 198.26 415.392 199.993 414.422L209.535 409.088Z" fill="#DD603C"/>
<path d="M168.906 415.676C169.666 415.251 170.544 415.086 171.406 415.205L187.785 417.467C189.064 417.644 190.18 418.428 190.78 419.572L194.065 425.834C195.073 427.755 194.365 430.13 192.47 431.186L182.29 436.86C181.503 437.299 180.59 437.459 179.701 437.314L163.026 434.602C161.62 434.374 160.441 433.414 159.932 432.082L157.581 425.93C156.872 424.075 157.632 421.98 159.365 421.011L168.906 415.676Z" fill="#DD603C"/>
<path d="M198.554 432.147C199.314 431.722 200.191 431.557 201.054 431.676L217.432 433.938C218.712 434.115 219.827 434.899 220.427 436.043L223.712 442.305C224.72 444.226 224.013 446.601 222.118 447.657L211.938 453.331C211.15 453.77 210.238 453.93 209.348 453.785L192.674 451.073C191.267 450.844 190.089 449.884 189.58 448.553L187.229 442.401C186.52 440.546 187.279 438.451 189.013 437.482L198.554 432.147Z" fill="#DD603C"/>
<path d="M160.122 437.637C160.882 437.212 161.759 437.047 162.621 437.166L179 439.429C180.28 439.605 181.395 440.389 181.995 441.533L185.28 447.795C186.288 449.716 185.581 452.091 183.685 453.147L173.506 458.821C172.718 459.26 171.806 459.42 170.916 459.276L154.242 456.564C152.835 456.335 151.657 455.375 151.148 454.043L148.796 447.891C148.087 446.036 148.847 443.941 150.581 442.972L160.122 437.637Z" fill="#DD603C"/>
<path d="M92.0422 427.755C92.8019 427.33 93.6794 427.165 94.5416 427.284L110.921 429.546C112.2 429.723 113.315 430.507 113.915 431.65L117.2 437.913C118.208 439.834 117.501 442.208 115.606 443.265L105.426 448.939C104.639 449.378 103.726 449.538 102.836 449.393L86.1622 446.681C84.7555 446.452 83.5767 445.492 83.0679 444.161L80.7167 438.009C80.0076 436.153 80.7674 434.059 82.501 433.09L92.0422 427.755Z" fill="#DD603C"/>
<path d="M53.5135 433.245C54.2732 432.82 55.1507 432.654 56.013 432.774L72.3918 435.036C73.6713 435.213 74.7867 435.996 75.3867 437.14L78.6717 443.402C79.6796 445.324 78.9721 447.698 77.077 448.755L66.8973 454.429C66.1099 454.868 65.1974 455.028 64.3076 454.883L47.6335 452.171C46.2268 451.942 45.0481 450.982 44.5393 449.651L42.188 443.499C41.4789 441.643 42.2387 439.549 43.9723 438.579L53.5135 433.245Z" fill="#DD603C"/>
<path d="M63.4926 411.284C64.2523 410.859 65.1299 410.694 65.9921 410.813L82.3709 413.075C83.6504 413.252 84.7658 414.036 85.3658 415.179L88.6508 421.442C89.6587 423.363 88.9512 425.737 87.0561 426.794L76.8764 432.468C76.089 432.907 75.1765 433.067 74.2867 432.922L57.6126 430.21C56.2059 429.981 55.0272 429.021 54.5184 427.69L52.1671 421.538C51.4581 419.683 52.2178 417.588 53.9514 416.619L63.4926 411.284Z" fill="#DD603C"/>
<path d="M14.0799 439.833C14.8396 439.409 15.7171 439.243 16.5794 439.362L32.9582 441.625C34.2377 441.802 35.3531 442.585 35.9531 443.729L39.2381 449.991C40.246 451.913 39.5385 454.287 37.6434 455.343L27.4637 461.017C26.6763 461.456 25.7638 461.616 24.874 461.472L8.19993 458.76C6.7932 458.531 5.61446 457.571 5.10566 456.24L2.75442 450.087C2.04534 448.232 2.80509 446.137 4.53873 445.168L14.0799 439.833Z" fill="#DD603C"/>
<path d="M42.6295 456.304C43.3892 455.879 44.2667 455.714 45.1289 455.833L61.5078 458.096C62.7873 458.272 63.9027 459.056 64.5027 460.2L67.7877 466.462C68.7956 468.383 68.0881 470.758 66.193 471.814L56.0132 477.488C55.2259 477.927 54.3133 478.087 53.4236 477.943L36.7495 475.231C35.3428 475.002 34.164 474.042 33.6552 472.71L31.304 466.558C30.5949 464.703 31.3547 462.608 33.0883 461.639L42.6295 456.304Z" fill="#DD603C"/>
<path d="M238.084 425.559C238.844 425.134 239.721 424.968 240.584 425.087L256.963 427.35C258.242 427.527 259.357 428.31 259.957 429.454L263.242 435.716C264.25 437.638 263.543 440.012 261.648 441.069L251.468 446.743C250.681 447.182 249.768 447.342 248.878 447.197L232.204 444.485C230.798 444.256 229.619 443.296 229.11 441.965L226.759 435.813C226.05 433.957 226.809 431.863 228.543 430.893L238.084 425.559Z" fill="#DD603C"/>
<path d="M288.351 396.68C289.111 396.255 289.988 396.089 290.85 396.208L307.406 398.495C308.685 398.672 309.801 399.456 310.401 400.6L313.74 406.965C314.748 408.886 314.04 411.261 312.145 412.317L301.833 418.065C301.046 418.504 300.133 418.664 299.243 418.519L282.387 415.778C280.981 415.549 279.802 414.589 279.293 413.258L276.903 407.002C276.193 405.147 276.953 403.052 278.687 402.083L288.351 396.68Z" fill="#DD603C"/>
<path d="M306.164 435.441C306.924 435.016 307.801 434.851 308.663 434.97L325.042 437.233C326.322 437.409 327.437 438.193 328.037 439.337L331.322 445.599C332.33 447.52 331.623 449.895 329.728 450.951L319.548 456.625C318.76 457.064 317.848 457.224 316.958 457.079L300.284 454.367C298.877 454.139 297.699 453.179 297.19 451.847L294.839 445.695C294.129 443.84 294.889 441.745 296.623 440.776L306.164 435.441Z" fill="#DD603C"/>
<path d="M383.028 423.362C383.788 422.938 384.666 422.772 385.528 422.891L401.907 425.154C403.186 425.331 404.301 426.114 404.901 427.258L408.186 433.52C409.194 435.442 408.487 437.816 406.592 438.872L396.412 444.547C395.625 444.985 394.712 445.146 393.822 445.001L377.148 442.289C375.742 442.06 374.563 441.1 374.054 439.769L371.703 433.617C370.994 431.761 371.753 429.667 373.487 428.697L383.028 423.362Z" fill="#DD603C"/>
<path d="M504.913 321.243C505.673 320.818 506.55 320.653 507.412 320.772L523.791 323.034C525.071 323.211 526.186 323.995 526.786 325.138L530.071 331.401C531.079 333.322 530.372 335.696 528.476 336.753L518.297 342.427C517.509 342.866 516.597 343.026 515.707 342.881L499.033 340.169C497.626 339.94 496.448 338.98 495.939 337.649L493.587 331.497C492.878 329.642 493.638 327.547 495.372 326.578L504.913 321.243Z" fill="#DD603C"/>
<path d="M649.857 319.047C650.617 318.622 651.494 318.457 652.356 318.576L668.735 320.838C670.015 321.015 671.13 321.799 671.73 322.942L675.015 329.205C676.023 331.126 675.316 333.5 673.42 334.557L663.241 340.231C662.453 340.67 661.541 340.83 660.651 340.685L643.977 337.973C642.57 337.744 641.392 336.784 640.883 335.453L638.531 329.301C637.822 327.445 638.582 325.351 640.316 324.381L649.857 319.047Z" fill="#DD603C"/>
<path d="M592.758 286.105C593.518 285.68 594.395 285.515 595.257 285.634L611.636 287.896C612.916 288.073 614.031 288.857 614.631 290.001L617.916 296.263C618.924 298.184 618.216 300.559 616.321 301.615L606.142 307.289C605.354 307.728 604.442 307.888 603.552 307.743L586.878 305.031C585.471 304.802 584.292 303.842 583.784 302.511L581.432 296.359C580.723 294.504 581.483 292.409 583.217 291.44L592.758 286.105Z" fill="#DD603C"/>
<path d="M632.288 280.615C633.048 280.19 633.925 280.024 634.787 280.144L651.166 282.406C652.446 282.583 653.561 283.366 654.161 284.51L657.446 290.772C658.454 292.694 657.747 295.068 655.851 296.125L645.672 301.799C644.884 302.238 643.972 302.398 643.082 302.253L626.408 299.541C625.001 299.312 623.823 298.352 623.314 297.021L620.962 290.869C620.253 289.013 621.013 286.919 622.747 285.949L632.288 280.615Z" fill="#DD603C"/>
<path d="M613.621 241.084C614.381 240.66 615.258 240.494 616.12 240.613L632.499 242.876C633.779 243.053 634.894 243.836 635.494 244.98L638.779 251.242C639.787 253.164 639.079 255.538 637.184 256.594L627.005 262.269C626.217 262.707 625.305 262.867 624.415 262.723L607.741 260.011C606.334 259.782 605.155 258.822 604.647 257.491L602.295 251.338C601.586 249.483 602.346 247.389 604.08 246.419L613.621 241.084Z" fill="#DD603C"/>
<path d="M546.639 231.202C547.399 230.777 548.276 230.612 549.139 230.731L565.518 232.993C566.797 233.17 567.912 233.954 568.512 235.097L571.797 241.36C572.805 243.281 572.098 245.655 570.203 246.712L560.023 252.386C559.236 252.825 558.323 252.985 557.433 252.84L540.759 250.128C539.353 249.899 538.174 248.939 537.665 247.608L535.314 241.456C534.605 239.601 535.364 237.506 537.098 236.537L546.639 231.202Z" fill="#DD603C"/>
<path d="M489.54 197.162C490.3 196.737 491.177 196.572 492.04 196.691L508.418 198.953C509.698 199.13 510.813 199.914 511.413 201.058L514.698 207.32C515.706 209.241 514.999 211.616 513.104 212.672L502.924 218.346C502.137 218.785 501.224 218.945 500.334 218.8L483.66 216.088C482.253 215.86 481.075 214.899 480.566 213.568L478.215 207.416C477.506 205.561 478.265 203.466 479.999 202.497L489.54 197.162Z" fill="#DD603C"/>
<path d="M529.07 192.77C529.83 192.345 530.708 192.18 531.57 192.299L547.949 194.561C549.228 194.738 550.343 195.522 550.943 196.665L554.228 202.928C555.236 204.849 554.529 207.223 552.634 208.28L542.454 213.954C541.667 214.393 540.754 214.553 539.864 214.408L523.19 211.696C521.784 211.467 520.605 210.507 520.096 209.176L517.745 203.024C517.036 201.169 517.795 199.074 519.529 198.105L529.07 192.77Z" fill="#DD603C"/>
<path d="M500.521 175.201C501.28 174.776 502.158 174.611 503.02 174.73L519.399 176.992C520.678 177.169 521.794 177.953 522.394 179.096L525.679 185.359C526.687 187.28 525.979 189.654 524.084 190.711L513.904 196.385C513.117 196.824 512.205 196.984 511.315 196.839L494.641 194.127C493.234 193.898 492.055 192.938 491.546 191.607L489.195 185.455C488.486 183.6 489.246 181.505 490.98 180.536L500.521 175.201Z" fill="#DD603C"/>
<path d="M510.403 153.24C511.163 152.815 512.041 152.649 512.903 152.768L529.282 155.031C530.561 155.208 531.676 155.991 532.276 157.135L535.561 163.397C536.569 165.319 535.862 167.693 533.967 168.749L523.787 174.424C523 174.863 522.087 175.023 521.197 174.878L504.523 172.166C503.117 171.937 501.938 170.977 501.429 169.646L499.078 163.494C498.369 161.638 499.128 159.544 500.862 158.574L510.403 153.24Z" fill="#DD603C"/>
<path d="M521.384 130.18C522.144 129.755 523.021 129.59 523.883 129.709L540.262 131.972C541.542 132.148 542.657 132.932 543.257 134.076L546.542 140.338C547.55 142.259 546.842 144.634 544.947 145.69L534.768 151.364C533.98 151.803 533.068 151.963 532.178 151.819L515.504 149.107C514.097 148.878 512.918 147.918 512.41 146.587L510.058 140.434C509.349 138.579 510.109 136.484 511.843 135.515L521.384 130.18Z" fill="#DD603C"/>
<path d="M533.463 107.121C534.222 106.696 535.1 106.531 535.962 106.65L552.341 108.912C553.62 109.089 554.736 109.873 555.336 111.017L558.621 117.279C559.629 119.2 558.921 121.575 557.026 122.631L546.846 128.305C546.059 128.744 545.146 128.904 544.257 128.759L527.583 126.047C526.176 125.819 524.997 124.859 524.488 123.527L522.137 117.375C521.428 115.52 522.188 113.425 523.921 112.456L533.463 107.121Z" fill="#DD603C"/>
<path d="M543.345 85.1598C544.105 84.735 544.982 84.5696 545.845 84.6887L562.223 86.9513C563.503 87.128 564.618 87.9117 565.218 89.0555L568.503 95.3177C569.511 97.239 568.804 99.6135 566.909 100.67L556.729 106.344C555.941 106.783 555.029 106.943 554.139 106.798L537.465 104.086C536.058 103.857 534.88 102.897 534.371 101.566L532.02 95.4139C531.311 93.5586 532.07 91.464 533.804 90.4946L543.345 85.1598Z" fill="#DD603C"/>
<path d="M581.777 78.5714C582.537 78.1466 583.414 77.9813 584.277 78.1004L600.655 80.3629C601.935 80.5396 603.05 81.3233 603.65 82.4671L606.935 88.7293C607.943 90.6506 607.236 93.0251 605.341 94.0814L595.161 99.7556C594.374 100.194 593.461 100.355 592.571 100.21L575.897 97.4978C574.49 97.269 573.312 96.309 572.803 94.9777L570.452 88.8256C569.743 86.9702 570.502 84.8756 572.236 83.9062L581.777 78.5714Z" fill="#DD603C"/>
<path d="M571.895 101.631C572.654 101.206 573.532 101.041 574.394 101.16L590.773 103.422C592.052 103.599 593.168 104.383 593.768 105.526L597.053 111.789C598.061 113.71 597.353 116.084 595.458 117.141L585.278 122.815C584.491 123.254 583.579 123.414 582.689 123.269L566.015 120.557C564.608 120.328 563.429 119.368 562.92 118.037L560.569 111.885C559.86 110.029 560.62 107.935 562.353 106.966L571.895 101.631Z" fill="#DD603C"/>
<path d="M540.174 169.173C540.934 168.749 541.811 168.583 542.674 168.702L559.79 171.067C561.069 171.243 562.185 172.027 562.785 173.171L566.296 179.864C567.304 181.785 566.596 184.16 564.701 185.216L553.969 191.198C553.181 191.637 552.269 191.797 551.379 191.652L533.946 188.817C532.539 188.588 531.361 187.628 530.852 186.297L528.336 179.714C527.627 177.859 528.387 175.764 530.12 174.795L540.174 169.173Z" fill="#DD603C"/>
<path d="M579.052 163.407C579.812 162.983 580.69 162.817 581.552 162.936L598.668 165.301C599.947 165.477 601.063 166.261 601.663 167.405L605.174 174.098C606.182 176.019 605.474 178.394 603.579 179.45L592.847 185.432C592.059 185.871 591.147 186.031 590.257 185.887L572.824 183.051C571.418 182.822 570.239 181.862 569.73 180.531L567.214 173.948C566.505 172.093 567.265 169.998 568.999 169.029L579.052 163.407Z" fill="#DD603C"/>
<path d="M550.503 146.937C551.263 146.512 552.14 146.346 553.002 146.466L570.118 148.83C571.398 149.007 572.513 149.79 573.113 150.934L576.624 157.627C577.632 159.548 576.925 161.923 575.03 162.979L564.297 168.961C563.51 169.4 562.597 169.56 561.708 169.416L544.275 166.58C542.868 166.351 541.689 165.391 541.18 164.06L538.665 157.477C537.956 155.622 538.715 153.527 540.449 152.558L550.503 146.937Z" fill="#DD603C"/>
<path d="M559.287 123.877C560.047 123.453 560.925 123.287 561.787 123.406L578.903 125.771C580.182 125.947 581.298 126.731 581.898 127.875L585.409 134.568C586.417 136.489 585.709 138.864 583.814 139.92L573.082 145.902C572.294 146.341 571.382 146.501 570.492 146.356L553.059 143.521C551.653 143.292 550.474 142.332 549.965 141.001L547.449 134.418C546.74 132.563 547.5 130.468 549.233 129.499L559.287 123.877Z" fill="#DD603C"/>
<path d="M588.935 140.348C589.695 139.923 590.572 139.758 591.434 139.877L608.551 142.242C609.83 142.418 610.945 143.202 611.545 144.346L615.056 151.039C616.064 152.96 615.357 155.335 613.462 156.391L602.729 162.373C601.942 162.812 601.029 162.972 600.14 162.827L582.707 159.992C581.3 159.763 580.121 158.803 579.613 157.472L577.097 150.889C576.388 149.034 577.147 146.939 578.881 145.97L588.935 140.348Z" fill="#DD603C"/>
<path d="M599.705 117.403C600.465 116.978 601.343 116.812 602.205 116.931L619.049 119.258C620.328 119.435 621.444 120.219 622.044 121.362L625.471 127.896C626.479 129.818 625.771 132.192 623.876 133.248L613.348 139.117C612.561 139.556 611.648 139.716 610.758 139.571L593.606 136.781C592.199 136.553 591.02 135.592 590.511 134.261L588.056 127.837C587.347 125.982 588.107 123.887 589.841 122.918L599.705 117.403Z" fill="#DD603C"/>
<path d="M610.896 94.2297C611.656 93.8049 612.533 93.6395 613.396 93.7586L630.512 96.123C631.791 96.2997 632.907 97.0834 633.507 98.2272L637.018 104.92C638.026 106.841 637.318 109.216 635.423 110.272L624.691 116.255C623.903 116.693 622.991 116.853 622.101 116.709L604.668 113.873C603.261 113.645 602.083 112.685 601.574 111.353L599.058 104.77C598.349 102.915 599.109 100.82 600.842 99.8511L610.896 94.2297Z" fill="#DD603C"/>
<path d="M619.681 72.2685C620.44 71.8437 621.318 71.6783 622.18 71.7974L639.296 74.1618C640.576 74.3385 641.691 75.1222 642.291 76.266L645.802 82.959C646.81 84.8803 646.103 87.2548 644.207 88.3111L633.475 94.2933C632.688 94.7322 631.775 94.8923 630.885 94.7475L613.453 91.9121C612.046 91.6833 610.867 90.7233 610.358 89.392L607.843 82.8093C607.133 80.9539 607.893 78.8593 609.627 77.89L619.681 72.2685Z" fill="#DD603C"/>
<path d="M630.661 49.2092C631.421 48.7844 632.299 48.6191 633.161 48.7382L650.277 51.1025C651.556 51.2792 652.672 52.0629 653.272 53.2067L656.783 59.8998C657.791 61.8211 657.083 64.1955 655.188 65.2518L644.456 71.2341C643.668 71.6729 642.756 71.833 641.866 71.6883L624.433 68.8529C623.026 68.6241 621.848 67.6641 621.339 66.3328L618.823 59.75C618.114 57.8946 618.874 55.8 620.607 54.8307L630.661 49.2092Z" fill="#DD603C"/>
<path d="M671.29 43.7189C672.049 43.2941 672.927 43.1288 673.789 43.2479L690.905 45.6122C692.185 45.7889 693.3 46.5726 693.9 47.7164L697.411 54.4095C698.419 56.3308 697.711 58.7052 695.816 59.7615L685.084 65.7438C684.296 66.1826 683.384 66.3427 682.494 66.198L665.061 63.3626C663.655 63.1338 662.476 62.1738 661.967 60.8425L659.451 54.2597C658.742 52.4044 659.502 50.3097 661.236 49.3404L671.29 43.7189Z" fill="#DD603C"/>
<path d="M659.781 67.0635C660.54 66.6387 661.418 66.4733 662.28 66.5924L678.713 68.8623C679.992 69.039 681.107 69.8227 681.707 70.9665L685.009 77.26C686.017 79.1813 685.309 81.5557 683.414 82.6121L673.194 88.3086C672.407 88.7475 671.494 88.9075 670.605 88.7628L653.876 86.0418C652.469 85.813 651.29 84.853 650.781 83.5217L648.418 77.3384C647.709 75.483 648.469 73.3884 650.202 72.4191L659.781 67.0635Z" fill="#DD603C"/>
<path d="M699.839 60.1898C700.599 59.765 701.476 59.5996 702.339 59.7187L719.455 62.0831C720.734 62.2598 721.85 63.0435 722.45 64.1873L725.961 70.8804C726.968 72.8016 726.261 75.1761 724.366 76.2324L713.633 82.2146C712.846 82.6535 711.934 82.8136 711.044 82.6689L693.611 79.8335C692.204 79.6047 691.026 78.6446 690.517 77.3133L688.001 70.7306C687.292 68.8752 688.052 66.7806 689.785 65.8113L699.839 60.1898Z" fill="#DD603C"/>
<path d="M709.722 37.1305C710.481 36.7058 711.359 36.5404 712.221 36.6595L729.337 39.0238C730.617 39.2006 731.732 39.9843 732.332 41.128L735.843 47.8211C736.851 49.7424 736.143 52.1168 734.248 53.1732L723.516 59.1554C722.729 59.5943 721.816 59.7543 720.926 59.6096L703.494 56.7742C702.087 56.5454 700.908 55.5854 700.399 54.2541L697.883 47.6713C697.174 45.816 697.934 43.7214 699.668 42.752L709.722 37.1305Z" fill="#DD603C"/>
<path d="M738.271 54.6995C739.031 54.2747 739.908 54.1093 740.771 54.2285L757.887 56.5928C759.166 56.7695 760.282 57.5532 760.882 58.697L764.393 65.3901C765.401 67.3113 764.693 69.6858 762.798 70.7421L752.066 76.7244C751.278 77.1632 750.366 77.3233 749.476 77.1786L732.043 74.3432C730.636 74.1144 729.458 73.1544 728.949 71.8231L726.433 65.2403C725.724 63.3849 726.484 61.2903 728.217 60.321L738.271 54.6995Z" fill="#DD603C"/>
<path d="M749.252 31.6403C750.011 31.2155 750.889 31.0501 751.751 31.1692L768.867 33.5335C770.147 33.7103 771.262 34.494 771.862 35.6377L775.373 42.3308C776.381 44.2521 775.674 46.6265 773.779 47.6829L763.046 53.6651C762.259 54.104 761.346 54.264 760.457 54.1193L743.024 51.2839C741.617 51.0551 740.438 50.0951 739.929 48.7638L737.414 42.181C736.705 40.3257 737.464 38.2311 739.198 37.2617L749.252 31.6403Z" fill="#DD603C"/>
<path d="M777.801 48.1111C778.561 47.6864 779.439 47.521 780.301 47.6401L797.417 50.0044C798.696 50.1812 799.812 50.9648 800.412 52.1086L803.923 58.8017C804.931 60.723 804.223 63.0974 802.328 64.1537L791.596 70.136C790.808 70.5749 789.896 70.7349 789.006 70.5902L771.573 67.7548C770.167 67.526 768.988 66.566 768.479 65.2347L765.963 58.6519C765.254 56.7966 766.014 54.7019 767.747 53.7326L777.801 48.1111Z" fill="#DD603C"/>
<path d="M759.134 8.58099C759.894 8.1562 760.772 7.99082 761.634 8.10992L778.75 10.4743C780.029 10.651 781.145 11.4347 781.745 12.5785L785.256 19.2715C786.264 21.1928 785.556 23.5673 783.661 24.6236L772.929 30.6058C772.141 31.0447 771.229 31.2048 770.339 31.06L752.906 28.2246C751.5 27.9958 750.321 27.0358 749.812 25.7045L747.296 19.1218C746.587 17.2664 747.347 15.1718 749.081 14.2025L759.134 8.58099Z" fill="#DD603C"/>
<path d="M596.164 201.63C596.924 201.205 597.802 201.039 598.664 201.159L615.71 203.513C616.99 203.69 618.105 204.474 618.705 205.617L622.195 212.27C623.202 214.191 622.495 216.565 620.6 217.622L609.92 223.575C609.132 224.014 608.22 224.174 607.33 224.029L589.969 221.205C588.562 220.977 587.384 220.017 586.875 218.685L584.375 212.143C583.666 210.288 584.425 208.193 586.159 207.224L596.164 201.63Z" fill="#DD603C"/>
<path d="M674.836 189.434C675.596 189.01 676.474 188.844 677.336 188.963L694.579 191.345C695.859 191.522 696.974 192.306 697.574 193.449L701.124 200.217C702.132 202.138 701.425 204.513 699.53 205.569L688.702 211.604C687.914 212.043 687.002 212.203 686.112 212.059L668.548 209.202C667.142 208.973 665.963 208.013 665.454 206.682L662.91 200.025C662.201 198.169 662.96 196.075 664.694 195.105L674.836 189.434Z" fill="#DD603C"/>
<path d="M645.034 173.34C645.794 172.915 646.672 172.75 647.534 172.869L664.777 175.251C666.057 175.427 667.172 176.211 667.772 177.355L671.322 184.122C672.33 186.044 671.623 188.418 669.728 189.474L658.9 195.51C658.112 195.949 657.2 196.109 656.31 195.964L638.746 193.107C637.339 192.879 636.161 191.919 635.652 190.587L633.108 183.93C632.399 182.075 633.158 179.98 634.892 179.011L645.034 173.34Z" fill="#DD603C"/>
<path d="M684.995 167.514C685.755 167.09 686.632 166.924 687.494 167.043L703.873 169.306C705.153 169.483 706.268 170.266 706.868 171.41L710.153 177.672C711.161 179.594 710.453 181.968 708.558 183.024L698.379 188.699C697.591 189.137 696.679 189.297 695.789 189.153L679.115 186.441C677.708 186.212 676.529 185.252 676.021 183.921L673.669 177.768C672.96 175.913 673.72 173.819 675.454 172.849L684.995 167.514Z" fill="#DD603C"/>
<path d="M724.214 161.093C724.974 160.668 725.852 160.502 726.714 160.621L743.524 162.944C744.803 163.12 745.918 163.904 746.518 165.048L749.936 171.562C750.943 173.483 750.236 175.857 748.341 176.914L737.838 182.768C737.051 183.207 736.138 183.367 735.248 183.222L718.131 180.438C716.724 180.209 715.546 179.249 715.037 177.918L712.589 171.514C711.88 169.659 712.64 167.564 714.374 166.595L724.214 161.093Z" fill="#DD603C"/>
<path d="M734.74 138.033C735.5 137.609 736.378 137.443 737.24 137.562L754.049 139.884C755.329 140.061 756.444 140.845 757.044 141.988L760.461 148.502C761.469 150.424 760.762 152.798 758.867 153.855L748.364 159.709C747.577 160.148 746.664 160.308 745.774 160.163L728.657 157.379C727.25 157.15 726.071 156.19 725.563 154.859L723.115 148.455C722.406 146.6 723.166 144.505 724.9 143.536L734.74 138.033Z" fill="#DD603C"/>
<path d="M696.308 144.622C697.068 144.197 697.945 144.032 698.808 144.151L715.617 146.473C716.897 146.649 718.012 147.433 718.612 148.577L722.029 155.091C723.037 157.012 722.33 159.387 720.435 160.443L709.932 166.297C709.145 166.736 708.232 166.896 707.342 166.751L690.225 163.967C688.818 163.738 687.639 162.778 687.131 161.447L684.683 155.043C683.974 153.188 684.734 151.093 686.467 150.124L696.308 144.622Z" fill="#DD603C"/>
<path d="M706.191 122.66C706.95 122.236 707.828 122.07 708.69 122.189L725.5 124.511C726.779 124.688 727.895 125.472 728.495 126.616L731.912 133.13C732.92 135.051 732.212 137.425 730.317 138.482L719.814 144.336C719.027 144.775 718.115 144.935 717.225 144.79L700.107 142.006C698.701 141.777 697.522 140.817 697.013 139.486L694.566 133.082C693.857 131.227 694.616 129.132 696.35 128.163L706.191 122.66Z" fill="#DD603C"/>
<path d="M678.739 106.19C679.499 105.765 680.376 105.599 681.239 105.718L698.048 108.04C699.328 108.217 700.443 109.001 701.043 110.145L704.46 116.659C705.468 118.58 704.761 120.954 702.866 122.011L692.363 127.865C691.576 128.304 690.663 128.464 689.773 128.319L672.656 125.535C671.249 125.306 670.07 124.346 669.562 123.015L667.114 116.611C666.405 114.756 667.165 112.661 668.898 111.692L678.739 106.19Z" fill="#DD603C"/>
<path d="M688.622 83.1303C689.382 82.7055 690.259 82.5401 691.121 82.6592L707.931 84.9812C709.21 85.158 710.326 85.9417 710.926 87.0854L714.343 93.5994C715.351 95.5207 714.643 97.8952 712.748 98.9515L702.246 104.806C701.458 105.245 700.546 105.405 699.656 105.26L682.538 102.476C681.132 102.247 679.953 101.287 679.444 99.9557L676.997 93.5519C676.288 91.6966 677.047 89.6019 678.781 88.6326L688.622 83.1303Z" fill="#DD603C"/>
<path d="M650.19 88.6206C650.949 88.1958 651.827 88.0304 652.689 88.1495L669.499 90.4715C670.778 90.6483 671.894 91.4319 672.494 92.5757L675.911 99.0897C676.919 101.011 676.211 103.385 674.316 104.442L663.813 110.296C663.026 110.735 662.113 110.895 661.224 110.75L644.106 107.966C642.7 107.737 641.521 106.777 641.012 105.446L638.565 99.0422C637.856 97.1869 638.615 95.0922 640.349 94.1229L650.19 88.6206Z" fill="#DD603C"/>
<path d="M717.171 99.6012C717.931 99.1764 718.809 99.0111 719.671 99.1302L736.481 101.452C737.76 101.629 738.875 102.413 739.475 103.556L742.892 110.07C743.9 111.992 743.193 114.366 741.298 115.422L730.795 121.277C730.008 121.716 729.095 121.876 728.205 121.731L711.088 118.947C709.681 118.718 708.503 117.758 707.994 116.427L705.546 110.023C704.837 108.168 705.597 106.073 707.331 105.104L717.171 99.6012Z" fill="#DD603C"/>
<path d="M639.209 111.68C639.969 111.255 640.846 111.09 641.709 111.209L658.518 113.531C659.798 113.708 660.913 114.491 661.513 115.635L664.93 122.149C665.938 124.07 665.231 126.445 663.335 127.501L652.833 133.355C652.045 133.794 651.133 133.954 650.243 133.809L633.126 131.025C631.719 130.797 630.54 129.837 630.031 128.505L627.584 122.101C626.875 120.246 627.635 118.151 629.368 117.182L639.209 111.68Z" fill="#DD603C"/>
<path d="M627.13 133.641C627.89 133.216 628.768 133.051 629.63 133.17L646.44 135.492C647.719 135.669 648.834 136.452 649.434 137.596L652.852 144.11C653.859 146.032 653.152 148.406 651.257 149.462L640.754 155.316C639.967 155.755 639.054 155.915 638.164 155.771L621.047 152.987C619.64 152.758 618.462 151.798 617.953 150.466L615.505 144.063C614.796 142.207 615.556 140.113 617.29 139.143L627.13 133.641Z" fill="#DD603C"/>
<path d="M657.081 150.788C657.841 150.363 658.718 150.197 659.581 150.316L676.311 152.627C677.59 152.804 678.706 153.588 679.306 154.732L682.698 161.199C683.706 163.12 682.999 165.495 681.104 166.551L670.66 172.372C669.873 172.811 668.961 172.971 668.071 172.826L651.035 170.056C649.629 169.827 648.45 168.867 647.941 167.535L645.511 161.178C644.802 159.323 645.562 157.228 647.296 156.259L657.081 150.788Z" fill="#DD603C"/>
</g>
</svg>
