<svg width="300" height="110" viewBox="0 0 300 110" fill="none" xmlns="http://www.w3.org/2000/svg">
<path d="M191.83 30.8474H175.747C174.13 30.8474 172.823 32.1544 172.823 33.7715V106.875C172.823 108.492 174.13 109.799 175.747 109.799H191.83C193.447 109.799 194.754 108.492 194.754 106.875V33.7715C194.754 32.1544 193.447 30.8474 191.83 30.8474" fill="white"/>
<path d="M234.229 49.677V106.875C234.229 108.492 235.536 109.799 237.153 109.799H253.236C254.853 109.799 256.16 108.492 256.16 106.875V57.7627C256.16 55.0047 258.386 52.7784 261.144 52.7784H273.084C275.842 52.7784 278.069 55.0047 278.069 57.7627V106.875C278.069 108.492 279.376 109.799 280.993 109.799H297.076C298.693 109.799 300 108.492 300 106.875V49.677C300 39.2764 291.571 30.8474 281.17 30.8474H253.059C242.658 30.8474 234.229 39.2764 234.229 49.677V49.677Z" fill="white"/>
<path d="M183.788 0C177.131 0 171.726 5.4052 171.726 12.062C171.726 18.7188 177.131 24.124 183.788 24.124C190.445 24.124 195.85 18.7188 195.85 12.062C195.85 5.4052 190.456 0 183.788 0Z" fill="white"/>
<path d="M222.533 4.52991H206.45C204.833 4.52991 203.526 5.8369 203.526 7.45403V106.874C203.526 108.491 204.833 109.798 206.45 109.798H222.533C224.15 109.798 225.457 108.491 225.457 106.874V7.45403C225.457 5.8369 224.15 4.52991 222.533 4.52991Z" fill="white"/>
<path d="M167.949 105.246L145.697 71.8735C145.066 70.932 145.043 69.7025 145.63 68.7278L166.044 35.2887C167.24 33.3393 165.833 30.836 163.552 30.836H146.262C145.243 30.836 144.301 31.3677 143.77 32.2316L130.511 53.941C129.946 54.8604 128.95 55.5028 127.787 55.5028C126.014 55.5028 124.575 54.0629 124.575 52.2907V10.7548C124.575 9.13768 123.267 7.83069 121.65 7.83069H105.568C103.951 7.83069 102.644 9.13768 102.644 10.7548V106.874C102.644 108.491 103.951 109.798 105.568 109.798H121.65C123.267 109.798 124.575 108.491 124.575 106.874V87.0147C124.575 85.2425 126.014 83.8026 127.787 83.8026C128.894 83.8026 129.858 84.3564 130.445 85.2093L145.974 108.503C146.517 109.311 147.425 109.81 148.411 109.81H165.523C167.86 109.81 169.256 107.207 167.96 105.268" fill="white"/>
<path d="M29.5734 61.3319L39.1765 51.7288C39.83 51.0753 40.8822 51.0753 41.5247 51.7288L51.1278 61.3319C52.2575 62.4616 54.074 62.4616 55.2038 61.3319L63.6218 52.9139C64.7515 51.7842 64.7515 49.9676 63.6218 48.8379L46.6197 31.8359C43.1639 28.3801 37.5483 28.3801 34.0925 31.8359L17.0905 48.8379C15.9607 49.9676 15.9607 51.7842 17.0905 52.9139L25.5084 61.3319C26.6382 62.4616 28.4547 62.4616 29.5845 61.3319H29.5734Z" fill="#FF6521"/>
<path d="M78.1096 63.3476L73.9228 59.1608C72.793 58.031 70.9765 58.031 69.8467 59.1608L59.4018 69.6057L41.5248 87.4827C40.8713 88.1362 39.8191 88.1362 39.1766 87.4827L21.2996 69.6057L10.8547 59.1497C9.72493 58.0199 7.90843 58.0199 6.77865 59.1497L2.59184 63.3365C-0.863946 66.7923 -0.863946 72.4079 2.59184 75.8637L34.0926 107.365C37.5484 110.82 43.1641 110.82 46.6199 107.365L78.1207 75.8637C81.5765 72.4079 81.5765 66.7923 78.1207 63.3365L78.1096 63.3476Z" fill="white"/>
</svg>
